<?xml version="1.0" encoding="utf-8"?>
<!-- Generator: Adobe Illustrator 13.0.2, SVG Export Plug-In  -->
<!DOCTYPE svg PUBLIC "-//W3C//DTD SVG 1.1//EN" "http://www.w3.org/Graphics/SVG/1.1/DTD/svg11.dtd" [
	<!ENTITY ns_flows "http://ns.adobe.com/Flows/1.0/">
]>
<svg version="1.1"
	 xmlns="http://www.w3.org/2000/svg" xmlns:xlink="http://www.w3.org/1999/xlink" xmlns:a="http://ns.adobe.com/AdobeSVGViewerExtensions/3.0/"
	 x="0px" y="0px" width="1024px" height="1024px" viewBox="38.762 -468.318 1024 1024"
	 enable-background="new 38.762 -468.318 1024 1024" xml:space="preserve">
<defs>
</defs>
<g>
	<g>
		<path fill="none" d="M466.262,1239.682c-85.5,0-85.5-85.5-85.5-85.5v-598.5l-0.125-456c0,0,0-85.5-85.5-85.5s-85.5,0-85.5,0h-85.5
			c0,0-85.5,2-85.5,86.5"/>
		<path d="M491.752,1225.532c-1.7-0.012-3.396-0.046-5.095-0.104c7.208,0.248,1.59,0.022,0.093-0.115
			c-3.035-0.279-6.047-0.755-9.042-1.308c-1.419-0.262-2.826-0.59-4.23-0.919c-4.64-1.085,3.618,1.136-0.836-0.216
			c-2.523-0.766-4.987-1.715-7.419-2.728c-9.003-3.748-17.063-9.473-23.82-16.472c0.689,0.732,1.378,1.465,2.068,2.198
			c-15.095-16.111-24.071-39.912-24.071-62.069c0-10.7,0-21.401,0-32.102c0-63.375,0-126.75,0-190.124c0-78.814,0-157.63,0-236.444
			c0-45.625,0-91.25,0-136.874c0-34.599-0.019-69.197-0.028-103.795c-0.021-78-0.043-155.999-0.064-233.998
			c-0.008-30.046-0.017-60.091-0.025-90.137c-0.003-10.758,0.367-21.59-0.043-32.343c-1.068-27.938-13.978-56.051-37.137-72.336
			c-24.298-17.086-55.409-15.615-83.65-15.615c-18.865,0-37.729,0-56.594,0c-17.511,0-35.021,0-52.532,0
			c-13.233,0-26.466,0-39.699,0c-16.25,0-32.833,3.769-48.47,7.674C75.625,14.084,47.869,24.615,28.216,42.74
			C8.685,60.754,0.181,84.685,0,111.035c-0.029,4.2,11.725,3.822,13.147,3.798c9.459-0.159,18.975-2.052,28.079-4.491
			c9.104-2.439,18.29-5.558,26.562-10.149c3.498-1.941,9.454-5.015,9.487-9.862c0.057-8.312,0.875-16.518,2.782-24.614
			c-0.231,0.979-0.461,1.958-0.692,2.938c2.593-10.272,6.906-19.836,13.268-28.33c1.351-1.804,2.829-3.51,4.342-5.178
			c2.684-2.958-3.036,2.978-0.207,0.213c0.772-0.755,1.576-1.475,2.38-2.195c1.575-1.412,3.237-2.724,4.922-4.002
			c0.826-0.626,1.676-1.221,2.525-1.814c3.424-2.395-6.323,3.924-1.244,0.812c1.69-1.036,3.433-1.984,5.188-2.904
			c4.233-2.22-8.24,3.931-3.952,1.902c0.854-0.404,1.719-0.782,2.585-1.161c0.848-0.372,1.707-0.719,2.565-1.067
			c4.719-1.912-10.335,3.896-5.595,2.166c0.824-0.301,1.655-0.581,2.485-0.861c6.539-2.206-11.273,3.353-6.148,1.841
			c1.524-0.45,3.062-0.851,4.603-1.236c4.952-1.237-12.383,2.827-7.468,1.733c0.687-0.153,1.377-0.293,2.067-0.433
			c1.27-0.258,2.547-0.484,3.825-0.699c-14.511,2.438-10.305,1.6-7.195,1.145c0.688-0.101,1.377-0.19,2.067-0.277
			c0.875-0.11,1.751-0.204,2.629-0.29c3.015-0.297,7.842-0.554-5.954,0.398c0.537-0.037,1.08-0.083,1.618-0.083
			c4.369,0,8.739,0,13.108,0c18.802,0,37.604,0,56.405,0c11.189,0,22.377,0,33.566,0c24.297,0,48.713-0.73,72.992,0.104
			c-7.779-0.267,1.271,0.258,3.009,0.47c2.952,0.36,5.877,0.916,8.782,1.547c0.766,0.166,5.405,1.427,0.919,0.145
			c1.299,0.371,2.58,0.806,3.859,1.24c2.449,0.833,4.832,1.844,7.184,2.917c8.095,3.695,15.338,9.052,21.503,15.438
			c-0.689-0.732-1.378-1.465-2.068-2.198C333.03,64.114,341.994,87.911,342,110.074c0.004,13.567,0.008,27.134,0.011,40.701
			c0.02,71.982,0.04,143.965,0.059,215.947c0.017,62.167,0.034,124.334,0.051,186.501c0.007,24.344,0.003,48.688,0.003,73.031
			c0,70.503,0,141.005,0,211.508c0,75.974,0,151.947,0,227.921c0,33.316-1.237,66.898,0.035,100.198
			c0.631,16.501,5.537,33.291,13.981,47.451c18.111,30.371,50.925,40.271,84.63,40.5c18.135,0.123,38.854-5.877,54.641-14.641
			c2.315-1.285,10.64-5.559,9.487-9.862C503.735,1224.984,494.419,1225.549,491.752,1225.532L491.752,1225.532z"/>
	</g>
</g>
</svg>
