<?xml version="1.0" encoding="utf-8"?>
<!-- Generator: Adobe Illustrator 13.0.2, SVG Export Plug-In  -->
<!DOCTYPE svg PUBLIC "-//W3C//DTD SVG 1.1//EN" "http://www.w3.org/Graphics/SVG/1.1/DTD/svg11.dtd" [
	<!ENTITY ns_flows "http://ns.adobe.com/Flows/1.0/">
]>
<svg version="1.1"
	 xmlns="http://www.w3.org/2000/svg" xmlns:xlink="http://www.w3.org/1999/xlink" xmlns:a="http://ns.adobe.com/AdobeSVGViewerExtensions/3.0/"
	 x="0px" y="0px" width="1024px" height="1024px" viewBox="38.649 14.169 1024 1024"
	 enable-background="new 38.649 14.169 1024 1024" xml:space="preserve">
<defs>
</defs>
<g>
	<g>
		<path fill="none" d="M38.649,14.169v598.5c0,0,0,85.5,85.5,85.5"/>
		<path d="M0.012,24.522c0,25.28,0,50.559,0,75.838c0,58.207,0,116.414,0,174.62c0,64.686,0,129.373,0,194.059
			c0,44.718,0,89.437,0,134.155c0,6.62-0.028,13.24,0,19.859c0.075,17.425,5.821,35.793,15.05,50.433
			c6.85,10.866,16.479,20.279,27.626,26.66c16.805,9.619,36.95,12.069,55.97,12.174c9.369,0.052,19.093-2.083,28.079-4.491
			c9.104-2.439,18.29-5.558,26.562-10.149c2.315-1.285,10.64-5.559,9.487-9.862c-1.164-4.344-10.481-3.783-13.147-3.798
			c-1.387-0.008-2.772-0.03-4.159-0.069c-4.541-0.126,6.656,0.502-0.063-0.076c-3.302-0.283-6.582-0.778-9.838-1.385
			c-1.158-0.216-2.306-0.475-3.454-0.734c-5.019-1.136,2.023,0.683-0.968-0.204c-2.747-0.814-5.432-1.826-8.074-2.932
			c-9.063-3.794-17.19-9.554-23.966-16.642c0.689,0.732,1.378,1.465,2.068,2.197c-14.8-15.861-22.514-37.789-23.802-59.257
			c-0.326-5.423-0.097-10.903-0.097-16.331c0-41.801,0-83.603,0-125.404c0-64.018,0-128.035,0-192.052c0-59.786,0-119.572,0-179.358
			c0-29.106,0-58.213,0-87.32c0-0.212,0-0.424,0-0.635c0-4.205-11.695-3.822-13.147-3.798C54.68,0.178,45.165,2.071,36.061,4.51
			C26.958,6.95,17.771,10.068,9.499,14.66C6.033,16.584,0.012,19.686,0.012,24.522L0.012,24.522z"/>
	</g>
</g>
</svg>
