<?xml version="1.0" encoding="utf-8"?>
<!-- Generator: Adobe Illustrator 13.0.2, SVG Export Plug-In  -->
<!DOCTYPE svg PUBLIC "-//W3C//DTD SVG 1.1//EN" "http://www.w3.org/Graphics/SVG/1.1/DTD/svg11.dtd" [
	<!ENTITY ns_flows "http://ns.adobe.com/Flows/1.0/">
]>
<svg version="1.1"
	 xmlns="http://www.w3.org/2000/svg" xmlns:xlink="http://www.w3.org/1999/xlink" xmlns:a="http://ns.adobe.com/AdobeSVGViewerExtensions/3.0/"
	 x="0px" y="0px" width="1024px" height="1024px" viewBox="38.763 -1009.83 1024 1024"
	 enable-background="new 38.763 -1009.83 1024 1024" xml:space="preserve">
<defs>
</defs>
<g>
	<g>
		<path fill="none" d="M380.763,14.17v42.625c0,0-0.25,42.626-42.75,42.875h-256.5c0,0-42.75,0-42.75,42.75s0,42.75,0,42.75v42.75
			c0,0,0,42.75,42.75,42.75h256.5c0,0,42.75-0.125,42.75,42.75v213.75c0,0,0,170.875-171,171"/>
		<path d="M342.126,24.522c0,11.469,0,22.938,0,34.406c0,6.347,0.016,12.225-1.435,18.455c0.23-0.979,0.461-1.959,0.692-2.938
			c-1.496,6.113-3.937,11.896-7.605,17.031c-0.932,1.305-5.215,5.833-0.67,1.239c-1.287,1.3-2.715,2.449-4.182,3.537
			c-3.356,2.489,5.95-3.649,2.283-1.496c-4.149,2.436,8.269-3.811,3.797-1.803c-0.322,0.135-0.645,0.269-0.967,0.403
			c4.875-2.099,9.882-3.813,15.021-5.146c-3.775,0.996-1.446,0.463,6.987-1.6c-3.521,0.645-1.566,0.338,5.863-0.92
			c-4.955,0.668,9.348-0.174,1.574-0.174c-0.103,0-0.205,0-0.307,0c-0.626,0-1.252,0-1.878,0c-2.635,0-5.269,0-7.904,0
			c-24.191,0-48.383,0-72.574,0c-55.484,0-110.968,0-166.453,0c-3.021,0-6.068-0.122-9.086,0.075
			c-29.642,1.935-61.263,9.617-85.731,27.072c-7.38,5.265-13.381,12.777-16.363,21.339c-4.136,11.873-3.061,24.659-3.061,37.005
			c0,8.167,0,16.335,0,24.502c0,11.313,0,22.625,0,33.938c0,6.995-0.037,13.476,1.69,20.325
			c3.729,14.793,14.587,27.431,29.424,31.723c10.341,2.991,20.783,3.322,31.434,3.322c55.093,0,110.185,0,165.277,0
			c24.535,0,49.069,0,73.604,0c3.675,0,7.352-0.021,11.028,0.001c4.03,0.022-8.934-0.652-3.525-0.154
			c2.203,0.203,4.388,0.575,6.55,1.038c0.621,0.133,1.236,0.287,1.852,0.44c2.864,0.716-4.806-1.405-1.909-0.526
			c1.392,0.422,2.756,0.931,4.107,1.47c3.224,1.287,6.257,2.999,9.081,5.011c1.887,1.345,3.596,2.917,5.197,4.586
			c-0.689-0.732-1.378-1.466-2.068-2.198c13.443,14.745,10.257,37.516,10.257,56.031c0,30.2,0,60.401,0,90.602
			c0,27.487,0,54.974,0,82.46c0,7.608,0.153,15.188-0.447,22.775c-0.861,10.897-2.649,21.727-5.133,32.367
			c0.231-0.979,0.461-1.958,0.692-2.938c-5.777,24.434-15.588,47.993-30.448,68.331c-2.017,2.76-4.147,5.435-6.344,8.053
			c-1.118,1.331-2.271,2.633-3.434,3.923c-0.587,0.651-1.186,1.292-1.785,1.933c-3.207,3.431,2.414-2.405,0.201-0.18
			c-5.369,5.402-11.215,10.315-17.38,14.782c-1.538,1.114-3.11,2.181-4.691,3.232c8.23-5.469,1.77-1.173-0.222,0.018
			c-1.694,1.014-3.42,1.974-5.154,2.916c-0.88,0.478-1.77,0.938-2.659,1.397c-5.882,3.04,7.241-3.446,2.858-1.369
			c-1.872,0.887-3.77,1.716-5.676,2.524c-0.969,0.412-1.947,0.804-2.925,1.194c-5.025,2.013,10.082-3.811,4.978-1.927
			c-2.044,0.755-4.111,1.446-6.185,2.117c-5.559,1.799,11.557-3.457,5.922-1.798c-1.449,0.426-2.907,0.818-4.366,1.206
			c-0.74,0.194-1.481,0.384-2.224,0.567c-3.815,0.929-1.49,0.396,6.976-1.601c-1.921,0.443-3.853,0.837-5.787,1.219
			c-1.981,0.391-3.972,0.73-5.965,1.058c7.468-1.155,9.41-1.47,5.826-0.942c-1.241,0.18-2.486,0.337-3.73,0.495
			c-2.117,0.268-4.24,0.483-6.364,0.688c-0.865,0.08-1.731,0.155-2.598,0.226c-5.523,0.463,8.518-0.557,2.939-0.221
			c-4.577,0.276-9.162,0.376-13.747,0.393c-18.227,0.063-38.744,5.815-54.641,14.641c-2.315,1.285-10.64,5.559-9.487,9.862
			c1.16,4.327,10.488,3.808,13.147,3.798c55.68-0.193,114.47-14.498,160.792-46.188c24.595-16.826,43.646-41.272,55.768-68.332
			c11.887-26.535,18.568-56.441,18.568-85.578c0-55.242,0-110.483,0-165.726c0-10.983,0-21.967,0-32.95
			c0-6.534,0.273-13.154-0.72-19.629c-4.168-27.168-31.767-37.397-56.034-37.397c-49.267,0-98.535,0-147.802,0
			c-28.095,0-56.189,0-84.284,0c-7.046,0-14.093,0-21.14,0c-0.636,0-1.271,0-1.907,0c-0.143,0-0.285,0-0.428,0
			c-5.353,0,6.076,0.494,1.09,0.096c-2.433-0.195-4.835-0.642-7.208-1.195c5.417,1.263-1.224-0.589-2.647-1.219
			c-3.77-1.67-7.147-4.113-10.112-6.957c-0.418-0.412-0.827-0.834-1.226-1.266c0.689,0.732,1.379,1.465,2.068,2.197
			C74.311,231.799,77.4,209.144,77.4,188.925c0-5.514,0-11.026,0-16.54c0-5.675,0-11.351,0-17.026
			c0-11.812-1.265-24.311,1.435-35.893c-0.23,0.979-0.461,1.958-0.692,2.938c1.067-4.091,2.626-7.914,4.852-11.513
			c0.98-1.584,2.146-3.045,3.364-4.451c2.287-2.64-3.289,3.181-0.787,0.817c0.834-0.788,1.733-1.506,2.637-2.213
			c0.661-0.517,1.355-0.989,2.048-1.462c-7.411,5.054-4.554,2.913-2.729,1.871c5.219-2.978-9.087,4.006-2.494,1.242
			c-13.007,5.452-9.2,3.458-6.209,2.41c3.283-1.15,8.3-2.344-7.512,2.263c7.282-2.122-12.586,2.638-5.482,1.255
			c5.503-1.071-11.985,1.715-5.94,0.943c0.771-0.099,1.546-0.171,2.322-0.232c-13.717,1.093-9.106,0.486-6.169,0.486
			c1.196,0,2.391,0,3.587,0c20.57,0,41.141,0,61.711,0c58.491,0,116.981,0,175.472,0c5.127,0,10.255,0,15.382,0
			c18.489,0,36.854-4.367,54.335-10.042c15.523-5.039,30.807-12.571,41.562-25.116C422.768,61.544,419.4,36.146,419.4,15.465
			c0-3.883,0-7.766,0-11.647c0-4.205-11.695-3.822-13.147-3.798c-9.459,0.159-18.975,2.052-28.079,4.491
			c-9.104,2.439-18.29,5.558-26.562,10.149C348.146,16.585,342.126,19.687,342.126,24.522L342.126,24.522z"/>
	</g>
</g>
</svg>
