<?xml version="1.0" encoding="utf-8"?>
<!-- Generator: Adobe Illustrator 13.0.2, SVG Export Plug-In  -->
<!DOCTYPE svg PUBLIC "-//W3C//DTD SVG 1.1//EN" "http://www.w3.org/Graphics/SVG/1.1/DTD/svg11.dtd" [
	<!ENTITY ns_flows "http://ns.adobe.com/Flows/1.0/">
]>
<svg version="1.1"
	 xmlns="http://www.w3.org/2000/svg" xmlns:xlink="http://www.w3.org/1999/xlink" xmlns:a="http://ns.adobe.com/AdobeSVGViewerExtensions/3.0/"
	 x="0px" y="0px" width="1024px" height="1024px" viewBox="38.911 14.17 1024 1024" enable-background="new 38.911 14.17 1024 1024"
	 xml:space="preserve">
<defs>
</defs>
<g>
	<g>
		<path fill="none" d="M337.768,525.17c-44,0-42.75-42.75-42.75-42.75s0.394-40.75-42.356-40.75h-42.75h-42.75
			c-42.75,0-42.75,40.75-42.75,40.75s0,42.75-42.75,42.75"/>
		<path d="M338.603,515.961c-8.093-0.085-14.479-1.948-20.708-7.153c-0.149-0.125-2.257-2.128-0.811-0.646
			c-0.593-0.608-1.141-1.258-1.688-1.906c-1.058-1.254-1.984-2.612-2.865-3.993c-0.399-0.625-2.438-4.561-1.533-2.608
			c-0.716-1.545-1.304-3.148-1.844-4.762c-0.809-2.419-1.382-4.914-1.823-7.424c-0.179-1.02-0.314-2.047-0.434-3.075
			c-0.26-2.237,0.105,2.278-0.046-0.708c-0.073-1.438-0.039-2.868-0.148-4.306c-1.011-13.287-5.9-25.315-15.656-34.621
			c-12.289-11.722-29.628-12.299-45.57-12.299c-24.549,0-49.098,0-73.647,0c-17.953,0-35.033,4.587-47.172,18.555
			c-7.297,8.396-11.487,20.308-12.021,31.371c-0.068,1.409-0.109,2.81-0.253,4.216c-0.191,1.867-0.506,3.72-0.884,5.557
			c-0.125,0.609-0.27,1.214-0.415,1.818c0.621-2.587,0.057-0.311-0.086,0.179c-0.402,1.38-0.887,2.733-1.401,4.075
			c-0.457,1.192-0.988,2.354-1.539,3.504c-0.343,0.717-0.724,1.415-1.104,2.112c-1.3,2.381,1.145-1.767-0.362,0.544
			c-0.927,1.422-1.988,2.751-3.092,4.038c-0.275,0.321-2.336,2.333-0.47,0.543c-0.656,0.629-1.358,1.206-2.059,1.782
			c-0.484,0.388-0.979,0.762-1.483,1.123c-2.53,1.864,2.08-1.174-0.708,0.447c-0.869,0.505-1.777,0.937-2.684,1.369
			c-0.369,0.175-3.548,1.325-0.935,0.414c-1.058,0.369-2.145,0.65-3.228,0.933c-0.124,0.032-3.855,0.745-1.526,0.387
			c-2.616,0.402-5.269,0.503-7.911,0.533c-5.376,0.059-12.109,4.078-12.632,9.892c-0.555,6.174,5.942,8.58,10.961,8.524
			c20.843-0.229,39.484-9.838,49.248-28.525c3.779-7.234,6.009-16.063,6.135-24.253c0.049-3.169,0.608-6.35,1.33-9.426
			c-0.672,2.865,0.421-1.289,0.657-1.998c0.455-1.37,1.001-2.706,1.58-4.027c0.302-0.689,2.465-4.683,1.186-2.552
			c0.993-1.653,2.154-3.196,3.383-4.679c0.274-0.331,2.255-2.401,0.383-0.541c0.635-0.631,1.317-1.213,1.998-1.793
			c0.704-0.6,1.453-1.143,2.201-1.684c2.547-1.844-2.077,1.178,0.733-0.425c3.292-1.878,6.608-2.818,9.858-3.226
			c5.403-0.679,11.024-0.372,16.459-0.372c24.375,0,48.75,0,73.125,0c6.469,0,11.469,0.579,17.089,3.027
			c2.047,0.892,5.034,2.937,7.83,5.603c-1.132-1.08,1.663,2.075,2.159,2.74c1.117,1.5,2.069,3.116,2.955,4.759
			c0.174,0.323,1.237,2.659,0.287,0.542c0.3,0.668,0.566,1.351,0.833,2.033c0.501,1.285,0.916,2.604,1.303,3.927
			c0.691,2.367,1.165,4.797,1.501,7.237c0.06,0.433,0.107,0.867,0.155,1.301c0.18,1.644-0.19-2.474-0.076-0.967
			c0.038,0.497,0.061,0.994,0.077,1.492c0.013,0.407,0.002,0.813,0.006,1.221c0.095,10.004,2.745,19.752,7.781,28.4
			c9.482,16.284,28.128,21.998,45.932,22.184c5.367,0.057,12.116-4.16,12.631-9.892
			C350.126,518.233,343.611,516.014,338.603,515.961L338.603,515.961z"/>
	</g>
</g>
<g>
	<g>
		<path fill="none" d="M380.911,14.17l-0.394,470.375c0,0,0.144,42.376-42.356,42.625"/>
		<path d="M342.274,3.817c-0.025,30.619-0.051,61.238-0.077,91.857c-0.053,63.341-0.106,126.683-0.159,190.024
			c-0.044,53.289-0.089,106.578-0.134,159.868c-0.017,20.285,3.085,43.493-12.101,59.671c0.689-0.732,1.378-1.465,2.068-2.198
			c-3.115,3.16-6.649,5.656-10.646,7.581c-0.94,0.453-1.917,0.827-2.89,1.201c-4.683,1.799,2.386-0.46-0.83,0.306
			c-1.572,0.375-3.174,0.605-4.773,0.82c-6.601,0.886,4.538-0.005-0.061,0.073c-2.675,0.045-11.978-0.565-13.147,3.798
			c-1.153,4.304,7.171,8.577,9.487,9.862c8.272,4.592,17.458,7.71,26.562,10.149c8.92,2.391,18.763,4.648,28.079,4.491
			c12.289-0.207,25.305-1.532,35.822-8.497c6.435-4.263,11.651-10.825,14.945-17.757c2.927-6.158,4.73-13.416,4.736-20.27
			c0.008-9.508,0.016-19.017,0.024-28.525c0.044-53.29,0.089-106.579,0.134-159.868c0.053-63.341,0.106-126.682,0.159-190.023
			c0.026-30.619,0.051-61.238,0.077-91.857c0.004-4.834-6.024-7.94-9.487-9.862c-8.272-4.592-17.458-7.71-26.562-10.149
			c-9.104-2.439-18.619-4.332-28.079-4.491C353.966-0.005,342.278-0.388,342.274,3.817L342.274,3.817z"/>
	</g>
</g>
<g>
	<g>
		<path fill="none" d="M466.411,99.545c0,0-342,0-384.75,0s-42.75,42.75-42.75,42.75V484.42c0,42.75,42.75,42.75,42.75,42.75"/>
		<path d="M491.901,85.395c-39.315,0-78.631,0-117.947,0c-67.283,0-134.565,0-201.848,0c-20.38,0-40.76,0-61.139,0
			c-14.782,0-28.978,2.309-43.366,5.663c-17.145,3.996-37.439,10.915-50.482,23.427c-10.155,9.742-15.5,21.793-16.721,35.795
			c-0.817,9.38-0.125,19.057-0.125,28.455c0,25.605,0,51.21,0,76.815c0,62.295,0,124.59,0,186.885c0,16.535,0,33.07,0,49.605
			c0,9.771,1.329,19.296,6.813,27.645c8.333,12.686,22.7,18.732,37.232,20.845c3.891,0.566,7.959,0.776,11.853,0.79
			c9.377,0.035,19.083-2.081,28.079-4.491c9.104-2.439,18.29-5.558,26.562-10.149c2.315-1.286,10.64-5.559,9.487-9.862
			c-1.163-4.34-10.482-3.788-13.147-3.798c-0.24-0.001-0.48-0.01-0.72-0.02c11.345,0.437,6.405,0.392,3.785,0.123
			c-2.701-0.277-5.372-0.794-8.003-1.458c-2.863-0.722,4.805,1.406,1.909,0.521c-0.917-0.28-1.819-0.603-2.718-0.933
			c-1.927-0.707-3.789-1.575-5.606-2.524c-3.758-1.964-7.13-4.576-10.061-7.631c0.689,0.733,1.378,1.465,2.068,2.198
			c-11.912-13.062-10.257-30.684-10.257-47.01c0-23.541,0-47.082,0-70.623c0-63.004,0-126.009,0-189.014c0-17.673,0-35.346,0-53.019
			c0-7.446-0.286-14.625,1.383-21.946c-0.23,0.979-0.461,1.958-0.692,2.938c1.467-6.116,3.886-11.903,7.549-17.037
			c0.934-1.31,5.216-5.815,0.667-1.229c1.287-1.297,2.717-2.441,4.186-3.523c3.364-2.478-5.951,3.646-2.275,1.509
			c4.159-2.419-8.271,3.805-3.787,1.818c-2.334,0.89-4.668,1.781-7.002,2.671c3.677-1.266,1.333-0.567-7.032,2.096
			c3.781-0.977,1.457-0.438-6.972,1.617c-7.511,1.102-9.459,1.415-5.845,0.939c5.412-0.696-8.592,0.417-2.952,0.228
			c0.634-0.021,1.272-0.016,1.908-0.016c0.567,0,1.135,0,1.702,0c1.498,0,2.996,0,4.495,0c3.848,0,7.697,0,11.545,0
			c25.393,0,50.785,0,76.177,0c67.903,0,135.807,0,203.709,0c28.869,0,57.738,0,86.607,0c18.196,0,38.781-5.836,54.641-14.641
			c2.315-1.286,10.64-5.559,9.487-9.862C503.887,84.859,494.563,85.395,491.901,85.395L491.901,85.395z"/>
	</g>
</g>
</svg>
