<?xml version="1.0" encoding="utf-8"?>
<!-- Generator: Adobe Illustrator 13.0.2, SVG Export Plug-In  -->
<!DOCTYPE svg PUBLIC "-//W3C//DTD SVG 1.1//EN" "http://www.w3.org/Graphics/SVG/1.1/DTD/svg11.dtd" [
	<!ENTITY ns_flows "http://ns.adobe.com/Flows/1.0/">
]>
<svg version="1.1"
	 xmlns="http://www.w3.org/2000/svg" xmlns:xlink="http://www.w3.org/1999/xlink" xmlns:a="http://ns.adobe.com/AdobeSVGViewerExtensions/3.0/"
	 x="0px" y="0px" width="1024px" height="1024px" viewBox="36.763 -469.343 1024 1024"
	 enable-background="new 36.763 -469.343 1024 1024" xml:space="preserve">
<defs>
</defs>
<g>
	<g>
		<line fill="none" x1="38.638" y1="34.532" x2="38.638" y2="99.657"/>
		<path d="M0,44.885c0,21.709,0,43.417,0,65.125c0,4.205,11.695,3.822,13.147,3.798c9.459-0.159,18.975-2.052,28.079-4.491
			c9.104-2.439,18.29-5.558,26.562-10.149c3.466-1.925,9.487-5.026,9.487-9.862c0-21.709,0-43.417,0-65.125
			c0-4.205-11.695-3.822-13.147-3.798c-9.459,0.159-18.975,2.052-28.079,4.491c-9.104,2.439-18.29,5.558-26.562,10.149
			C6.021,36.947,0,40.049,0,44.885L0,44.885z"/>
	</g>
</g>
<g>
	<g>
		<path fill="none" d="M81.388,14.157c0,0-42.75,0-42.75,42.75"/>
		<path d="M55.897,0.007c-10.973,0.04-22.152,2.008-32.101,6.769C8.222,14.229,0.186,29.756,0,46.555
			c-0.053,4.817,6.071,7.966,9.487,9.862c8.272,4.592,17.458,7.71,26.562,10.149c9.104,2.439,18.619,4.332,28.079,4.491
			c1.5,0.025,13.1,0.415,13.147-3.798c0.119-10.769,2.88-21.14,10.257-29.229c-0.689,0.732-1.379,1.466-2.068,2.198
			c2.955-3.081,6.317-5.587,10.061-7.631c1.583-0.864,3.241-1.588,4.914-2.259c0.901-0.361,1.82-0.676,2.74-0.984
			c3.958-1.325-3.965,1.029-1.239,0.308c2.623-0.694,5.308-1.159,8.003-1.458c0.774-0.086,1.551-0.146,2.328-0.191
			c-10.756,0.628-7.638,0.304-5.394,0.295c2.665-0.01,11.984,0.542,13.147-3.798c1.153-4.304-7.171-8.577-9.487-9.862
			c-8.272-4.592-17.458-7.71-26.562-10.149C74.98,2.087,65.274-0.028,55.897,0.007L55.897,0.007z"/>
	</g>
</g>
<g>
	<g>
		<path fill="none" d="M464.263,1238.657c-85.5,0-85.5-85.5-85.5-85.5v-598.5l1.875-497.75c0,0,0-42.75-42.75-42.75"/>
		<path d="M489.753,1224.507c-1.688-0.012-3.373-0.045-5.061-0.103c7.234,0.247,1.641,0.027,0.133-0.11
			c-3.017-0.274-6.012-0.745-8.99-1.29c-1.412-0.259-2.811-0.583-4.208-0.907c-4.622-1.073,3.629,1.139-0.81-0.198
			c-2.917-0.878-5.757-1.988-8.551-3.197c-8.845-3.826-16.736-9.586-23.344-16.567c0.689,0.733,1.378,1.466,2.068,2.198
			c-14.78-16.082-23.589-39.629-23.589-61.558c0-10.673,0-21.346,0-32.019c0-63.239,0-126.478,0-189.717
			c0-78.737,0-157.474,0-236.211c0-45.804,0-91.607,0-137.411c0-32.187,0.23-64.373,0.352-96.56
			c0.292-77.537,0.584-155.075,0.876-232.612c0.208-55.083,0.415-110.165,0.623-165.247c0.016-4.28,0.081-8.396-0.567-12.649
			c-1.332-8.75-4.807-17.188-10.616-23.913c-11.471-13.281-27.775-16.204-44.69-16.43c-18.073-0.242-38.925,5.917-54.641,14.641
			c-2.315,1.286-10.639,5.559-9.486,9.862c1.167,4.357,10.475,3.762,13.147,3.798c5.928,0.08-5.688-0.532-0.083,0.016
			c1.481,0.145,2.945,0.418,4.406,0.696c4.652,0.883-3.511-1.221,0.785,0.178c1.218,0.396,2.393,0.91,3.563,1.423
			c4.201,1.844,7.9,4.663,11.079,7.938c-0.689-0.732-1.379-1.465-2.068-2.198c10.685,11.675,11.94,25.97,11.884,40.755
			c-0.083,22.182-0.167,44.363-0.25,66.545c-0.287,76.116-0.573,152.233-0.86,228.35c-0.226,59.977-0.452,119.954-0.678,179.931
			c-0.089,23.613-0.049,47.227-0.049,70.84c0,69.911,0,139.821,0,209.731c0,76.206,0,152.413,0,228.619
			c0,34.277-0.774,68.655,0.009,102.927c0.363,15.904,5.025,32.224,12.734,46.07c6.532,11.732,16.239,22.024,27.618,29.143
			c17.193,10.755,38.434,13.403,58.285,13.536c18.135,0.122,38.853-5.877,54.641-14.641c2.315-1.285,10.64-5.559,9.487-9.862
			C501.736,1223.959,492.42,1224.524,489.753,1224.507L489.753,1224.507z"/>
	</g>
</g>
<g>
	<g>
		<path fill="none" d="M337.888,14.157c-44,0-42.75,42.75-42.75,42.75c0,42.75-42.75,42.75-42.75,42.75h-42.75h-42.75
			c-42.75,0-42.75-42.75-42.75-42.75s0-42.75-42.75-42.75"/>
		<path d="M338.723,4.949c-20.672,0.217-39.506,9.281-49.375,27.843c-4.234,7.965-5.923,17.244-6.021,26.193
			c-0.052,4.663-0.688,9.021-2.097,13.066c-0.676,1.941-1.581,3.794-2.563,5.596c0.95-1.742-0.639,0.874-0.724,0.996
			c-0.702,1.009-1.496,1.95-2.299,2.878c-1.951,2.253,1.619-1.463-0.508,0.546c-0.628,0.594-1.298,1.142-1.966,1.688
			c-0.654,0.535-1.343,1.026-2.031,1.517c-2.333,1.664,2.18-1.291-0.242,0.153c-1.359,0.811-2.784,1.506-4.221,2.164
			c-0.689,0.315-1.394,0.598-2.097,0.88c3.597-1.442,0.394-0.196-0.413,0.062c-2.383,0.763-4.832,1.313-7.295,1.742
			c4.684-0.815-1.027,0.05-2.476,0.134c-2.547,0.148-5.119,0.042-7.667,0.042c-24.636,0-49.272,0-73.909,0
			c-5.629,0-11.284-0.253-15.21-1.503c-4.583-1.46-5.609-2.148-9.058-4.834c-2.851-2.22-3.822-3.434-6.329-7.279
			c-0.879-1.348-1.637-2.771-2.355-4.209c0.933,1.866-0.777-2.012-1.023-2.685c-0.979-2.671-1.684-5.441-2.227-8.231
			c-0.2-1.025-0.356-2.059-0.498-3.094c-0.118-0.869-0.386-4.128-0.085-0.356c-0.055-0.682-0.096-1.366-0.098-2.05
			c-0.035-9.475-2.77-18.695-7.128-27.038c-9.074-17.367-28.025-24.017-46.583-24.221c-5.367-0.059-12.116,4.163-12.632,9.892
			c-0.563,6.255,5.953,8.47,10.961,8.524c8.065,0.09,14.39,2.162,20.567,7.513c0.136,0.118,2.195,2.194,0.809,0.727
			c0.593,0.628,1.141,1.298,1.688,1.966c1.06,1.294,1.988,2.69,2.872,4.107c0.427,0.686,0.814,1.396,1.201,2.104
			c0.156,0.286,1.287,2.67,0.346,0.616c0.72,1.572,1.315,3.199,1.864,4.838c0.811,2.422,1.4,4.916,1.862,7.426
			c0.183,0.993,0.326,1.994,0.454,2.996c0.396,3.105-0.018-0.833,0.069,0.499c0.144,2.198,0.226,4.378,0.417,6.581
			c1.118,12.83,6.852,24.838,16.123,33.731c12.221,11.724,29.345,12.396,45.247,12.396c24.549,0,49.098,0,73.647,0
			c7.63,0,15.175-0.951,22.453-3.389c18.135-6.073,31.201-18.952,35.59-37.782c1.115-4.785,0.95-9.602,1.27-14.448
			c0.126-1.926,0.39-3.841,0.724-5.74c0.121-0.689,1.045-4.573,0.337-1.856c0.349-1.339,0.778-2.654,1.235-3.959
			c0.491-1.399,1.08-2.763,1.704-4.107c0.325-0.701,0.688-1.385,1.05-2.067c1.246-2.344-1.164,1.791,0.288-0.485
			c0.889-1.394,1.911-2.696,2.975-3.958c0.289-0.343,2.287-2.352,0.389-0.501c0.635-0.619,1.316-1.189,1.997-1.758
			c0.702-0.587,1.449-1.116,2.195-1.646c-2.291,1.625,0.303-0.142,0.718-0.373c0.874-0.487,1.785-0.902,2.694-1.317
			c3.104-1.417-2.406,0.765,0.953-0.354c1.065-0.354,2.156-0.625,3.244-0.896c0.119-0.03,3.863-0.689,1.554-0.351
			c2.635-0.387,5.305-0.483,7.964-0.512c5.375-0.056,12.108-4.079,12.631-9.892C350.24,7.297,343.742,4.896,338.723,4.949
			L338.723,4.949z"/>
	</g>
</g>
</svg>
