<?xml version="1.0" encoding="utf-8"?>
<!-- Generator: Adobe Illustrator 13.0.2, SVG Export Plug-In  -->
<!DOCTYPE svg PUBLIC "-//W3C//DTD SVG 1.1//EN" "http://www.w3.org/Graphics/SVG/1.1/DTD/svg11.dtd" [
	<!ENTITY ns_flows "http://ns.adobe.com/Flows/1.0/">
]>
<svg version="1.1"
	 xmlns="http://www.w3.org/2000/svg" xmlns:xlink="http://www.w3.org/1999/xlink" xmlns:a="http://ns.adobe.com/AdobeSVGViewerExtensions/3.0/"
	 x="0px" y="0px" width="1024px" height="1024px" viewBox="38.723 -99.831 1024 1024"
	 enable-background="new 38.723 -99.831 1024 1024" xml:space="preserve">
<defs>
</defs>
<g>
	<g>
		<path fill="none" d="M466.223,498.669c-85.5,0-85.5-85.5-85.5-85.5V56.919c0,0-0.25-42.75-42.75-42.75"/>
		<path d="M491.713,484.519c-1.387-0.008-2.772-0.03-4.159-0.069c-4.541-0.126,6.656,0.502-0.063-0.076
			c-3.302-0.283-6.582-0.778-9.838-1.385c-1.158-0.216-2.306-0.475-3.454-0.734c-5.019-1.136,2.023,0.683-0.968-0.204
			c-2.747-0.814-5.432-1.826-8.074-2.932c-9.063-3.794-17.19-9.554-23.966-16.642c0.689,0.732,1.378,1.465,2.068,2.197
			c-14.8-15.861-22.514-37.789-23.802-59.257c-0.49-8.171-0.097-16.449-0.097-24.626c0-56.524,0-113.048,0-169.572
			c0-51.499,0-102.998,0-154.497c0-5.152,0.241-10.327-0.482-15.443c-1.231-8.708-4.534-17.19-10.134-24.019
			C397.375,3.396,380.698,0.21,363.463,0.019c-9.343-0.104-19.125,2.092-28.079,4.491c-9.104,2.439-18.29,5.558-26.562,10.149
			c-2.315,1.286-10.64,5.559-9.487,9.862c1.167,4.353,10.477,3.769,13.147,3.798c5.199,0.058-6.189-0.496-1.202-0.095
			c1.644,0.132,3.273,0.4,4.895,0.692c5.048,0.911-1.868-0.739,0.979,0.171c1.339,0.428,2.635,0.98,3.919,1.55
			c4.305,1.913,8.098,4.813,11.319,8.223c-0.689-0.733-1.378-1.465-2.068-2.198c9.24,10.26,11.762,23.303,11.762,36.565
			c0,18.412,0,36.824,0,55.236c0,62.833,0,125.667,0,188.5c0,35.595-0.553,71.239,0.003,106.831
			c0.243,15.573,4.793,31.659,12.156,45.295c6.531,12.094,16.357,22.756,27.998,30.068c17.243,10.831,38.55,13.553,58.49,13.662
			c9.369,0.052,19.093-2.083,28.079-4.491c9.104-2.439,18.29-5.558,26.562-10.149c2.315-1.285,10.64-5.559,9.487-9.862
			C503.696,483.973,494.379,484.534,491.713,484.519L491.713,484.519z"/>
	</g>
</g>
<g>
	<g>
		<path fill="none" d="M81.473,99.669c0,0-42.75,0-42.75-42.75v-42.75"/>
		<path d="M106.963,85.519c-0.24-0.001-0.48-0.01-0.72-0.02c11.345,0.437,6.405,0.392,3.785,0.123
			c-2.701-0.277-5.372-0.794-8.003-1.458c-2.863-0.722,4.805,1.406,1.909,0.521c-0.917-0.28-1.819-0.603-2.718-0.933
			c-1.927-0.707-3.789-1.575-5.606-2.524c-3.758-1.964-7.13-4.576-10.061-7.631c0.689,0.733,1.378,1.465,2.068,2.198
			C78.01,65.261,77.36,52.028,77.36,38.547c0-11.577,0-23.154,0-34.73c0-4.205-11.695-3.822-13.147-3.798
			C54.753,0.178,45.238,2.071,36.134,4.51C27.031,6.95,17.844,10.068,9.572,14.66c-3.466,1.924-9.487,5.026-9.487,9.862
			c0,9.234,0,18.468,0,27.702c0,10.657-0.837,21.675,2.724,31.899c7.606,21.833,32.15,29.62,53.173,29.697
			c9.377,0.035,19.083-2.081,28.079-4.491c9.104-2.439,18.29-5.558,26.562-10.149c2.315-1.286,10.64-5.559,9.487-9.862
			C118.947,84.977,109.627,85.529,106.963,85.519L106.963,85.519z"/>
	</g>
</g>
<g>
	<g>
		<path fill="none" d="M338.616,14.169c-42.5,0-43,42.75-43,42.75c0,42.75-43.144,40.75-43.144,40.75c-44,0-42.75-42.75-42.75-42.75
			s0-40.75-42.75-40.75s-42.75,40.75-42.75,40.75s0,42.75-42.75,42.75"/>
		<path d="M339.451,4.961c-20.879,0.231-39.395,9.923-49.275,28.525c-4.678,8.806-5.939,18.41-6.491,28.158
			c-0.262,4.635-0.996,7.937-2.714,12.059c-0.383,0.918-0.841,1.801-1.299,2.683c-1.427,2.742,1.036-1.502-0.64,0.985
			c-0.509,0.755-1.079,1.466-1.648,2.175c-0.338,0.422-3.01,3.088-1.023,1.195c-1.216,1.158-2.559,2.177-3.927,3.145
			c-2.311,1.634,2.196-1.3-0.213,0.106c-0.684,0.399-1.391,0.756-2.097,1.114c-0.898,0.454-5.717,2.297-1.911,0.924
			c-1.553,0.561-3.146,1.004-4.747,1.406c-1.244,0.312-2.503,0.556-3.766,0.778c4.387-0.772,0.378-0.106-0.674,0.004
			c-1.592,0.167-3.195,0.251-4.795,0.258c-1.934,0.008-2.589-0.036-4.63-0.238c-5.122-0.507-7.423-1.16-12.277-3.536
			c1.752,0.857-0.935-0.572-1.063-0.653c-0.782-0.495-1.524-1.05-2.263-1.605c-0.717-0.538-1.391-1.131-2.063-1.723
			c-2.136-1.881,1.17,1.357-0.728-0.686c-2.392-2.576-4.295-5.579-5.882-8.702c0.979,1.926-0.757-1.923-1.005-2.598
			c-0.477-1.298-0.87-2.625-1.235-3.958c-0.666-2.427-1.114-4.914-1.427-7.409c-0.375-2.995,0.066,1.478-0.065-0.519
			c-0.038-0.572-0.059-1.146-0.072-1.72c-0.01-0.422,0.002-0.844-0.01-1.266c-0.115-4.103-0.692-8.229-1.676-12.211
			c-3.854-15.593-14.892-28.261-30.183-33.473c-21.271-7.25-47.626-3.09-63.441,13.425c-9.456,9.875-12.926,22.813-13.883,36.031
			c-0.216,2.981-0.737,5.937-1.434,8.841c0.652-2.719-0.127,0.313-0.289,0.842c-0.352,1.153-0.767,2.286-1.198,3.411
			c-0.839,2.187-1.884,4.286-3.043,6.318c1.255-2.199-0.645,0.832-0.918,1.214c-0.831,1.165-1.762,2.251-2.718,3.314
			c-0.84,0.885-0.803,0.851,0.113-0.104c-0.44,0.412-0.891,0.812-1.351,1.2c-0.534,0.462-4.363,3.089-2.053,1.66
			c-1.132,0.701-2.329,1.289-3.53,1.861c-0.631,0.29-1.269,0.562-1.915,0.817c2.628-1.079-0.801,0.143-1.145,0.243
			c-0.74,0.203-1.484,0.387-2.233,0.551c-3.704,0.863,2.31-0.224-1.64,0.284c-2.209,0.284-4.442,0.349-6.667,0.373
			c-5.376,0.059-12.109,4.078-12.632,9.892c-0.555,6.174,5.942,8.58,10.961,8.525c20.843-0.23,39.484-9.838,49.248-28.525
			c3.779-7.234,6.009-16.063,6.135-24.253c0.049-3.169,0.608-6.35,1.33-9.426c-0.672,2.865,0.421-1.289,0.657-1.998
			c0.455-1.37,1.001-2.706,1.58-4.027c0.302-0.689,2.465-4.683,1.186-2.552c0.993-1.653,2.154-3.196,3.383-4.679
			c0.274-0.331,2.255-2.401,0.383-0.541c0.635-0.631,1.317-1.213,1.998-1.793c0.704-0.6,1.453-1.143,2.201-1.684
			c2.547-1.844-2.077,1.178,0.733-0.425c3.292-1.878,6.608-2.818,9.858-3.226c5.304-0.666,9.224-0.473,14.327,0.422
			c2.437,0.428,2.257,0.426,4.944,1.423c2.872,1.065,3.148,1.3,4.855,2.401c1.547,0.998,2.969,2.175,4.336,3.402
			c0.346,0.311,1.023,1.013,2.345,2.685c1.011,1.279,1.894,2.655,2.732,4.052c0.403,0.671,0.767,1.365,1.13,2.059
			c0.742,1.415-0.464-1.173,0.535,1.214c1.846,4.41,2.946,9.161,3.431,13.909c-0.092-0.895-0.059-1.849-0.039,0.271
			c0.006,0.657,0.009,1.311,0.038,1.967c0.216,4.986,0.919,9.932,2.303,14.729c4.858,16.837,17.672,28.597,34.577,32.808
			c11.375,2.833,24.005,2.353,35.28-0.799c11.452-3.201,22.388-9.807,29.115-19.791c6.314-9.372,7.382-19.375,8.295-30.3
			c0.105-1.254,0.274-2.502,0.469-3.745c0.111-0.712,0.246-1.42,0.384-2.128c0.119-0.612,0.949-3.949,0.229-1.207
			c0.537-2.046,1.227-4.047,2-6.015c0.373-0.949,0.796-1.876,1.228-2.8c0.251-0.539,2.243-4.104,0.954-1.973
			c1.318-2.18,2.896-4.188,4.604-6.073c-1.789,1.973,0.854-0.75,1.256-1.096c0.534-0.461,4.371-3.084,2.064-1.66
			c1.133-0.7,2.33-1.289,3.531-1.861c0.63-0.29,1.268-0.562,1.913-0.817c-2.631,1.082,0.79-0.142,1.136-0.243
			c0.737-0.203,1.479-0.387,2.227-0.551c3.694-0.864-2.315,0.225,1.621-0.284c2.198-0.284,4.419-0.349,6.632-0.373
			c5.375-0.06,12.108-4.078,12.631-9.892C350.968,7.312,344.471,4.905,339.451,4.961L339.451,4.961z"/>
	</g>
</g>
</svg>
