<?xml version="1.0" encoding="utf-8"?>
<!-- Generator: Adobe Illustrator 13.0.2, SVG Export Plug-In  -->
<!DOCTYPE svg PUBLIC "-//W3C//DTD SVG 1.1//EN" "http://www.w3.org/Graphics/SVG/1.1/DTD/svg11.dtd" [
	<!ENTITY ns_flows "http://ns.adobe.com/Flows/1.0/">
]>
<svg version="1.1"
	 xmlns="http://www.w3.org/2000/svg" xmlns:xlink="http://www.w3.org/1999/xlink" xmlns:a="http://ns.adobe.com/AdobeSVGViewerExtensions/3.0/"
	 x="0px" y="0px" width="1024px" height="1024px" viewBox="38.746 -667.849 1024 1024"
	 enable-background="new 38.746 -667.849 1024 1024" xml:space="preserve">
<defs>
</defs>
<g>
	<g>
		<path fill="none" d="M38.746,14.151h128.25c42.75,0,42.75,42.75,42.75,42.75v256.5c0,0,0,42.75-42.75,42.75H38.746"/>
		<path d="M13.256,28.302c22.537,0,45.075,0,67.612,0c14.792,0,29.584,0,44.376,0c4.375,0,8.749,0,13.124,0c0.925,0,1.85,0,2.774,0
			c0.122,0,0.243,0,0.364,0c5.215,0-6.171-0.495-1.172-0.096c1.652,0.133,3.29,0.4,4.919,0.693c0.768,0.147,1.53,0.314,2.289,0.502
			c-4.985-1.162-1.391-0.367-0.264,0.025c1.941,0.676,3.793,1.58,5.595,2.563c3.25,1.772,6.12,4.172,8.653,6.854
			c-0.689-0.732-1.379-1.465-2.068-2.197c9.923,11.024,11.651,24.682,11.651,38.716c0,23.302,0,46.603,0,69.904
			c0,56.401,0,112.803,0,169.204c0,6.674,0.116,12.968-1.383,19.542c0.23-0.979,0.461-1.958,0.692-2.938
			c-1.467,6.116-3.886,11.903-7.549,17.037c-0.934,1.31-5.216,5.815-0.667,1.229c-1.287,1.297-2.717,2.44-4.186,3.522
			c-3.364,2.479,5.951-3.646,2.275-1.509c-4.159,2.419,8.271-3.805,3.787-1.818c2.334-0.891,4.668-1.78,7.002-2.671
			c-3.677,1.266-1.333,0.567,7.032-2.096c-3.781,0.977-1.457,0.438,6.972-1.617c7.511-1.103,9.459-1.415,5.845-0.939
			c-4.958,0.638,9.346-0.212,1.517-0.212c-0.201,0-0.401,0-0.602,0c-1.194,0-2.388,0-3.582,0c-4.72,0-9.439,0-14.159,0
			c-30.251,0-60.502,0-90.754,0c-6.371,0-12.742,0-19.113,0c-18.196,0-38.781,5.836-54.641,14.641
			c-2.315,1.285-10.64,5.559-9.487,9.862c1.161,4.334,10.485,3.798,13.147,3.798c22.537,0,45.075,0,67.612,0
			c14.792,0,29.584,0,44.376,0c10.825,0,21.624,0.269,32.397-1.118c36.839-4.738,90.743-20.686,90.743-66.387
			c0-16.058,0-32.115,0-48.173c0-60.252,0-120.504,0-180.757c0-11.018,1.091-22.649-0.604-33.606
			c-2.107-13.615-9.687-26.347-21.769-33.373c-12.278-7.14-27.07-6.887-40.839-6.887c-40.312,0-80.624,0-120.936,0
			c-18.196,0-38.781,5.836-54.641,14.641C7.28,15.927-1.044,20.2,0.109,24.504C1.27,28.838,10.594,28.302,13.256,28.302
			L13.256,28.302z"/>
	</g>
</g>
</svg>
