<?xml version="1.0" encoding="utf-8"?>
<!-- Generator: Adobe Illustrator 13.0.2, SVG Export Plug-In  -->
<!DOCTYPE svg PUBLIC "-//W3C//DTD SVG 1.1//EN" "http://www.w3.org/Graphics/SVG/1.1/DTD/svg11.dtd" [
	<!ENTITY ns_flows "http://ns.adobe.com/Flows/1.0/">
]>
<svg version="1.1"
	 xmlns="http://www.w3.org/2000/svg" xmlns:xlink="http://www.w3.org/1999/xlink" xmlns:a="http://ns.adobe.com/AdobeSVGViewerExtensions/3.0/"
	 x="0px" y="0px" width="1024px" height="1024px" viewBox="38.637 14.169 1024 1024"
	 enable-background="new 38.637 14.169 1024 1024" xml:space="preserve">
<defs>
</defs>
<g>
	<g>
		<path fill="none" d="M252.387,99.669h-42.75c0,0-85.5,0-128.25,0s-42.75,42.75-42.75,42.75v85.375c0,0,0,42.875,42.75,42.875
			s85.5,0,85.5,0s42.75,0,42.75-42.75"/>
		<path d="M226.897,85.519c-19.69,0-39.38,0-59.07,0c-19.452,0-38.903,0-58.354,0c-10.771,0-21.542,0-32.313,0
			c-11.46,0-23.083-0.478-34.494,0.709C24.539,88.113,9.429,98.706,3.113,115.929C0.97,121.772,0,127.944,0,134.146
			c0,26.413,0,52.826,0,79.239c0,6.601,0.848,12.717,2.551,19.172c6.188,23.441,28.975,34.871,50.24,42.3
			c12.992,4.539,26.786,7.71,40.469,9.137c9.767,1.019,19.524,0.826,29.322,0.826c14.604,0,29.208,0,43.813,0
			c12.056,0,24.439,0.718,36.466-0.615c9.706-1.075,19.894-4.214,27.89-9.918c11.926-8.508,17.365-21.693,17.523-36.015
			c0.053-4.817-6.071-7.966-9.487-9.862c-8.272-4.592-17.458-7.71-26.562-10.149c-9.104-2.439-18.619-4.333-28.079-4.491
			c-1.5-0.025-13.101-0.415-13.147,3.798c-0.119,10.769-2.88,21.14-10.257,29.229c0.689-0.733,1.379-1.465,2.068-2.198
			c-4.229,4.409-9.32,7.623-14.974,9.89c-1.119,0.449-2.263,0.832-3.411,1.199c-2.883,0.922,4.764-1.277,1.909-0.521
			c-0.614,0.162-1.233,0.303-1.852,0.444c-1.89,0.431-3.809,0.738-5.733,0.967c-0.626,0.075-1.255,0.13-1.884,0.181
			c-3.889,0.31,7.882-0.341,4.904-0.245c-0.477,0.015-0.955,0.007-1.432,0.007c-6.891,0-13.782,0-20.673,0
			c-12.191,0-24.382,0-36.572,0c-7.094,0-14.188,0-21.281,0c-2.984,0-15.599-0.66-3.084,0.343c-3.033-0.243-8.558-1.56,4.571,0.805
			c2.691,0.634,5.383,1.269,8.075,1.903c-3.814-1.013-1.497-0.293,6.952,2.162c-3.377-1.19-1.384-0.42,5.98,2.312
			c-4.535-1.868,8.009,4.123,3.787,1.813c-3.731-2.041,5.702,3.896,2.275,1.503c-0.76-0.531-1.476-1.121-2.191-1.71
			c-0.46-0.39-0.911-0.791-1.351-1.204c-2.566-2.348,3.116,3.366,0.825,0.813c-1.136-1.265-2.138-2.645-3.092-4.049
			c-3.21-4.722-5.271-10.185-6.593-15.712c0.23,0.979,0.461,1.958,0.692,2.938c-1.253-5.511-1.383-10.748-1.383-16.339
			c0-14.355,0-28.711,0-43.067c0-11.771,0-23.542,0-35.313c0-6.792,1.585-13.614,4.203-19.857c1.801-4.295,4.336-8.238,7.448-11.696
			c-0.689,0.733-1.379,1.465-2.068,2.198c2.564-2.714,5.426-4.977,8.653-6.854c1.777-1.033,3.677-1.836,5.595-2.563
			c1.068-0.405,4.767-1.337-0.264-0.025c1.542-0.402,3.118-0.661,4.691-0.902c1.266-0.195,2.544-0.295,3.82-0.397
			c-7.592,0.607-3.328,0.2-1.473,0.2c2.105,0,4.21,0,6.314,0c5.058,0,10.115,0,15.172,0c21.458,0,42.917,0,64.376,0
			c23.652,0,47.303,0,70.955,0c4.394,0,8.787,0,13.181,0c2.662,0,11.986,0.536,13.147-3.798c1.153-4.304-7.171-8.577-9.487-9.862
			C265.678,91.355,245.093,85.519,226.897,85.519L226.897,85.519z"/>
	</g>
</g>
<g>
	<g>
		<path fill="none" d="M252.387,99.669c0,0,42.75,0.125,42.75,42.75s-0.25,171-0.25,171s-1,42.75,43,42.75"/>
		<path d="M251.552,108.878c1.847,0.012-4.112-0.29-0.636-0.003c2.052,0.169,4.088,0.49,6.107,0.888
			c0.819,0.162,4.947,1.257,1.603,0.321c1.366,0.382,2.708,0.844,4.038,1.334c1.431,0.527,2.823,1.151,4.197,1.811
			c0.372,0.178,2.688,1.469,0.53,0.235c0.954,0.545,1.869,1.155,2.776,1.774c3.635,2.482,4.29,3.256,6.506,6.102
			c2.918,3.746,3.896,6.189,5.15,10.517c2.123,7.324,1.518,15.1,1.513,22.639c-0.023,36.946-0.091,73.893-0.156,110.839
			c-0.029,16.678-0.654,33.475-0.067,50.146c0.354,10.063,3.019,19.78,8.319,28.395c9.724,15.803,28.032,21.318,45.62,21.503
			c5.367,0.056,12.116-4.161,12.631-9.892c0.563-6.253-5.953-8.472-10.961-8.525c-3.385-0.036-8.575-0.858-11.254-1.75
			c-1.949-0.648-3.815-1.518-5.633-2.466c1.777,0.927-0.854-0.633-0.979-0.717c-1.013-0.676-1.96-1.443-2.896-2.22
			c-0.678-0.564-1.311-1.178-1.943-1.792c1.471,1.427-0.43-0.583-0.58-0.76c-1.064-1.253-2-2.612-2.888-3.993
			c-0.4-0.621-2.473-4.55-1.561-2.608c-0.726-1.545-1.323-3.147-1.872-4.762c-0.823-2.418-1.411-4.914-1.867-7.424
			c-0.185-1.02-0.326-2.046-0.452-3.075c-0.368-3.01,0.081,1.856-0.064-0.708c-0.068-1.21-0.048-2.422-0.045-3.633
			c0.056-29.121,0.107-58.242,0.153-87.363c0.026-16.848,0.051-33.695,0.07-50.542c0.016-14.099,1.251-28.97-0.902-42.937
			c-3.908-25.346-28.794-39.593-52.786-39.751c-5.369-0.036-12.114,4.146-12.631,9.892
			C240.03,106.592,246.542,108.845,251.552,108.878L251.552,108.878z"/>
	</g>
</g>
<g>
	<g>
		<path fill="none" d="M380.637,14.169v299.25c0,0,0.144,42.376-42.356,42.625"/>
		<path d="M342,3.817c0,41.743,0,83.486,0,125.229c0,54.702,0,109.404,0,164.107c0,14.865-1.182,29.352-12.077,40.958
			c0.689-0.732,1.378-1.465,2.068-2.198c-3.115,3.16-6.649,5.656-10.646,7.581c-0.94,0.453-1.917,0.827-2.89,1.201
			c-4.683,1.799,2.386-0.46-0.83,0.306c-1.572,0.375-3.174,0.605-4.773,0.82c-6.601,0.886,4.538-0.005-0.061,0.073
			c-2.675,0.045-11.978-0.565-13.147,3.798c-1.153,4.304,7.171,8.577,9.487,9.862c8.272,4.592,17.458,7.71,26.562,10.149
			c8.92,2.39,18.763,4.648,28.079,4.491c12.289-0.207,25.305-1.532,35.822-8.498c6.435-4.262,11.651-10.824,14.945-17.756
			c2.936-6.178,4.736-13.452,4.736-20.328c0-14,0-28.001,0-42.001c0-61.788,0-123.575,0-185.363c0-23.909,0-47.818,0-71.727
			c0-4.836-6.021-7.938-9.487-9.862c-8.272-4.592-17.458-7.71-26.562-10.149c-9.104-2.439-18.619-4.332-28.079-4.491
			C353.695-0.005,342-0.388,342,3.817L342,3.817z"/>
	</g>
</g>
</svg>
