<?xml version="1.0" encoding="utf-8"?>
<!-- Generator: Adobe Illustrator 13.0.2, SVG Export Plug-In  -->
<!DOCTYPE svg PUBLIC "-//W3C//DTD SVG 1.1//EN" "http://www.w3.org/Graphics/SVG/1.1/DTD/svg11.dtd" [
	<!ENTITY ns_flows "http://ns.adobe.com/Flows/1.0/">
]>
<svg version="1.1"
	 xmlns="http://www.w3.org/2000/svg" xmlns:xlink="http://www.w3.org/1999/xlink" xmlns:a="http://ns.adobe.com/AdobeSVGViewerExtensions/3.0/"
	 x="0px" y="0px" width="1024px" height="1024px" viewBox="124.246 -512.1 1024 1024"
	 enable-background="new 124.246 -512.1 1024 1024" xml:space="preserve">
<defs>
</defs>
<g>
	<g>
		<path fill="none" d="M380.621,56.9c0,0,0-42.75-42.75-42.75h-128.25"/>
		<path d="M419.258,46.548c-0.031-8.478-2.783-17.313-7.091-24.536C401.707,4.475,382.182,0,362.998,0c-24.4,0-48.8,0-73.2,0
			c-18.229,0-36.458,0-54.687,0c-18.196,0-38.781,5.836-54.641,14.641c-2.315,1.285-10.64,5.559-9.487,9.862
			c1.161,4.334,10.485,3.798,13.147,3.798c22.537,0,45.075,0,67.612,0c14.792,0,29.584,0,44.376,0c4.375,0,8.749,0,13.124,0
			c0.925,0,1.85,0,2.774,0c0.122,0,0.243,0,0.364,0c5.215,0-6.171-0.495-1.172-0.096c1.652,0.133,3.29,0.4,4.919,0.693
			c0.768,0.147,1.53,0.314,2.289,0.502c-4.985-1.162-1.391-0.367-0.264,0.025c1.941,0.676,3.793,1.58,5.595,2.563
			c3.25,1.772,6.12,4.172,8.653,6.854c-0.689-0.732-1.379-1.465-2.068-2.197c7.289,8.098,11.611,19.67,11.651,30.608
			c0.016,4.208,11.679,3.823,13.147,3.798c9.459-0.159,18.975-2.052,28.079-4.491c9.104-2.439,18.29-5.558,26.562-10.149
			C413.221,54.495,419.276,51.378,419.258,46.548L419.258,46.548z"/>
	</g>
</g>
<g>
	<g>
		<path fill="none" d="M209.621,14.15c-42.75,0-42.75,42.75-42.75,42.75l0.125,412.25c0,0,0,42.75-42.75,42.75"/>
		<path d="M210.457,4.942c-20.843,0.229-39.484,9.838-49.248,28.524c-3.72,7.12-6.136,16.049-6.134,24.146
			c0.003,10.139,0.006,20.277,0.009,30.416c0.017,56.396,0.034,112.791,0.051,169.188c0.018,58.203,0.035,116.407,0.053,174.611
			c0.003,12.397,0.007,24.796,0.011,37.194c0,0.663-0.007,1.32-0.042,1.983c-0.08,1.543-0.262,3.079-0.484,4.607
			c-0.16,1.1-0.368,2.19-0.591,3.278c-0.125,0.608-0.27,1.213-0.415,1.817c0.652-2.719-0.127,0.314-0.289,0.843
			c-0.879,2.881-2.064,5.657-3.458,8.324c-0.186,0.355-1.589,2.631-0.294,0.556c-0.44,0.706-0.924,1.385-1.408,2.063
			c-0.494,0.693-1.034,1.354-1.573,2.012c-0.324,0.396-2.944,3.031-1.033,1.198c-1.332,1.277-2.806,2.393-4.317,3.445
			c2.27-1.581-0.422,0.174-0.803,0.381c-0.895,0.488-1.828,0.9-2.758,1.313c-3.16,1.4,2.375-0.757-1.039,0.33
			c-1.087,0.346-2.199,0.604-3.309,0.862c-3.704,0.863,2.31-0.225-1.64,0.284c-1.749,0.225-3.513,0.298-5.273,0.357
			c-0.464,0.005-0.929,0.01-1.394,0.016c-5.376,0.059-12.109,4.077-12.632,9.892c-0.555,6.175,5.942,8.58,10.961,8.524
			c20.843-0.229,39.484-9.838,49.248-28.524c3.72-7.12,6.136-16.049,6.134-24.146c-0.003-10.139-0.006-20.277-0.009-30.416
			c-0.017-56.396-0.034-112.791-0.051-169.188c-0.018-58.203-0.035-116.407-0.053-174.611c-0.003-12.397-0.007-24.796-0.011-37.194
			c0-0.663,0.007-1.32,0.042-1.983c0.08-1.543,0.262-3.079,0.484-4.607c0.16-1.1,0.368-2.19,0.591-3.278
			c0.125-0.608,0.27-1.213,0.415-1.817c-0.652,2.719,0.127-0.314,0.289-0.843c0.879-2.881,2.064-5.657,3.458-8.324
			c0.186-0.355,1.589-2.631,0.294-0.556c0.44-0.706,0.924-1.385,1.408-2.063c0.494-0.693,1.034-1.354,1.573-2.012
			c0.324-0.396,2.944-3.031,1.033-1.198c1.332-1.277,2.806-2.393,4.317-3.445c-2.27,1.581,0.422-0.174,0.803-0.381
			c0.895-0.488,1.828-0.9,2.758-1.313c3.16-1.4-2.375,0.757,1.039-0.33c1.087-0.346,2.199-0.604,3.309-0.862
			c3.704-0.863-2.31,0.225,1.64-0.284c1.749-0.225,3.513-0.298,5.273-0.357c0.464-0.005,0.929-0.01,1.394-0.016
			c5.376-0.059,12.109-4.077,12.632-9.892C221.973,7.293,215.476,4.887,210.457,4.942L210.457,4.942z"/>
	</g>
</g>
<g>
	<g>
		<path fill="none" d="M38.746,169.9c0,0,42.75,0,42.75,42.75s0,256.5,0,256.5s0,42.75,42.75,42.75"/>
		<path d="M13.256,184.051c0.24,0.001,0.48,0.011,0.72,0.02c-11.345-0.438-6.405-0.392-3.785-0.123
			c2.701,0.277,5.372,0.795,8.003,1.458c2.863,0.722-4.805-1.406-1.909-0.521c0.917,0.279,1.819,0.603,2.718,0.933
			c1.927,0.706,3.789,1.575,5.606,2.524c3.758,1.964,7.13,4.576,10.061,7.631c-0.689-0.732-1.378-1.466-2.068-2.198
			c10.232,11.221,10.257,25.443,10.257,39.708c0,12.94,0,25.882,0,38.822c0,35.479,0,70.957,0,106.436c0,28.887,0,57.773,0,86.66
			c0,13.66-0.264,26.307,7.091,38.64c10.443,17.51,29.688,21.801,48.806,22.012c9.343,0.104,19.124-2.092,28.079-4.491
			c9.104-2.439,18.29-5.558,26.562-10.149c2.315-1.285,10.64-5.559,9.487-9.862c-1.167-4.354-10.477-3.769-13.147-3.798
			c-5.218-0.058,6.175,0.495,1.172,0.096c-1.652-0.133-3.29-0.4-4.919-0.693c-0.768-0.147-1.53-0.314-2.289-0.502
			c2.681,0.789,3.109,0.899,1.286,0.331c-1.344-0.428-2.645-0.979-3.933-1.55c-4.312-1.91-8.113-4.81-11.337-8.223
			c0.689,0.732,1.379,1.465,2.068,2.197c-10.394-11.548-11.651-25.681-11.651-40.269c0-27.152,0-54.305,0-81.457
			c0-35.838,0-71.675,0-107.513c0-13.906,0-27.812,0-41.718c0-13.067,1.194-26.714-5.288-38.599
			c-9.795-17.958-31.491-24.031-50.609-24.102c-9.377-0.035-19.083,2.081-28.079,4.491c-9.104,2.439-18.29,5.558-26.562,10.149
			c-2.315,1.285-10.64,5.559-9.487,9.862C1.272,184.593,10.591,184.041,13.256,184.051L13.256,184.051z"/>
	</g>
</g>
</svg>
