<?xml version="1.0" encoding="utf-8"?>
<!-- Generator: Adobe Illustrator 13.0.2, SVG Export Plug-In  -->
<!DOCTYPE svg PUBLIC "-//W3C//DTD SVG 1.1//EN" "http://www.w3.org/Graphics/SVG/1.1/DTD/svg11.dtd" [
	<!ENTITY ns_flows "http://ns.adobe.com/Flows/1.0/">
]>
<svg version="1.1"
	 xmlns="http://www.w3.org/2000/svg" xmlns:xlink="http://www.w3.org/1999/xlink" xmlns:a="http://ns.adobe.com/AdobeSVGViewerExtensions/3.0/"
	 x="0px" y="0px" width="1024px" height="1024px" viewBox="38.572 14.169 1024 1024"
	 enable-background="new 38.572 14.169 1024 1024" xml:space="preserve">
<defs>
</defs>
<g>
	<g>
		<path fill="none" d="M380.572,14.169v470.375c0,0-0.25,42.376-42.75,42.625l-299.25-342c0,0,0-85.5,85.5-85.5s342,0,342,0"/>
		<path d="M341.935,3.817c0,30.619,0,61.238,0,91.857c0,63.341,0,126.683,0,190.024c0,53.289,0,106.578,0,159.868
			c0,20.181,2.994,42.709-11.762,59.035c0.689-0.732,1.379-1.465,2.068-2.198c-3.271,3.451-7.032,6.162-11.319,8.217
			c-0.944,0.452-1.924,0.826-2.9,1.201c-4.689,1.795,2.371-0.459-0.845,0.306c-1.574,0.375-3.179,0.605-4.781,0.82
			c-6.604,0.885,4.533-0.005-0.064,0.073c21.145,7.188,42.29,14.377,63.435,21.565c-20.704-23.661-41.408-47.323-62.111-70.984
			c-41.986-47.984-83.972-95.968-125.958-143.953c-33.081-37.806-66.162-75.613-99.242-113.419
			c-3.979-4.548-7.958-9.096-11.938-13.644c0.231,0.979,0.461,1.958,0.692,2.938c0.041-22.06,8.892-45.774,23.899-61.858
			c-0.689,0.733-1.379,1.465-2.068,2.198c5.395-5.643,11.57-10.326,18.449-14.017c3.675-1.972,7.551-3.545,11.494-4.889
			c1.046-0.357,2.106-0.671,3.166-0.985c-5.087,1.509-1.172,0.371-0.101,0.114c2.724-0.654,5.488-1.126,8.257-1.535
			c2.535-0.374,5.088-0.604,7.642-0.794c-8.826,0.654,0.202,0.063,2.285,0.063c3.105,0,6.21,0,9.315,0c6.939,0,13.878,0,20.818,0
			c36.185,0,72.369,0,108.554,0c64.129,0,128.258,0,192.387,0c3.419,0,6.837,0,10.256,0c2.662,0,11.986,0.536,13.147-3.798
			c1.153-4.304-7.171-8.577-9.487-9.862c-15.859-8.804-36.445-14.641-54.641-14.641c-49.243,0-98.485,0-147.728,0
			c-39.079,0-78.159,0-117.238,0c-16.6,0-33.199,0-49.798,0c-17.261,0-34.974-0.961-52.054,1.776
			c-18,2.884-35.158,10.178-47.861,23.466C16.055,121.062,9.094,133.019,4.8,146.602c-2.59,8.191-4.207,16.768-4.751,25.344
			c-0.195,3.076,0.134,5.3,2.156,7.61c25.661,29.327,51.322,58.654,76.983,87.981c42.566,48.647,85.132,97.294,127.698,145.941
			c29.284,33.467,58.567,66.934,87.851,100.4c1.708,1.952,3.416,3.904,5.124,5.855c4.389,5.016,10.172,7.939,16.227,10.55
			c14.877,6.417,32.284,11.287,48.612,11.012c8.664-0.146,16.141-1.253,24.398-3.679c8.455-2.483,15.192-8.104,20.566-14.938
			c7.55-9.602,9.547-21.472,9.547-33.272c0-41.711,0-83.422,0-125.133c0-64.809,0-129.618,0-194.426c0-45.133,0-90.266,0-135.399
			c0-3.309,0-6.618,0-9.928c0-4.836-6.021-7.938-9.487-9.862c-8.272-4.592-17.458-7.71-26.562-10.149
			c-9.104-2.439-18.619-4.332-28.079-4.491C353.63-0.005,341.935-0.388,341.935,3.817L341.935,3.817z"/>
	</g>
</g>
</svg>
