<?xml version="1.0" encoding="utf-8"?>
<!-- Generator: Adobe Illustrator 13.0.2, SVG Export Plug-In  -->
<!DOCTYPE svg PUBLIC "-//W3C//DTD SVG 1.1//EN" "http://www.w3.org/Graphics/SVG/1.1/DTD/svg11.dtd" [
	<!ENTITY ns_flows "http://ns.adobe.com/Flows/1.0/">
]>
<svg version="1.1"
	 xmlns="http://www.w3.org/2000/svg" xmlns:xlink="http://www.w3.org/1999/xlink" xmlns:a="http://ns.adobe.com/AdobeSVGViewerExtensions/3.0/"
	 x="0px" y="0px" width="1024px" height="1024px" viewBox="38.763 -667.595 1024 1024"
	 enable-background="new 38.763 -667.595 1024 1024" xml:space="preserve">
<defs>
</defs>
<g>
	<g>
		<path fill="none" d="M38.763,14.405h128.25c42.75,0,42.75,42.75,42.75,42.75v85.5c0,0,0,42.75-42.75,42.75h-42.75
			c0,0-85.5,0-85.5,85.5v85.5h171"/>
		<path d="M13.273,28.556c22.537,0,45.075,0,67.612,0c14.792,0,29.584,0,44.376,0c4.375,0,8.749,0,13.124,0c0.925,0,1.85,0,2.774,0
			c0.122,0,0.243,0,0.364,0c5.215,0-6.171-0.495-1.172-0.096c1.652,0.133,3.29,0.4,4.919,0.693c0.768,0.147,1.53,0.314,2.289,0.502
			c-4.985-1.162-1.391-0.367-0.264,0.025c1.941,0.676,3.793,1.58,5.595,2.563c3.25,1.772,6.12,4.172,8.653,6.854
			c-0.689-0.732-1.379-1.465-2.068-2.197c13.128,14.586,11.651,32.953,11.651,51.029c0,15.73,0,31.462,0,47.192
			c0,6.605,0.379,13.324-0.098,19.921c-0.201,2.771-0.669,5.518-1.286,8.224c0.23-0.979,0.461-1.958,0.692-2.938
			c-1.467,6.116-3.886,11.903-7.549,17.037c-0.934,1.31-5.216,5.815-0.667,1.229c-1.287,1.297-2.717,2.44-4.186,3.522
			c-3.364,2.479,5.951-3.646,2.275-1.509c-4.159,2.419,8.271-3.805,3.787-1.818c2.334-0.891,4.668-1.78,7.002-2.671
			c-3.677,1.266-1.333,0.567,7.032-2.096c-3.781,0.977-1.457,0.438,6.972-1.617c7.511-1.103,9.459-1.415,5.845-0.939
			c-4.893,0.629,9.359-0.212,1.439-0.212c-0.555,0-1.11,0-1.665,0c-2.907,0-5.813,0-8.72,0c-7.808,0-15.616,0-23.424,0
			c-27.273,0-54.343,4.745-80.042,14.063c-21.173,7.677-40.783,17.626-56.585,33.894C9.192,232.344,3.063,250.035,0.872,267.925
			c-1.325,10.82-0.746,22.017-0.746,32.897c0,15.738,0,31.478,0,47.217c0,6.239,0,12.479,0,18.719
			c0,4.221,11.692,3.798,13.147,3.798c49.832,0,99.664,0,149.496,0c7.168,0,14.336,0,21.504,0c18.196,0,38.781-5.836,54.641-14.641
			c2.315-1.285,10.64-5.559,9.487-9.862c-1.161-4.334-10.485-3.798-13.147-3.798c-49.832,0-99.664,0-149.496,0
			c-7.168,0-14.336,0-21.504,0c4.382,1.266,8.765,2.531,13.147,3.798c0-17.376,0-34.751,0-52.127
			c0-18.881-1.593-38.918,2.601-57.452c-0.23,0.979-0.461,1.958-0.692,2.938c2.054-8.559,5.287-16.686,9.975-24.148
			c1.981-3.154,4.272-6.104,6.727-8.902c0.592-0.675,1.21-1.327,1.827-1.979c-4.018,4.242-1.709,1.763-0.765,0.859
			c1.46-1.396,3.003-2.704,4.573-3.975c1.314-1.063,2.68-2.06,4.061-3.034c4.424-3.12-6.396,3.898-0.666,0.443
			c1.378-0.831,2.791-1.602,4.214-2.354c2.333-1.231,6.335-3.093-4.597,2.196c0.928-0.449,1.87-0.87,2.813-1.288
			c0.695-0.308,1.397-0.599,2.1-0.891c2.882-1.194,7.388-2.792-6.192,2.357c1.353-0.513,2.723-0.981,4.096-1.437
			c6.241-2.066-12.86,3.754-5.55,1.698c0.638-0.179,1.279-0.347,1.921-0.515c3.534-0.924,9.151-2.137-7.264,1.654
			c2.254-0.521,4.528-0.954,6.81-1.335c-15.405,2.568-9.491,1.451-6.02,0.985c1.008-0.135,2.018-0.25,3.029-0.355
			c0.732-0.077,1.466-0.142,2.2-0.201c3.377-0.275-10.969,0.718-6.171,0.446c0.717-0.041,1.436-0.069,2.153-0.081
			c11.091-0.173,22.197-0.002,33.289-0.002c33.082,0,66.72-6.633,94.722-25.026c12.754-8.379,19.226-22.316,21.353-36.939
			c0.815-5.604,0.454-11.372,0.454-17.009c0-15.381,0-30.762,0-46.142c0-17.871,2.413-36.93-7.525-52.869
			C224.979-3.924,191.633,0.255,165.552,0.255c-33.766,0-67.532,0-101.298,0c-18.196,0-38.781,5.836-54.641,14.641
			c-2.315,1.285-10.64,5.559-9.487,9.862C1.287,29.092,10.611,28.556,13.273,28.556L13.273,28.556z"/>
	</g>
</g>
</svg>
