<?xml version="1.0" encoding="utf-8"?>
<!-- Generator: Adobe Illustrator 13.0.2, SVG Export Plug-In  -->
<!DOCTYPE svg PUBLIC "-//W3C//DTD SVG 1.1//EN" "http://www.w3.org/Graphics/SVG/1.1/DTD/svg11.dtd" [
	<!ENTITY ns_flows "http://ns.adobe.com/Flows/1.0/">
]>
<svg version="1.1"
	 xmlns="http://www.w3.org/2000/svg" xmlns:xlink="http://www.w3.org/1999/xlink" xmlns:a="http://ns.adobe.com/AdobeSVGViewerExtensions/3.0/"
	 x="0px" y="0px" width="1024px" height="1024px" viewBox="38.746 -667.691 1024 1024"
	 enable-background="new 38.746 -667.691 1024 1024" xml:space="preserve">
<defs>
</defs>
<g>
	<g>
		<path fill="none" d="M38.746,14.309h128.25c42.75,0,42.75,42.75,42.75,42.75v256.5c0,0,0,42.75-42.75,42.75h-85.5
			c0,0-42.75,0-42.75-42.75v-85.5c0,0-0.125-42.75,42.75-42.75c85.375,0,128.125,0,128.125,0"/>
		<path d="M13.256,28.459c22.537,0,45.075,0,67.612,0c14.792,0,29.584,0,44.376,0c4.375,0,8.749,0,13.124,0c0.925,0,1.85,0,2.774,0
			c0.122,0,0.243,0,0.364,0c5.215,0-6.171-0.495-1.172-0.096c1.652,0.133,3.29,0.4,4.919,0.693c0.768,0.147,1.53,0.314,2.289,0.502
			c-4.985-1.162-1.391-0.367-0.264,0.025c1.941,0.676,3.793,1.58,5.595,2.563c3.25,1.772,6.12,4.172,8.653,6.854
			c-0.689-0.732-1.379-1.465-2.068-2.197c9.923,11.024,11.651,24.682,11.651,38.716c0,23.302,0,46.603,0,69.904
			c0,56.401,0,112.803,0,169.204c0,6.674,0.116,12.968-1.383,19.542c0.23-0.979,0.461-1.958,0.692-2.938
			c-1.467,6.116-3.886,11.903-7.549,17.037c-0.934,1.31-5.216,5.815-0.667,1.229c-1.287,1.297-2.717,2.44-4.186,3.522
			c-3.364,2.479,5.951-3.646,2.275-1.509c-4.159,2.419,8.271-3.805,3.787-1.818c2.334-0.891,4.668-1.78,7.002-2.671
			c-3.677,1.266-1.333,0.567,7.032-2.096c-3.781,0.977-1.457,0.438,6.972-1.617c7.511-1.103,9.459-1.415,5.845-0.939
			c-4.944,0.636,9.353-0.212,1.497-0.212c-0.295,0-0.59,0-0.884,0c-1.705,0-3.41,0-5.114,0c-6.268,0-12.535,0-18.802,0
			c-15.572,0-31.144,0-46.715,0c-4.326,0-8.651,0-12.977,0c-0.396,0-0.791,0.004-1.186-0.004c-3.195-0.064,8.44,0.483,5.083,0.265
			c-0.88-0.058-1.757-0.151-2.633-0.256c-1.78-0.212-3.544-0.535-5.295-0.914c-1.549-0.336-5.807-1.623,0.721,0.279
			c-1.38-0.402-2.733-0.887-4.074-1.401c-5.655-2.169-10.783-5.52-14.974-9.89c0.689,0.732,1.378,1.466,2.068,2.198
			c-8.525-9.349-10.257-21.113-10.257-33.293c0-12.729,0-25.46,0-38.189c0-12.906,0-25.812,0-38.718
			c0-5.04,0.236-9.821,1.357-14.787c-0.23,0.979-0.461,1.958-0.692,2.938c1.259-5.299,3.233-10.343,6.116-14.974
			c0.739-1.188,1.575-2.311,2.435-3.411c0.532-0.682,1.11-1.324,1.688-1.967c-3.831,4.259-1.772,1.801-0.743,0.861
			c1.829-1.667,7.896-5.326-0.24-0.298c2.181-1.348,6.564-3.221-3.88,1.744c4.828-2.295-10.181,3.688-5.029,1.896
			c-8.445,2.453-10.76,3.174-6.945,2.165c-2.69,0.635-5.38,1.27-8.07,1.904c-7.506,1.102-9.451,1.415-5.835,0.939
			c5.42-0.695-8.586,0.416-2.937,0.228c1.776-0.06,3.561-0.016,5.338-0.016c7.45,0,14.9,0,22.35,0c12.216,0,24.433,0,36.649,0
			c21.729,0,43.457,0,65.186,0c18.196,0,38.781-5.836,54.641-14.641c2.315-1.285,10.64-5.559,9.487-9.862
			c-1.161-4.334-10.485-3.798-13.147-3.798c-25.67,0-51.34,0-77.01,0c-14.432,0-28.864,0-43.296,0
			c-25.599,0-50.167,4.806-73.907,14.535c-12.158,4.983-23.973,12.317-31.705,23.168c-4.104,5.759-6.188,12.477-7.727,19.292
			c-1.242,5.5-1.358,10.738-1.358,16.317c0,14.377,0,28.754,0,43.131c0,11.788,0,23.576,0,35.364
			c0,15.998,6.427,30.163,20.283,38.803c18.167,11.326,41.922,8.69,62.318,8.69c38.428,0,78.219,3.214,114.9-10.69
			c21.353-8.094,42.596-19.134,48.549-42.75c1.303-5.168,2.224-10.304,2.224-15.625c0-18.852,0-37.703,0-56.555
			c0-59.368,0-118.735,0-178.104c0-11.195,0.94-22.592-2.23-33.474c-1.847-6.34-4.999-12.252-9.421-17.165
			c-7.33-8.143-15.573-11.951-26.209-14.431c-10.232-2.386-21.745-1.508-32.279-1.508c-38.002,0-76.004,0-114.007,0
			c-18.196,0-38.781,5.836-54.641,14.641c-2.315,1.285-10.64,5.559-9.487,9.862C1.27,28.995,10.594,28.459,13.256,28.459
			L13.256,28.459z"/>
	</g>
</g>
</svg>
