<?xml version="1.0" encoding="utf-8"?>
<!-- Generator: Adobe Illustrator 13.0.2, SVG Export Plug-In  -->
<!DOCTYPE svg PUBLIC "-//W3C//DTD SVG 1.1//EN" "http://www.w3.org/Graphics/SVG/1.1/DTD/svg11.dtd" [
	<!ENTITY ns_flows "http://ns.adobe.com/Flows/1.0/">
]>
<svg version="1.1"
	 xmlns="http://www.w3.org/2000/svg" xmlns:xlink="http://www.w3.org/1999/xlink" xmlns:a="http://ns.adobe.com/AdobeSVGViewerExtensions/3.0/"
	 x="0px" y="0px" width="1024px" height="1024px" viewBox="38.746 -667.695 1024 1024"
	 enable-background="new 38.746 -667.695 1024 1024" xml:space="preserve">
<defs>
</defs>
<g>
	<g>
		<path fill="none" d="M38.746,14.305h128.25c42.75,0,42.75,42.75,42.75,42.75v42.75c0,0,0,42.75-42.75,42.75h-85.5
			c0,0-42.75,0-42.75,42.75s42.75,42.75,42.75,42.75h85.5c0,0,42.75,0,42.75,42.75s0,42.75,0,42.75s-1,42.75-86,42.75s-85,0-85,0"/>
		<path d="M13.256,28.455c22.537,0,45.075,0,67.612,0c14.792,0,29.584,0,44.376,0c4.375,0,8.749,0,13.124,0c0.925,0,1.85,0,2.774,0
			c0.122,0,0.243,0,0.364,0c5.215,0-6.171-0.495-1.172-0.096c1.652,0.133,3.29,0.4,4.919,0.693c0.768,0.147,1.53,0.314,2.289,0.502
			c-4.985-1.162-1.391-0.367-0.264,0.025c1.941,0.676,3.793,1.58,5.595,2.563c3.25,1.772,6.12,4.172,8.653,6.854
			c-0.689-0.732-1.379-1.465-2.068-2.197c9.647,10.719,11.651,24.098,11.651,37.852c0,10.928,0,21.855,0,32.783
			c0,4.405-0.398,8.662-1.383,12.981c0.23-0.979,0.461-1.958,0.692-2.938c-1.467,6.116-3.886,11.903-7.549,17.037
			c-0.934,1.31-5.216,5.815-0.667,1.229c-1.287,1.297-2.717,2.44-4.186,3.522c-3.364,2.479,5.951-3.646,2.275-1.509
			c-4.159,2.419,8.271-3.805,3.787-1.818c2.334-0.891,4.668-1.78,7.002-2.671c-3.677,1.266-1.333,0.567,7.032-2.096
			c-3.781,0.977-1.457,0.438,6.972-1.617c7.511-1.103,9.459-1.415,5.845-0.939c-4.944,0.636,9.353-0.212,1.497-0.212
			c-0.295,0-0.59,0-0.884,0c-1.705,0-3.41,0-5.114,0c-6.268,0-12.535,0-18.802,0c-15.572,0-31.144,0-46.715,0
			c-8.641,0-17.026-0.068-25.647,0.817c-14.441,1.482-29.003,5.093-42.671,9.884c-12.88,4.515-26.919,10.235-37.01,19.767
			c-8.102,7.652-12.293,15.574-14.539,26.473c-2.034,9.874-1.103,20.845,2.985,30.074c10.261,23.167,36.876,26.786,59.163,26.786
			c23.71,0,47.42,0,71.13,0c2.35,0,4.699,0,7.048,0c0.286,0,0.571,0.009,0.856,0.02c-10.859-0.418-7.292-0.42-4.917-0.23
			c0.817,0.064,1.631,0.16,2.444,0.265c1.832,0.233,3.646,0.584,5.445,0.994c4.584,1.045-2.866-0.888-0.664-0.215
			c1.392,0.425,2.756,0.936,4.107,1.478c5.388,2.16,10.262,5.424,14.278,9.61c-0.689-0.732-1.378-1.466-2.068-2.198
			c7.377,8.09,10.139,18.461,10.257,29.229c0.133,12.022,0,24.053,0,36.076c0,3.438,0.235,6.775-0.535,10.137
			c0.231-0.979,0.461-1.958,0.692-2.938c-0.719,3.005-1.893,5.857-3.38,8.562c-0.989,1.8-2.159,3.493-3.414,5.115
			c-0.715,0.925-1.487,1.804-2.274,2.667c-1.921,2.105,3.599-3.597,1.525-1.559c-0.63,0.619-1.29,1.208-1.953,1.791
			c-1.066,0.939-2.19,1.811-3.329,2.659c-5.134,3.829,5.555-3.349,0.982-0.558c-1.458,0.891-2.967,1.692-4.488,2.469
			c1.93-0.938,3.859-1.877,5.789-2.814c-0.562,0.265-1.126,0.522-1.693,0.773c-0.584,0.259-1.171,0.51-1.762,0.754
			c-3.257,1.32-1.193,0.535,6.194-2.354c-0.971,0.369-1.954,0.705-2.936,1.041c-0.339,0.111-0.677,0.224-1.016,0.335
			c-3.711,1.174-1.371,0.463,7.019-2.132c-1.104,0.324-2.218,0.613-3.332,0.902c-5.822,1.513,11.634-2.609,5.644-1.309
			c-3.318,0.721-13.789,2.222,0.439,0.103c-3.354,0.499-6.73,0.845-10.108,1.141c-6.039,0.53,8.155-0.507,1.951-0.162
			c-1.649,0.092-3.3,0.146-4.951,0.199c-3.619,0.118-7.24,0.099-10.86,0.099c-7.532,0-15.063,0-22.595,0
			c-10.287,0-20.574,0-30.861,0c-8.466,0-16.931,0-25.397,0c-0.741,0-1.482,0-2.224,0c-18.196,0-38.781,5.836-54.641,14.641
			c-2.315,1.285-10.64,5.559-9.487,9.862c1.161,4.334,10.485,3.798,13.147,3.798c13.51,0,27.021,0,40.531,0
			c31.269,0,62.157,0.545,93.146-4.358c18.434-2.917,36.555-8.545,53.809-15.574c10.266-4.182,20.665-9.74,29.311-16.75
			c9.462-7.672,18.331-18.999,18.331-31.815c0-15.925,1.272-32.358-0.373-48.172c-1.726-16.587-13.491-29.975-28.99-35.407
			c-9.276-3.252-18.512-4.474-28.292-4.474c-12.505,0-25.01,0-37.515,0c-13.899,0-27.798,0-41.697,0c-1.748,0-3.502,0.048-5.25-0.02
			c11.954,0.461,4.922,0.301,1.998-0.099c-1.068-0.146-2.13-0.337-3.188-0.543c-1.699-0.331-7.254-1.949-0.456,0.031
			c-7.199-2.098-13.845-5.866-19.048-11.291c0.689,0.732,1.378,1.466,2.068,2.198c-10.17-11.152-12.158-27.522-8.822-41.831
			c-0.23,0.979-0.461,1.958-0.692,2.938c1.067-4.091,2.626-7.914,4.852-11.513c0.98-1.584,2.146-3.045,3.364-4.451
			c2.287-2.64-3.289,3.181-0.787,0.817c0.834-0.788,1.733-1.506,2.637-2.213c0.661-0.517,1.355-0.989,2.048-1.462
			c-7.411,5.054-4.554,2.913-2.729,1.871c5.219-2.978-9.087,4.006-2.494,1.242c-13.007,5.452-9.2,3.458-6.209,2.41
			c3.283-1.15,8.3-2.344-7.512,2.263c7.282-2.122-12.586,2.638-5.482,1.255c5.503-1.071-11.985,1.715-5.94,0.943
			c0.771-0.099,1.546-0.171,2.322-0.232c-13.686,1.09-9.083,0.486-6.129,0.486c3.203,0,6.405,0,9.607,0c25.257,0,50.514,0,75.771,0
			c22.748,0,47.438-5.616,67.968-15.392c11.952-5.691,23.36-12.354,30.752-23.692c5.195-7.968,8.081-18.601,8.217-28.108
			c0.169-11.851,0-23.716,0-35.567c0-6.912-0.164-13.283-2.039-20.031c-1.75-6.301-4.767-12.207-9.03-17.174
			c-7.117-8.292-15.201-12.086-25.661-14.814c-10.35-2.7-22.051-1.771-32.761-1.771c-30.051,0-60.103,0-90.154,0
			c-8.167,0-16.334,0-24.502,0c-18.196,0-38.781,5.836-54.641,14.641c-2.315,1.285-10.64,5.559-9.487,9.862
			C1.27,28.991,10.594,28.455,13.256,28.455L13.256,28.455z"/>
	</g>
</g>
</svg>
