<?xml version="1.0" encoding="utf-8"?>
<!-- Generator: Adobe Illustrator 13.0.2, SVG Export Plug-In  -->
<!DOCTYPE svg PUBLIC "-//W3C//DTD SVG 1.1//EN" "http://www.w3.org/Graphics/SVG/1.1/DTD/svg11.dtd" [
	<!ENTITY ns_flows "http://ns.adobe.com/Flows/1.0/">
]>
<svg version="1.1"
	 xmlns="http://www.w3.org/2000/svg" xmlns:xlink="http://www.w3.org/1999/xlink" xmlns:a="http://ns.adobe.com/AdobeSVGViewerExtensions/3.0/"
	 x="0px" y="0px" width="1024px" height="1024px" viewBox="38.931 -667.813 1024 1024"
	 enable-background="new 38.931 -667.813 1024 1024" xml:space="preserve">
<defs>
</defs>
<g>
	<g>
		<path fill="none" d="M38.931,14.188h128.25c42.75,0,42.75,42.75,42.75,42.75v42.75c0,0,0,42.75-42.75,42.75h-85.5
			c0,0-42.75,0-42.75,42.75s42.75,42.75,42.75,42.75h85.5c0,0,42.75,0,42.75,42.75v684c0,0,0,85.5,85.5,85.5"/>
		<path d="M13.44,28.338c23.418,0,46.837,0,70.256,0c14.797,0,29.595,0,44.393,0c3.949,0,7.897,0,11.846,0c0.581,0,1.163,0,1.744,0
			c2.231,0,3.182,0.128-2.375-0.193c1.305,0.075,2.602,0.243,3.897,0.414c1.219,0.161,2.424,0.413,3.625,0.666
			c3.25,0.687-3.802-1.346,0.952,0.354c5.25,1.877,9.909,5.1,13.751,9.105c-0.689-0.732-1.379-1.465-2.068-2.197
			c9.92,10.868,11.832,24.469,11.832,38.462c0,10.907,0,21.815,0,32.723c0,4.419-0.461,8.707-1.479,13.027
			c0.231-0.979,0.461-1.959,0.692-2.938c-1.564,6.308-4.146,12.25-8.07,17.457c-0.529,0.701-1.105,1.365-1.682,2.028
			c-2.281,2.624,3.311-3.196,0.743-0.777c-1.768,1.665-7.876,5.595,0.214,0.441c-0.85,0.541-1.745,1.01-2.636,1.479
			c1.843-0.905,3.686-1.811,5.528-2.716c-3.267,1.366-1.287,0.61,5.939-2.269c2.674-0.808,5.348-1.616,8.021-2.425
			c-3.782,0.999-1.477,0.472,6.914-1.584c7.473-1.096,9.398-1.4,5.775-0.914c-3.139,0.319-1.728,0.232,4.234-0.26
			c-10.262,0.594-20.687,0.064-30.958,0.064c-27.029,0-54.32-1.619-81.092,2.646c-14.826,2.361-30.141,6.974-43.789,13.211
			c-11.794,5.391-23.047,11.873-31.015,22.362c-11.456,15.081-11.532,40.86-0.117,55.888c15.018,19.771,39.991,19.694,62.403,19.694
			c22.152,0,44.304,0,66.455,0c1.459,0,2.919-0.013,4.378,0.001c3.633,0.032-8.553-0.532-4.507-0.232
			c1.482,0.11,2.956,0.308,4.423,0.541c1.82,0.29,3.619,0.696,5.402,1.161c-6.624-1.727-1.966-0.53-0.438,0.001
			c1.206,0.42,2.384,0.911,3.553,1.422c4.967,2.17,9.43,5.33,13.143,9.271c-0.689-0.733-1.379-1.466-2.068-2.198
			c9.985,11.166,10.031,25.184,10.031,39.112c0,14.54,0,29.079,0,43.618c0,53.266,0,106.531,0,159.796c0,67.273,0,134.547,0,201.82
			c0,59.395,0,118.788,0,178.182c0,29.626,0,59.252,0,88.879c0,11.022,2.229,22.104,5.755,32.512
			c4.762,14.054,12.808,26.358,23.628,36.505c14.18,13.297,33.921,19.449,52.95,21.133c5.417,0.479,10.875,0.696,16.313,0.727
			c9.368,0.054,19.094-2.084,28.079-4.491c9.104-2.439,18.29-5.558,26.562-10.149c2.315-1.285,10.64-5.559,9.487-9.862
			c-1.164-4.344-10.481-3.783-13.147-3.798c-1.426-0.008-2.849-0.032-4.274-0.073c8.268,0.237,1.597,0.063-0.238-0.099
			c-2.975-0.264-5.931-0.706-8.87-1.23c-1.198-0.214-2.387-0.474-3.575-0.734c-1.117-0.245-6.47-1.769-1.152-0.22
			c-2.834-0.825-5.604-1.859-8.328-2.993c-9.035-3.762-17.143-9.48-23.918-16.517c0.689,0.733,1.379,1.466,2.068,2.198
			c-15.023-15.998-22.886-38.323-24.004-60.064c-0.267-5.196-0.063-10.439-0.063-15.638c0-40.168,0-80.335,0-120.503
			c0-63.806,0-127.612,0-191.419c0-65.558,0-131.115,0-196.673c0-45.42,0-90.841,0-136.261c0-8.319,0-16.638,0-24.957
			c0-13.899-4.794-25.648-15.342-34.818c-10.755-9.349-25.857-11.586-39.581-12.218c-22.714-1.047-45.698-0.031-68.435-0.031
			c-5.152,0-10.305,0-15.457,0c-0.855,0-1.71,0-2.565,0c-3.757,0,8.487,0.532,4.427,0.231c-1.854-0.138-3.698-0.405-5.527-0.733
			c-1.226-0.221-2.44-0.5-3.648-0.8c-2.89-0.716,4.787,1.401,1.86,0.518c-0.697-0.21-1.385-0.449-2.072-0.688
			c-6.333-2.202-12.095-5.81-16.696-10.693c0.689,0.733,1.379,1.466,2.068,2.198c-9.793-10.951-11.765-26.686-8.809-40.688
			c-0.23,0.979-0.461,1.959-0.692,2.938c1.016-4.249,2.548-8.228,4.794-11.98c0.983-1.643,2.164-3.158,3.399-4.615
			c2.293-2.704-3.267,3.147-0.746,0.73c0.849-0.814,1.766-1.555,2.688-2.283c0.674-0.532,1.383-1.019,2.091-1.504
			c-7.341,5.041-4.492,2.869-2.667,1.825c5.268-3.015-9.057,3.977-2.384,1.19c-12.987,5.423-9.14,3.435-6.15,2.396
			c4.757-1.654-12.234,3.628-7.459,2.255c7.349-2.114-12.557,2.616-5.407,1.258c5.525-1.049-11.972,1.699-5.925,0.959
			c0.414-0.05,0.828-0.091,1.243-0.131c2.736-0.267,6.375-0.408-6.882,0.479c0.547-0.036,1.095-0.061,1.643-0.061
			c3.601,0,7.202,0,10.803,0c15.793,0,31.585,0,47.378,0c10.415,0,20.947,0.459,31.352-0.143
			c13.166-0.761,26.294-2.711,38.965-6.471c12.285-3.646,25.099-7.623,36.008-14.572c8.984-5.723,17.025-12.432,21.867-22.115
			c3.705-7.409,5.858-16.396,5.858-24.718c0-13.363,0-26.728,0-40.092c0-7.395-1.527-14.681-4.493-21.469
			c-9.136-20.912-30.271-26.733-51.404-26.972c-7.461-0.084-14.928,0-22.389,0c-30.753,0-61.506,0-92.26,0
			c-4.534,0-9.067,0-13.601,0c-18.196,0-38.781,5.836-54.641,14.641c-2.315,1.285-10.64,5.559-9.487,9.862
			C1.455,28.874,10.779,28.338,13.44,28.338L13.44,28.338z"/>
	</g>
</g>
</svg>
