<?xml version="1.0" encoding="utf-8"?>
<!-- Generator: Adobe Illustrator 13.0.2, SVG Export Plug-In  -->
<!DOCTYPE svg PUBLIC "-//W3C//DTD SVG 1.1//EN" "http://www.w3.org/Graphics/SVG/1.1/DTD/svg11.dtd" [
	<!ENTITY ns_flows "http://ns.adobe.com/Flows/1.0/">
]>
<svg version="1.1"
	 xmlns="http://www.w3.org/2000/svg" xmlns:xlink="http://www.w3.org/1999/xlink" xmlns:a="http://ns.adobe.com/AdobeSVGViewerExtensions/3.0/"
	 x="0px" y="0px" width="1024px" height="1024px" viewBox="38.713 -667.828 1024 1024"
	 enable-background="new 38.713 -667.828 1024 1024" xml:space="preserve">
<defs>
</defs>
<g>
	<g>
		<path fill="none" d="M162.813,14.172c0,0-18.83,0-42.75,0c-12.122,0-25.551,0-38.5,0c-47,0-42.75,42.75-42.75,42.75v128.25v128.25
			c0,0-2.75,42.75,39.25,42.75s42,0,42,0h42.75"/>
		<path d="M188.303,0.021c-22.736,0-45.471,0-68.207,0c-9.007,0-17.894-0.01-26.879,0.801c-14.338,1.294-28.175,5.045-41.886,9.25
			c-15.325,4.7-30.66,12.253-41.372,24.418C-1.172,47.132,0.176,64.608,0.176,80.232c0,44.319,0,88.639,0,132.957
			c0,30.244,0,60.488,0,90.732c0,15.493-1.842,32.259,6.408,46.175c10.135,17.097,29.603,20.226,47.958,20.226
			c12.896,0,25.792,0,38.688,0c14.698,0,29.396,0,44.094,0c18.196,0,38.781-5.836,54.641-14.641
			c2.315-1.285,10.64-5.559,9.487-9.862c-1.161-4.334-10.485-3.798-13.147-3.798c-14.373,0-28.746,0-43.119,0
			c-7.75,0-15.5,0-23.249,0c-4.836,0-9.672,0-14.508,0c-1.292,0-2.583,0-3.875,0c-5.189,0,6.186,0.501,1.227,0.09
			c-2.01-0.166-3.997-0.527-5.966-0.951c-1.904-0.475-1.473-0.347,1.292,0.384c-1.008-0.307-1.988-0.697-2.965-1.09
			c-1.529-0.612-2.981-1.398-4.401-2.229c-2.599-1.518-4.893-3.506-6.951-5.688c0.689,0.732,1.379,1.465,2.068,2.197
			c-11.581-12.953-10.407-29.843-10.407-45.909c0-30.102,0-60.203,0-90.305c0-44.522,0-89.046,0-133.568
			c0-10.315-1.133-21.754,1.134-31.91c-0.231,0.979-0.461,1.958-0.692,2.938c1.558-6.552,4.463-12.578,9.061-17.542
			c-4.426,4.778-0.127,0.416,1.266-0.622c3.28-2.443-6.008,3.692-2.411,1.571c4.013-2.365-9.06,4.021-2.964,1.446
			c-2.334,0.901-4.668,1.804-7.002,2.705c3.688-1.224,1.348-0.515-7.021,2.129c-8.517,1.887-10.832,2.43-6.946,1.627
			c-7.488,1.108-9.423,1.416-5.803,0.923c5.452-0.729-8.564,0.438-2.87,0.159c2.19-0.106,4.391-0.055,6.583-0.055
			c25.846,0,51.693,0,77.539,0c18.196,0,38.781-5.836,54.641-14.641c2.315-1.285,10.64-5.559,9.487-9.862
			C200.289-0.515,190.965,0.021,188.303,0.021L188.303,0.021z"/>
	</g>
</g>
</svg>
