<?xml version="1.0" encoding="utf-8"?>
<!-- Generator: Adobe Illustrator 13.0.2, SVG Export Plug-In  -->
<!DOCTYPE svg PUBLIC "-//W3C//DTD SVG 1.1//EN" "http://www.w3.org/Graphics/SVG/1.1/DTD/svg11.dtd" [
	<!ENTITY ns_flows "http://ns.adobe.com/Flows/1.0/">
]>
<svg version="1.1"
	 xmlns="http://www.w3.org/2000/svg" xmlns:xlink="http://www.w3.org/1999/xlink" xmlns:a="http://ns.adobe.com/AdobeSVGViewerExtensions/3.0/"
	 x="0px" y="0px" width="1024px" height="1024px" viewBox="81.496 -667.586 1024 1024"
	 enable-background="new 81.496 -667.586 1024 1024" xml:space="preserve">
<defs>
</defs>
<g>
	<g>
		<path fill="none" d="M38.746,14.414c0,0,18.83,0,42.75,0c12.122,0,25.551,0,38.5,0c47,0,42.75,42.75,42.75,42.75v128.25v128.25
			c0,0,2.75,42.75-39.25,42.75s-42,0-42,0h-42.75"/>
		<path d="M13.256,28.564c19.024,0,38.049,0,57.074,0c6.822,0,13.644,0,20.465,0c1.947,0,11.635,0.496,2.758-0.119
			c2.513,0.174,5.003,0.575,7.47,1.078c0.754,0.163,1.504,0.344,2.249,0.542c-5.054-1.282-1.46-0.334-0.358,0.066
			c1.879,0.682,3.674,1.572,5.419,2.539c2.846,1.576,5.386,3.652,7.649,5.976c-0.689-0.732-1.378-1.466-2.068-2.198
			c11.356,12.261,10.194,28.036,10.194,43.402c0,29.93,0,59.859,0,89.79c0,44.591,0,89.183,0,133.773
			c0,11.174,1.114,23.294-1.383,34.296c0.23-0.979,0.461-1.958,0.692-2.938c-1.333,5.532-3.511,10.744-6.865,15.363
			c-0.899,1.238-4.568,5.003-0.089,0.504c-1.271,1.276-2.698,2.384-4.164,3.424c4.244-2.666,5.28-3.355,3.109-2.07
			c-4.118,2.405,8.307-3.805,3.842-1.861c2.34-0.899,4.68-1.799,7.02-2.698c8.493-2.478,10.841-3.193,7.044-2.145
			c2.71-0.632,5.419-1.264,8.129-1.895c-3.512,0.647-1.542,0.339,5.912-0.928c-3.124,0.322-1.668,0.233,4.365-0.266
			c-1.563,0.091-3.138,0.063-4.703,0.063c-3.511,0-7.022,0-10.534,0c-4.73,0-9.461,0-14.192,0c-4.421,0-8.841,0-13.262,0
			c-14.931,0-29.863,0-44.794,0c-18.196,0-38.781,5.836-54.641,14.641c-2.315,1.285-10.64,5.559-9.487,9.862
			c1.161,4.334,10.485,3.798,13.147,3.798c16.65,0,33.301,0,49.952,0c9.693,0,19.386,0,29.08,0c24.506,0,49.975-4.536,72.275-15.035
			c11.732-5.522,23.331-12.179,30.135-23.655c3.444-5.811,5.142-12.713,6.146-19.329c0.718-4.73,0.54-9.498,0.54-14.264
			c0-12.045,0-24.09,0-36.134c0-27.747,0-55.493,0-83.24c0-43.476,0-86.952,0-130.429c0-15.432-3.687-29.134-16.806-38.906
			c-6.861-5.111-15.97-7.378-24.3-8.492c-13.363-1.789-27.344-0.816-40.799-0.816c-18.414,0-36.828,0-55.242,0
			c-18.196,0-38.781,5.836-54.641,14.641c-2.315,1.285-10.64,5.559-9.487,9.862C1.27,29.101,10.594,28.564,13.256,28.564
			L13.256,28.564z"/>
	</g>
</g>
</svg>
