<?xml version="1.0" encoding="utf-8"?>
<!-- Generator: Adobe Illustrator 13.0.2, SVG Export Plug-In  -->
<!DOCTYPE svg PUBLIC "-//W3C//DTD SVG 1.1//EN" "http://www.w3.org/Graphics/SVG/1.1/DTD/svg11.dtd" [
	<!ENTITY ns_flows "http://ns.adobe.com/Flows/1.0/">
]>
<svg version="1.1"
	 xmlns="http://www.w3.org/2000/svg" xmlns:xlink="http://www.w3.org/1999/xlink" xmlns:a="http://ns.adobe.com/AdobeSVGViewerExtensions/3.0/"
	 x="0px" y="0px" width="1024px" height="1024px" viewBox="38.746 -582.33 1024 1024"
	 enable-background="new 38.746 -582.33 1024 1024" xml:space="preserve">
<defs>
</defs>
<g>
	<g>
		<path fill="none" d="M38.746,99.67h42.75c0,0,42.75,0,42.75-42.75s0-42.75,0-42.75"/>
		<path d="M13.256,113.82c12.323,0,24.647,0,36.971,0c15.622,0,30.872-2.346,45.999-6.35c22.912-6.066,53.964-16.642,63.241-41.115
			c4.432-11.69,3.417-24.399,3.417-36.64c0-7.231,0-14.464,0-21.695c0-1.401,0-2.803,0-4.203c0-4.205-11.695-3.822-13.147-3.798
			c-9.459,0.159-18.975,2.052-28.079,4.491c-9.104,2.439-18.29,5.558-26.562,10.149c-3.466,1.925-9.487,5.026-9.487,9.862
			c0,2.629,0,5.257,0,7.885c0,6.484,0,12.969,0,19.453c0,9.323,0.698,18.864-1.435,28.014c0.23-0.979,0.461-1.958,0.692-2.938
			c-1.471,5.639-3.915,10.766-7.622,15.277c-2.997,3.646,2.395-2.211,0.192-0.131c-0.834,0.788-1.733,1.506-2.637,2.213
			c-1.744,1.363-5.996,3.809,2.082-1.227c-0.462,0.281-0.929,0.554-1.401,0.817c-2.289,1.306-6.397,3.098,4.598-2.164
			c-2.953,1.413-8.52,3.388,5.476-1.979c-0.895,0.343-1.806,0.641-2.718,0.933c15.674-5.014,10.497-3.092,6.947-2.197
			c9.347-2.121,12.196-2.785,8.545-1.991c-0.566,0.122-1.135,0.228-1.705,0.332c-4.354,0.802,12.028-1.797,6.951-1.104
			c-0.694,0.095-1.391,0.168-2.088,0.233c-4.267,0.405,10.763-0.563,5.741-0.433C92.917,85.89,78.552,85.52,64.236,85.52
			c-18.196,0-38.781,5.836-54.641,14.641c-2.315,1.285-10.64,5.559-9.487,9.862C1.27,114.356,10.594,113.82,13.256,113.82
			L13.256,113.82z"/>
	</g>
</g>
</svg>
