<?xml version="1.0" encoding="utf-8"?>
<!-- Generator: Adobe Illustrator 13.0.2, SVG Export Plug-In  -->
<!DOCTYPE svg PUBLIC "-//W3C//DTD SVG 1.1//EN" "http://www.w3.org/Graphics/SVG/1.1/DTD/svg11.dtd" [
	<!ENTITY ns_flows "http://ns.adobe.com/Flows/1.0/">
]>
<svg version="1.1"
	 xmlns="http://www.w3.org/2000/svg" xmlns:xlink="http://www.w3.org/1999/xlink" xmlns:a="http://ns.adobe.com/AdobeSVGViewerExtensions/3.0/"
	 x="0px" y="0px" width="1024px" height="1024px" viewBox="124.246 -667.483 1024 1024"
	 enable-background="new 124.246 -667.483 1024 1024" xml:space="preserve">
<defs>
</defs>
<g>
	<g>
		<path fill="none" d="M209.746,14.517h213.75c42.75,0,42.75,42.75,42.75,42.75s0,42.75-42.75,42.75s-85.5,0-85.5,0
			s-42.75,0-42.75,42.75s0,171,0,171s0,42.75,42.75,42.75s85.5,0,85.5,0s42.75,0,42.75-42.75"/>
		<path d="M184.256,28.667c48.511,0,97.021,0,145.532,0c18.769,0,37.538,0,56.307,0c3.84,0,7.679,0,11.519,0
			c0.595,0,1.188,0.009,1.785,0.016c-8.416-0.093-0.928,0.046,1.167,0.368c0.786,0.131,1.567,0.281,2.345,0.452
			c4.027,0.83-3.938-1.272-0.156-0.067c5.858,1.865,11.067,5.322,15.271,9.772c-0.689-0.732-1.379-1.465-2.068-2.197
			c9.928,11.03,13.525,26.579,10.268,40.866c0.23-0.979,0.461-1.958,0.692-2.938c-1.467,6.116-3.886,11.903-7.549,17.037
			c-0.934,1.31-5.216,5.815-0.667,1.229c-1.287,1.297-2.717,2.44-4.186,3.522c-3.364,2.479,5.951-3.646,2.275-1.509
			c-4.159,2.419,8.271-3.805,3.787-1.818c2.334-0.891,4.668-1.78,7.002-2.671c-3.677,1.266-1.333,0.567,7.032-2.096
			c-3.781,0.977-1.457,0.438,6.972-1.617c7.511-1.103,9.459-1.415,5.845-0.939c-5.412,0.696,8.592-0.416,2.952-0.228
			c-1.777,0.06-3.562,0.016-5.339,0.016c-3.92,0-7.84,0-11.76,0c-8.096,0-16.192,0-24.288,0c-11.873,0-23.745,0-35.617,0
			c-12.772,0-25.312,0.605-37.863,3.468c-17.581,4.009-35.58,8.945-51.205,18.265c-9.12,5.439-17.736,12.268-22.652,21.902
			c-7.549,14.792-5.048,33.843-5.048,49.95c0,18.957,0,37.914,0,56.872c0,28.786,0,57.573,0,86.36
			c0,5.994,1.131,11.919,3.113,17.573c6.149,17.545,21.593,27.392,39.552,29.701c16.218,2.086,33.321,0.709,49.652,0.709
			c12.378,0,24.756,0,37.134,0c13.111,0,25.763-0.539,38.717-3.2c21.544-4.427,45.355-11.322,62.693-25.521
			c11.952-9.787,17.244-23.251,17.413-38.532c0.046-4.196-11.743-3.821-13.147-3.798c-9.459,0.159-18.975,2.052-28.079,4.491
			c-9.104,2.439-18.29,5.558-26.562,10.149c-3.517,1.952-9.433,5.008-9.487,9.862c-0.047,4.267-0.466,8.443-1.435,12.602
			c0.23-0.979,0.461-1.958,0.692-2.938c-0.9,3.451-2.143,6.712-3.852,9.845c-0.764,1.399-1.675,2.713-2.62,3.994
			c-0.544,0.738-1.145,1.432-1.745,2.125c-2.287,2.64,3.289-3.181,0.787-0.817c-1.04,0.981-2.169,1.863-3.313,2.718
			c-4.414,3.296,6.061-3.599,1.357-0.914c-5.218,2.977,8.601-3.904,3.193-1.535c-4.359,1.91,10.612-3.978,6.193-2.356
			c-0.67,0.246-1.351,0.463-2.031,0.681c23.834-7.624-8.564,1.304,16.086-4.317c-0.94,0.214-1.889,0.39-2.839,0.555
			c15.037-2.618,9.961-1.488,6.597-1.088c-3.026,0.36-8.096,0.54,5.741-0.362c-1.63,0.106-3.27,0.057-4.901,0.057
			c-19.542,0-39.084,0-58.626,0c-6.488,0-12.976,0-19.463,0c-1.315,0-2.63,0-3.945,0c-5.215,0,6.171,0.495,1.172,0.096
			c-2.433-0.195-4.835-0.642-7.208-1.195c5.393,1.257-0.409-0.27-1.702-0.801c-1.551-0.637-3.028-1.438-4.475-2.279
			c-2.917-1.696-5.498-3.917-7.808-6.361c0.689,0.732,1.379,1.465,2.068,2.197c-11.947-13.273-11.651-29.41-11.651-45.923
			c0-35.563,0-71.128,0-106.692c0-10.759,0-21.519,0-32.277c0-9.707-0.782-19.807,1.435-29.317c-0.23,0.979-0.461,1.958-0.692,2.938
			c1.067-4.091,2.626-7.914,4.852-11.513c0.98-1.584,2.146-3.045,3.364-4.451c2.287-2.64-3.289,3.181-0.787,0.817
			c0.834-0.788,1.733-1.506,2.637-2.213c0.661-0.517,1.355-0.989,2.048-1.462c-7.411,5.054-4.554,2.913-2.729,1.871
			c5.219-2.978-9.087,4.006-2.494,1.242c-13.007,5.452-9.2,3.458-6.209,2.41c3.283-1.15,8.3-2.344-7.512,2.263
			c7.282-2.122-12.586,2.638-5.482,1.255c5.503-1.071-11.985,1.715-5.94,0.943c0.771-0.099,1.546-0.171,2.322-0.232
			c-13.646,1.087-9.047,0.486-6.07,0.486c6.315,0,12.63,0,18.944,0c13.709,0,27.418,0,41.127,0c7.778,0,15.557,0,23.335,0
			c14.162,0,27.771-2.457,41.522-5.663c24.393-5.686,54.701-17.346,63.762-43.197c6.634-18.927,3.055-37.914-11.379-52.466
			C473.886-3.343,445.505,0.366,424.274,0.366c-57.827,0-115.654,0-173.48,0c-5.186,0-10.372,0-15.557,0
			c-18.196,0-38.781,5.836-54.641,14.641c-2.315,1.285-10.64,5.559-9.487,9.862C172.27,29.203,181.594,28.667,184.256,28.667
			L184.256,28.667z"/>
	</g>
</g>
<g>
	<g>
		<path fill="none" d="M209.746,14.517c-42.75,0-42.75,42.75-42.75,42.75v256.5c0,0,0,42.75-42.75,42.75"/>
		<path d="M210.582,5.309c-20.843,0.229-39.484,9.838-49.248,28.524c-3.725,7.129-6.134,16.059-6.134,24.164
			c0,15.068,0,30.138,0,45.206c0,60.433,0,120.864,0,181.297c0,9.988,0.037,19.978,0,29.966c-0.008,2.097-0.284,4.204-0.604,6.272
			c-0.144,0.928-0.324,1.85-0.513,2.77c-0.084,0.4-0.173,0.801-0.267,1.2c-0.498,2.183,0.58-2.101-0.043,0.141
			c-0.718,2.585-1.678,5.094-2.793,7.53c-0.552,1.205-1.186,2.368-1.842,3.519c1.222-2.142-1.055,1.397-1.423,1.891
			c-0.862,1.154-1.827,2.228-2.815,3.274c1.795-1.9-0.328,0.191-0.636,0.458c-0.7,0.606-1.446,1.156-2.191,1.705
			c-1.079,0.736-1.033,0.722,0.138-0.045c-0.843,0.521-1.728,0.973-2.61,1.423c-0.613,0.302-1.235,0.588-1.864,0.855
			c-3.16,1.4,2.375-0.757-1.039,0.33c-0.759,0.242-5.468,1.257-3.705,0.986c-2.616,0.402-5.269,0.504-7.911,0.533
			c-5.376,0.059-12.109,4.077-12.632,9.892c-0.555,6.175,5.942,8.58,10.961,8.524c20.843-0.229,39.484-9.838,49.248-28.524
			c3.725-7.129,6.134-16.059,6.134-24.164c0-15.068,0-30.138,0-45.206c0-60.433,0-120.864,0-181.297c0-9.988-0.037-19.978,0-29.966
			c0.008-2.097,0.284-4.204,0.604-6.272c0.144-0.928,0.324-1.85,0.513-2.77c0.084-0.4,0.173-0.801,0.267-1.2
			c0.498-2.183-0.58,2.101,0.043-0.141c0.718-2.585,1.678-5.094,2.793-7.53c0.552-1.204,1.186-2.368,1.842-3.519
			c-1.222,2.142,1.055-1.397,1.423-1.891c0.862-1.154,1.827-2.228,2.815-3.274c-1.795,1.9,0.328-0.191,0.636-0.458
			c0.7-0.606,1.446-1.156,2.191-1.705c1.079-0.736,1.033-0.722-0.138,0.045c0.843-0.521,1.728-0.973,2.61-1.423
			c0.613-0.302,1.235-0.588,1.864-0.855c3.16-1.4-2.375,0.757,1.039-0.33c0.759-0.242,5.468-1.257,3.705-0.986
			c2.616-0.402,5.27-0.504,7.911-0.533c5.376-0.059,12.109-4.077,12.632-9.892C222.098,7.659,215.601,5.253,210.582,5.309
			L210.582,5.309z"/>
	</g>
</g>
<g>
	<g>
		<path fill="none" d="M38.746,14.517c0,0,42.75,0,42.75,42.75s0,256.5,0,256.5s0,42.75,42.75,42.75"/>
		<path d="M13.256,28.667c0.24,0.001,0.48,0.011,0.72,0.02c-11.345-0.438-6.405-0.392-3.785-0.123
			c2.701,0.277,5.372,0.795,8.003,1.458c2.863,0.722-4.805-1.406-1.909-0.521c0.917,0.279,1.819,0.603,2.718,0.933
			c1.927,0.706,3.789,1.575,5.606,2.524c3.758,1.964,7.13,4.576,10.061,7.631c-0.689-0.732-1.378-1.466-2.068-2.198
			C42.833,49.61,42.859,63.833,42.859,78.098c0,12.94,0,25.882,0,38.822c0,35.479,0,70.957,0,106.436c0,28.887,0,57.773,0,86.66
			c0,13.66-0.264,26.307,7.091,38.64c10.443,17.51,29.688,21.801,48.806,22.012c9.343,0.104,19.124-2.092,28.079-4.491
			c9.104-2.439,18.29-5.558,26.562-10.149c2.315-1.285,10.64-5.559,9.487-9.862c-1.167-4.354-10.477-3.769-13.147-3.798
			c-5.218-0.058,6.175,0.495,1.172,0.096c-1.652-0.133-3.29-0.4-4.919-0.693c-0.768-0.147-1.53-0.314-2.289-0.502
			c2.681,0.789,3.109,0.899,1.286,0.331c-1.344-0.428-2.645-0.979-3.933-1.55c-4.312-1.91-8.113-4.81-11.337-8.223
			c0.689,0.732,1.379,1.465,2.068,2.197c-10.394-11.548-11.651-25.681-11.651-40.269c0-27.152,0-54.305,0-81.457
			c0-35.838,0-71.675,0-107.513c0-13.906,0-27.812,0-41.718c0-13.067,1.194-26.714-5.288-38.599
			C105.051,6.51,83.354,0.437,64.236,0.366c-9.377-0.035-19.083,2.081-28.079,4.491c-9.104,2.439-18.29,5.558-26.562,10.149
			c-2.315,1.285-10.64,5.559-9.487,9.862C1.272,29.209,10.591,28.657,13.256,28.667L13.256,28.667z"/>
	</g>
</g>
</svg>
