<?xml version="1.0" encoding="utf-8"?>
<!-- Generator: Adobe Illustrator 13.0.2, SVG Export Plug-In  -->
<!DOCTYPE svg PUBLIC "-//W3C//DTD SVG 1.1//EN" "http://www.w3.org/Graphics/SVG/1.1/DTD/svg11.dtd" [
	<!ENTITY ns_flows "http://ns.adobe.com/Flows/1.0/">
]>
<svg version="1.1"
	 xmlns="http://www.w3.org/2000/svg" xmlns:xlink="http://www.w3.org/1999/xlink" xmlns:a="http://ns.adobe.com/AdobeSVGViewerExtensions/3.0/"
	 x="0px" y="0px" width="1024px" height="1024px" viewBox="38.637 -667.475 1024 1024"
	 enable-background="new 38.637 -667.475 1024 1024" xml:space="preserve">
<defs>
</defs>
<g>
	<g>
		<path fill="none" d="M124.137,356.525c0-171,171-171,171-171h42.75c0.167,0,42.75-0.084,42.75-42.75v-85.5
			c0,0,0-42.875-42.75-42.75h-256.5c0,0-42.75-1.5-42.75,42"/>
		<path d="M162.774,346.173c0.044-16.244,1.579-32.433,5.229-48.277c-0.23,0.979-0.461,1.959-0.692,2.938
			c4.062-17.117,10.601-33.504,20.047-48.374c4.164-6.555,8.932-12.715,14.119-18.489c1.015-1.131,5.636-5.898,1.035-1.211
			c1.239-1.263,2.514-2.491,3.799-3.707c2.733-2.586,5.589-5.041,8.512-7.409c2.636-2.137,5.362-4.161,8.133-6.118
			c1.363-0.963,2.75-1.893,4.142-2.812c-8.619,5.687-2.043,1.343,0.062,0.072c2.766-1.668,5.592-3.236,8.448-4.745
			c1.401-0.741,2.818-1.453,4.239-2.155c-11.958,5.913-4.633,2.244-1.768,0.947c2.773-1.256,5.584-2.427,8.415-3.548
			c4.407-1.747-10.61,4.051-6.19,2.375c0.689-0.261,1.381-0.514,2.073-0.768c1.589-0.582,3.189-1.136,4.792-1.679
			c1.344-0.454,2.695-0.889,4.049-1.315c6.252-1.975-12.867,3.83-5.538,1.698c2.763-0.804,5.546-1.54,8.339-2.233
			c0.621-0.154,1.242-0.303,1.864-0.452c4.706-1.126-12.615,2.908-7.917,1.84c1.191-0.271,2.386-0.527,3.582-0.778
			c2.442-0.514,4.895-0.978,7.353-1.41c1.06-0.187,2.122-0.362,3.185-0.533c-14.741,2.376-10.57,1.655-7.447,1.182
			c0.496-0.075,0.993-0.147,1.489-0.219c1.992-0.289,3.99-0.543,5.989-0.776c1.598-0.186,3.199-0.349,4.801-0.496
			c0.704-0.064,1.409-0.124,2.114-0.181c5.262-0.425-9.791,0.673-5.723,0.402c1.747-0.115,3.497-0.202,5.248-0.247
			c18.641-0.472,37.47,1.191,56.045-0.888c14.502-1.624,29.269-5.07,42.949-10.109c12.899-4.753,26.98-10.264,36.917-20.149
			c7.957-7.914,12.097-15.894,14.09-27.015c0.808-4.505,0.717-9.084,0.717-13.639c0-26.404,0-52.808,0-79.212
			c0-6.369-1.173-12.636-3.365-18.624c-6.446-17.612-22.411-27.279-40.573-29.121c-16.813-1.705-34.253-0.562-51.104-0.562
			c-60.619,0-121.238,0-181.857,0c-11.953,0-23.91,0.1-35.862-0.006C97.75,0.292,88.874,1.778,80.278,3.247
			c-17.342,2.962-34.453,8.838-50.113,16.794c-8.819,4.48-17.127,10.781-22.792,18.985C1.894,46.96,0.102,57.428,0,66.878
			c-0.045,4.196,11.742,3.821,13.147,3.798c9.459-0.159,18.975-2.052,28.079-4.491c9.104-2.439,18.29-5.558,26.562-10.149
			c3.516-1.952,9.435-5.008,9.487-9.862c0.046-4.28,0.453-8.474,1.405-12.649c-0.23,0.979-0.461,1.958-0.692,2.938
			c1.04-4.072,2.562-7.885,4.759-11.474c0.96-1.567,2.106-3.012,3.305-4.4c2.261-2.619-3.307,3.195-0.828,0.859
			c0.821-0.773,1.706-1.476,2.597-2.165c4.244-3.288-6.489,3.705-0.746,0.503c3.821-2.13-8.563,4.042-4.63,2.222
			c2.811-1.301,7.524-2.951-6.194,2.304c7.293-2.794-11.714,3.293-5.476,1.607c4.737-1.28-12.562,2.836-7.836,1.809
			c0.782-0.17,1.571-0.309,2.359-0.443c-14.501,2.477-10.471,1.593-7.342,1.188c0.481-0.063,0.965-0.111,1.448-0.161
			c4.627-0.471-10.372,0.613-5.5,0.395c0.666-0.03,1.331-0.027,1.997-0.027c1.116,0,2.231,0,3.346,0c20.362,0,40.724,0,61.085,0
			c58.613,0,117.226,0,175.838,0c5.029,0,10.058,0,15.087,0c0.352,0,0.703,0,1.055,0c0.492,0,0.982,0.008,1.476,0.012
			c-8.541-0.069,0.095,0.158,2.354,0.558c0.768,0.146,1.53,0.312,2.289,0.497c-4.983-1.15-1.396-0.375-0.264,0.017
			c1.941,0.673,3.793,1.574,5.595,2.555c3.251,1.769,6.121,4.167,8.653,6.849c-0.689-0.733-1.379-1.466-2.068-2.198
			C343.294,51.35,342,69.355,342,87.192c0,15.457,0,30.914,0,46.372c0,10.513,0.968,21.834-1.43,32.144
			c0.23-0.979,0.461-1.959,0.692-2.938c-1.063,4.086-2.617,7.904-4.835,11.5c-0.977,1.583-2.139,3.043-3.353,4.448
			c-2.281,2.642,3.291-3.182,0.794-0.816c-0.833,0.788-1.729,1.507-2.63,2.213c-0.659,0.518-1.352,0.99-2.042,1.463
			c7.398-5.062,4.561-2.914,2.735-1.868c-5.211,2.984,9.088-4.01,2.503-1.237c-4.37,1.841,10.633-3.963,6.213-2.406
			c-3.279,1.154-8.303,2.374,7.514-2.259c-7.279,2.132,12.587-2.641,5.481-1.248c-5.505,1.08,11.984-1.718,5.931-0.938
			c-0.776,0.1-1.556,0.174-2.336,0.236c13.339-1.077,9.401-0.586,6.538-0.49c-0.172,0.006-0.344,0.008-0.516,0.008
			c-5.294,0-10.588,0-15.882,0c-16.091,0-31.82-0.206-47.837,1.396c-29.173,2.917-58.794,9.807-86.157,20.293
			c-34.151,13.087-65.998,30.451-90.195,58.46c-27.378,31.69-37.574,74.27-37.688,115.354c-0.011,4.203,11.708,3.822,13.147,3.798
			c9.459-0.159,18.975-2.052,28.079-4.491c9.104-2.439,18.29-5.558,26.562-10.149C156.767,354.104,162.761,351.014,162.774,346.173
			L162.774,346.173z"/>
	</g>
</g>
</svg>
