<?xml version="1.0" encoding="utf-8"?>
<!-- Generator: Adobe Illustrator 13.0.2, SVG Export Plug-In  -->
<!DOCTYPE svg PUBLIC "-//W3C//DTD SVG 1.1//EN" "http://www.w3.org/Graphics/SVG/1.1/DTD/svg11.dtd" [
	<!ENTITY ns_flows "http://ns.adobe.com/Flows/1.0/">
]>
<svg version="1.1"
	 xmlns="http://www.w3.org/2000/svg" xmlns:xlink="http://www.w3.org/1999/xlink" xmlns:a="http://ns.adobe.com/AdobeSVGViewerExtensions/3.0/"
	 x="0px" y="0px" width="1024px" height="1024px" viewBox="81.496 -667.665 1024 1024"
	 enable-background="new 81.496 -667.665 1024 1024" xml:space="preserve">
<defs>
</defs>
<g>
	<g>
		<path fill="none" d="M423.496,356.335c0,0,0-256.626,0-299.25s-42.75-42.75-42.75-42.75s-42.75,0-85.5,0s-42.75,42.75-42.75,42.75
			s0,213.75,0,256.5s-42.75,42.75-42.75,42.75s-42.75,0-85.25,0s-43-43-43-43V57.085c0,0,0-42.75-42.75-42.75"/>
		<path d="M462.133,345.982c0-47.262,0-94.522,0-141.783c0-34.336,0-68.671,0-103.007c0-12.628,0-25.256,0-37.883
			c0-11.458,1.034-23.489-3.102-34.381c-6-15.801-21.102-23.574-36.578-27.138c-9.171-2.112-18.818-1.606-28.162-1.606
			c-12.378,0-24.756,0-37.134,0c-17.054,0-34.329-0.809-51.312,0.958c-24.531,2.552-50.574,10.418-70.956,24.608
			c-6.771,4.715-12.4,11.647-15.829,19.134c-5.936,12.963-5.203,26.254-5.203,40.026c0,29.938,0,59.877,0,89.814
			c0,31.093,0,62.186,0,93.279c0,12.35,0,24.7,0,37.051c0,10.355,0.926,21.354-1.435,31.483c0.23-0.979,0.461-1.958,0.692-2.938
			c-0.9,3.451-2.143,6.712-3.852,9.845c-0.764,1.399-1.675,2.713-2.62,3.994c-0.544,0.738-1.145,1.432-1.745,2.125
			c-2.287,2.64,3.289-3.181,0.787-0.817c-1.04,0.981-2.169,1.863-3.313,2.718c-4.414,3.296,6.061-3.599,1.357-0.914
			c-5.218,2.977,8.601-3.904,3.193-1.535c-4.359,1.91,10.612-3.978,6.193-2.356c-0.67,0.246-1.351,0.463-2.031,0.681
			c23.834-7.624-8.564,1.304,16.086-4.317c-0.94,0.214-1.889,0.39-2.839,0.555c15.037-2.618,9.961-1.488,6.597-1.088
			c-3.026,0.36-8.096,0.54,5.741-0.362c-1.629,0.106-3.269,0.057-4.9,0.057c-19.498,0-38.995,0-58.492,0c-6.457,0-12.914,0-19.371,0
			c-1.308,0-2.615,0-3.923,0c-5.196,0,6.185,0.497,1.201,0.094c-2.423-0.195-4.817-0.646-7.18-1.201
			c5.401,1.271-0.399-0.279-1.69-0.813c-1.551-0.642-3.028-1.447-4.475-2.292c-2.926-1.71-5.516-3.944-7.836-6.399
			c0.689,0.732,1.379,1.465,2.068,2.198c-9.963-11.056-11.941-24.77-11.941-38.888c0-23.278,0-46.558,0-69.836
			c0-56.347,0-112.692,0-169.039c0-5.809,0.171-11.44-0.887-17.183c-1.539-8.354-5.057-16.36-10.765-22.702
			C96.926,3.284,80.976,0.369,64.236,0.185c-9.343-0.104-19.124,2.092-28.079,4.491c-9.104,2.439-18.29,5.558-26.562,10.149
			c-2.315,1.285-10.64,5.559-9.487,9.862c1.167,4.354,10.477,3.769,13.147,3.798c5.218,0.058-6.175-0.495-1.172-0.096
			c1.652,0.133,3.29,0.4,4.919,0.693c0.768,0.147,1.53,0.314,2.289,0.502c-2.681-0.789-3.109-0.899-1.286-0.331
			c1.344,0.428,2.645,0.979,3.933,1.55c4.312,1.91,8.113,4.81,11.337,8.223c-0.689-0.732-1.379-1.465-2.068-2.197
			c9.92,11.021,11.651,24.677,11.651,38.708c0,23.278,0,46.558,0,69.836c0,56.347,0,112.692,0,169.039
			c0,13.699,1.323,26.717,10.24,38.086c16.634,21.209,45.049,17.987,69.201,17.987c20.563,0,41.125,0,61.688,0
			c22.525,0,45.847-6.618,66.409-15.238c11.761-4.931,22.601-11.515,30.988-21.198c6.318-7.295,8.86-17.313,9.613-26.727
			c0.861-10.766,0.137-21.866,0.137-32.658c0-15.472,0-30.942,0-46.414c0-59.364,0-118.729,0-178.094
			c0-4.646,0.341-9.11,1.383-13.682c-0.23,0.979-0.461,1.958-0.692,2.938c1.271-5.299,3.254-10.343,6.142-14.974
			c0.74-1.188,1.577-2.311,2.438-3.411c0.532-0.682,1.11-1.324,1.688-1.967c-3.833,4.259-1.772,1.8-0.743,0.861
			c1.141-1.04,2.387-1.958,3.652-2.839c-7.034,4.897-4.039,2.588-2.181,1.574c-1.867,0.904-3.734,1.808-5.601,2.711
			c3.235-1.413,1.216-0.662-6.058,2.253c3.677-1.266,1.333-0.567-7.032,2.096c0.368-0.096,0.735-0.191,1.103-0.287
			c-4.978,1.396-10.032,2.396-15.164,3.004c0.415-0.054,0.83-0.106,1.244-0.16c3.132-0.313,1.694-0.222-4.315,0.273
			c1.573-0.089,3.156-0.062,4.73-0.062c7.145,0,14.29,0,21.435,0c12.992,0,25.984,0,38.976,0c7.084,0,14.169,0,21.253,0
			c0.667,0,1.333-0.01,2,0.002c3.288,0.057-8.063-0.448-5.266-0.277c0.689,0.042,1.377,0.109,2.064,0.182
			c1.867,0.196,3.719,0.516,5.557,0.897c1.036,0.216,2.062,0.477,3.084,0.75c-6.818-1.82-1.423-0.336,0.171,0.252
			c5.918,2.181,11.299,5.619,15.667,10.171c-0.689-0.732-1.378-1.465-2.068-2.198c9.8,10.744,10.257,24.259,10.257,37.982
			c0,11.219,0,22.438,0,33.655c0,33.249,0,66.497,0,99.746c0,52.015,0,104.03,0,156.045c0,0.332,0,0.663,0,0.995
			c0,4.205,11.695,3.822,13.147,3.798c9.459-0.159,18.975-2.052,28.079-4.491c9.104-2.439,18.29-5.558,26.562-10.149
			C456.113,353.92,462.133,350.818,462.133,345.982L462.133,345.982z"/>
	</g>
</g>
</svg>
