<?xml version="1.0" encoding="utf-8"?>
<!-- Generator: Adobe Illustrator 13.0.2, SVG Export Plug-In  -->
<!DOCTYPE svg PUBLIC "-//W3C//DTD SVG 1.1//EN" "http://www.w3.org/Graphics/SVG/1.1/DTD/svg11.dtd" [
	<!ENTITY ns_flows "http://ns.adobe.com/Flows/1.0/">
]>
<svg version="1.1"
	 xmlns="http://www.w3.org/2000/svg" xmlns:xlink="http://www.w3.org/1999/xlink" xmlns:a="http://ns.adobe.com/AdobeSVGViewerExtensions/3.0/"
	 x="0px" y="0px" width="1024px" height="1024px" viewBox="38.637 -667.476 1024 1024"
	 enable-background="new 38.637 -667.476 1024 1024" xml:space="preserve">
<defs>
</defs>
<g>
	<g>
		<path fill="none" d="M380.637,228.15c0,0,0-85.501,0-128.126c0-85.625-85.5-85.5-85.5-85.5h-85.5c0,0,0,0-85.5,0
			s-85.5,85.5-85.5,85.5v256.5"/>
		<path d="M419.274,217.798c0-31.446,0-62.892,0-94.337c0-19.884,1.777-40.698-3.152-60.136c-4.187-16.51-13.94-30.809-27.131-41.48
			C370.338,6.753,345.526,1.394,322.067,0.411c-21.517-0.902-43.24-0.037-64.773-0.037c-9.848,0-19.695,0-29.543,0
			c-13.805,0-27.61,0-41.416,0c-13.61,0-27.262-0.311-40.867,0.068c-21.754,0.606-42.946,5.145-63.658,11.588
			c-23.204,7.219-45.709,18.993-61.193,38.124c-8.054,9.951-13.324,21.96-16.545,34.279C1.233,95.29,0,105.902,0,117.029
			c0,55.092,0,110.185,0,165.276c0,28.19,0,56.381,0,84.571c0,4.205,11.695,3.822,13.147,3.798
			c9.459-0.159,18.975-2.052,28.079-4.491c9.104-2.439,18.29-5.558,26.562-10.149c3.466-1.925,9.487-5.026,9.487-9.862
			c0-45.247,0-90.494,0-135.741c0-29.591,0-59.182,0-88.771c0-11.182-0.436-22.458,0.048-33.634
			c0.275-6.352,1.291-12.683,2.719-18.869c-0.231,0.979-0.461,1.959-0.692,2.938c2.889-12.194,7.744-23.881,15.099-34.074
			c0.997-1.381,2.061-2.712,3.146-4.022c0.982-1.186,5.425-5.845,0.836-1.161c2.763-2.82,5.808-5.353,9-7.671
			c1.598-1.161,5.118-3.402-2.37,1.444c0.814-0.526,1.649-1.021,2.484-1.514c0.851-0.502,1.722-0.97,2.592-1.437
			c4.265-2.288-8.213,3.888-3.787,1.817c0.939-0.439,1.896-0.84,2.853-1.24c4.974-2.082-10.117,3.764-4.985,1.937
			c0.343-0.116,0.686-0.233,1.029-0.351c3.713-1.202,1.375-0.498-7.012,2.112c0.724-0.209,1.45-0.408,2.178-0.599
			c3.799-0.956,1.468-0.424-6.993,1.599c1.159-0.263,2.328-0.479,3.496-0.697c5.644-1.051-10.397,1.53-4.629,0.752
			c1.262-0.17,2.531-0.294,3.798-0.418c5.483-0.537-8.548,0.51-2.953,0.226c7.376-0.374,14.807-0.122,22.19-0.122
			c11.559,0,23.117,0,34.676,0c10.173,0,20.346,0,30.519,0c12.334,0,24.668,0,37.003,0c14.783,0,29.566,0,44.349,0
			c2.595,0,5.19-0.001,7.785,0c0.413,0,0.826,0.015,1.238,0.029c3.46,0.123-8.277-0.451-4.941-0.256
			c0.739,0.044,1.478,0.101,2.216,0.163c3.79,0.317,7.557,0.875,11.292,1.588c2.44,0.466,4.86,1.03,7.264,1.656
			c2.865,0.746-4.807-1.374-1.925-0.547c0.664,0.19,1.324,0.394,1.985,0.597c1.364,0.42,2.715,0.882,4.061,1.357
			c12.321,4.356,23.698,11.285,32.709,20.798c-0.689-0.732-1.379-1.466-2.068-2.198C346.713,79.178,342,117.645,342,151.977
			c0,28.842,0,57.685,0,86.526c0,4.205,11.695,3.822,13.147,3.798c9.459-0.159,18.975-2.052,28.079-4.491
			c9.104-2.439,18.29-5.558,26.562-10.149C413.254,225.735,419.274,222.634,419.274,217.798L419.274,217.798z"/>
	</g>
</g>
<g>
	<g>
		<path fill="none" d="M166.887,271.024v-42.75c0,0,0-42.75,42.75-42.75h42.75"/>
		<path d="M205.524,281.377c0-14.161,0-28.323,0-42.485c0-11.035,4.291-22.696,11.651-30.873c-0.689,0.732-1.379,1.465-2.068,2.197
			c2.335-2.472,4.916-4.572,7.808-6.361c1.723-1.066,3.574-1.909,5.444-2.678c1.002-0.411,2.036-0.739,3.067-1.067
			c-4.989,1.589-1.187,0.397-0.046,0.163c2.16-0.445,11.005-0.872,2.354-0.582c0.702-0.023,1.41-0.016,2.114-0.016
			c2.174,0,4.349,0,6.523,0c11.835,0,23.671,0,35.507,0c2.662,0,11.986,0.536,13.147-3.798c1.153-4.304-7.171-8.577-9.487-9.862
			c-15.859-8.805-36.445-14.641-54.641-14.641c-12.324,0-24.647,0-36.971,0c-18.527,0-36.961,1.425-50.024,15.938
			c-14.908,16.563-11.651,39.744-11.651,60.179c0,4.394,0,8.787,0,13.181c0,4.836,6.021,7.938,9.487,9.862
			c8.272,4.592,17.458,7.71,26.562,10.149c9.104,2.439,18.619,4.332,28.079,4.491C193.829,285.199,205.524,285.582,205.524,281.377
			L205.524,281.377z"/>
	</g>
</g>
<g>
	<g>
		<path fill="none" d="M252.387,185.524c0,0,42.75,0.125,42.75,42.75s0,85.5,0,85.5s-1,42.75,43,42.75"/>
		<path d="M251.552,194.732c1.847,0.013-4.112-0.289-0.636-0.003c2.052,0.169,4.088,0.49,6.107,0.888
			c0.819,0.161,4.947,1.257,1.603,0.32c1.366,0.383,2.708,0.845,4.038,1.335c1.431,0.527,2.823,1.151,4.197,1.812
			c0.372,0.178,2.688,1.468,0.53,0.234c0.954,0.546,1.869,1.155,2.776,1.774c3.635,2.482,4.29,3.256,6.506,6.102
			c2.918,3.746,3.896,6.188,5.15,10.517c1.455,5.021,1.518,9.998,1.518,15.182c0,8.361,0,16.724,0,25.085c0,18.827,0,37.654,0,56.48
			c0,9.521,2.426,18.59,6.764,27.031c9.057,17.624,28.551,24.048,47.197,24.243c5.367,0.057,12.116-4.16,12.631-9.892
			c0.563-6.253-5.953-8.473-10.961-8.524c-3.385-0.036-8.575-0.859-11.254-1.75c-1.949-0.647-3.815-1.518-5.633-2.466
			c1.777,0.927-0.854-0.634-0.979-0.718c-1.013-0.675-1.96-1.442-2.896-2.22c-0.678-0.563-1.311-1.179-1.943-1.791
			c1.471,1.427-0.43-0.584-0.58-0.761c-1.064-1.254-2-2.612-2.888-3.993c-0.4-0.621-2.473-4.55-1.561-2.608
			c-0.726-1.545-1.323-3.147-1.872-4.762c-0.823-2.418-1.411-4.913-1.867-7.424c-0.185-1.02-0.326-2.047-0.452-3.074
			c-0.368-3.011,0.081,1.855-0.064-0.708c-0.127-2.243-0.049-4.507-0.049-6.751c0-25.589,0-51.178,0-76.767
			c0-11.382-1.204-21.812-7.018-31.796c-4.306-7.396-11.186-12.579-18.548-16.609c-8.405-4.601-18.586-6.74-28.146-6.803
			c-5.369-0.036-12.114,4.146-12.631,9.892C240.03,192.447,246.542,194.7,251.552,194.732L251.552,194.732z"/>
	</g>
</g>
<g>
	<g>
		<path fill="none" d="M380.637,142.649l-0.144,171.25c0,0,0.144,43.375-42.356,42.625"/>
		<path d="M342,132.297c-0.042,49.904-0.083,99.81-0.125,149.715c-0.015,18.419,1.773,37.768-11.704,52.609
			c0.689-0.732,1.379-1.465,2.068-2.198c-3.234,3.392-6.957,6.031-11.209,7.999c-0.935,0.433-1.904,0.784-2.871,1.137
			c-2.835,1.034,4.204-0.899-0.789,0.187c-1.559,0.339-3.146,0.532-4.73,0.71c-4.15,0.466,6.836-0.037,0.007-0.081
			c-2.656-0.018-11.989-0.524-13.147,3.798c-1.153,4.304,7.171,8.577,9.487,9.862c15.929,8.843,36.388,14.522,54.641,14.641
			c12.106,0.079,25.194-1.22,35.626-7.943c6.458-4.162,11.669-10.707,14.973-17.587c3.075-6.403,4.898-13.949,4.904-21.084
			c0.018-20.735,0.035-41.472,0.052-62.207c0.03-36.283,0.061-72.567,0.091-108.852c0.004-4.835-6.024-7.94-9.487-9.862
			c-8.272-4.592-17.458-7.71-26.562-10.149c-9.104-2.439-18.619-4.332-28.079-4.491C353.692,128.475,342.004,128.092,342,132.297
			L342,132.297z"/>
	</g>
</g>
<g>
	<g>
		<line fill="none" x1="166.887" y1="228.274" x2="166.887" y2="356.524"/>
		<path d="M128.25,238.627c0,42.75,0,85.5,0,128.25c0,4.205,11.695,3.822,13.147,3.798c9.459-0.159,18.975-2.052,28.079-4.491
			c9.104-2.439,18.29-5.558,26.562-10.149c3.466-1.925,9.487-5.026,9.487-9.862c0-42.75,0-85.5,0-128.25
			c0-4.205-11.695-3.822-13.147-3.798c-9.459,0.159-18.975,2.052-28.079,4.491c-9.104,2.439-18.29,5.558-26.562,10.149
			C134.271,230.689,128.25,233.791,128.25,238.627L128.25,238.627z"/>
	</g>
</g>
</svg>
