<?xml version="1.0" encoding="utf-8"?>
<!-- Generator: Adobe Illustrator 13.0.2, SVG Export Plug-In  -->
<!DOCTYPE svg PUBLIC "-//W3C//DTD SVG 1.1//EN" "http://www.w3.org/Graphics/SVG/1.1/DTD/svg11.dtd" [
	<!ENTITY ns_flows "http://ns.adobe.com/Flows/1.0/">
]>
<svg version="1.1"
	 xmlns="http://www.w3.org/2000/svg" xmlns:xlink="http://www.w3.org/1999/xlink" xmlns:a="http://ns.adobe.com/AdobeSVGViewerExtensions/3.0/"
	 x="0px" y="0px" width="1024px" height="1024px" viewBox="81.496 -667.819 1024 1024"
	 enable-background="new 81.496 -667.819 1024 1024" xml:space="preserve">
<defs>
</defs>
<g>
	<g>
		<path fill="none" d="M38.746,14.181c42.75,0,42.75,42.75,42.75,42.75v127.25v129.25c0,42.75,42.75,42.75,42.75,42.75h128.25
			h128.25c0,0,42.75-0.125,42.75-42.75c0-85.625,0-128.375,0-128.375V56.931c0,0,0-42.75,42.75-42.75"/>
		<path d="M13.256,28.331c5.218,0.058-6.175-0.495-1.172-0.096c1.652,0.133,3.29,0.4,4.919,0.693
			c0.768,0.147,1.53,0.314,2.289,0.502c-2.681-0.789-3.109-0.899-1.286-0.331c1.344,0.428,2.645,0.979,3.933,1.55
			c4.312,1.91,8.113,4.81,11.337,8.223c-0.689-0.732-1.379-1.465-2.068-2.197C43.094,49.88,42.859,65.923,42.859,82.356
			c0,30.194,0,60.388,0,90.582c0,44.638,0,89.276,0,133.915c0,8.201-0.516,16.685,0.533,24.841
			c2.101,16.332,14.178,29.257,29.507,34.391c18.219,6.101,38.143,4.246,57.058,4.246c44.835,0,89.669,0,134.504,0
			c28.446,0,56.892,0,85.337,0c10.298,0,20.355-1.093,30.523-2.888c17.555-3.099,34.689-8.991,50.597-16.969
			c9.157-4.593,17.808-11.132,23.709-19.6c5.947-8.534,7.504-19.629,7.504-29.78c0-14.855,0-29.711,0-44.566
			c0-20.056,0-40.112,0-60.168c0-13.584,0-27.168,0-40.752c0-26.81,0-53.62,0-80.431c0-12.68-1.47-26.346,1.383-38.857
			c-0.23,0.979-0.461,1.958-0.692,2.938c1.6-6.672,4.337-12.959,8.579-18.385c0.532-0.682,1.11-1.324,1.688-1.967
			c-3.833,4.259-1.772,1.8-0.743,0.861c0.677-0.617,1.401-1.182,2.125-1.744c4.502-3.506-5.063,3.013-1.523,0.954
			c4.159-2.419-8.271,3.805-3.787,1.818c-7.365,2.731-9.358,3.503-5.98,2.314c-8.449,2.454-10.766,3.176-6.952,2.165
			c-2.692,0.635-5.383,1.27-8.075,1.904c-7.511,1.103-9.459,1.415-5.845,0.939c4.999-0.643-9.335,0.298-1.558,0.212
			c18.291-0.201,38.665-5.771,54.641-14.641c2.315-1.285,10.64-5.559,9.487-9.862c-1.156-4.314-10.494-3.827-13.147-3.798
			c-26.273,0.289-52.889,7.549-76.217,19.453c-9.277,4.734-17.925,12.024-23.294,21.026c-4.592,7.697-7.333,17.778-7.367,26.773
			c-0.083,22.515,0,45.031,0,67.547c0,49.628,0,99.257,0,148.886c0,9.466,0,18.932,0,28.398c0,8.124,0.426,16.271-1.435,24.238
			c0.23-0.979,0.461-1.959,0.692-2.938c-1.067,4.084-2.627,7.9-4.852,11.492c-0.981,1.583-2.146,3.043-3.364,4.448
			c-2.287,2.64,3.289-3.181,0.787-0.817c-0.834,0.789-1.733,1.507-2.637,2.214c-0.661,0.518-1.355,0.99-2.048,1.464
			c7.406-5.057,4.553-2.912,2.729-1.868c-5.217,2.983,9.085-4.008,2.494-1.234c-4.372,1.841,10.631-3.963,6.209-2.405
			c-3.279,1.155-8.303,2.384,7.512-2.257c-7.28,2.136,12.584-2.644,5.482-1.244c-5.501,1.084,11.984-1.722,5.94-0.935
			c-0.771,0.101-1.546,0.175-2.322,0.239c13.725-1.131,9.09-0.481,6.149-0.481c-2.262,0-4.524,0-6.787,0
			c-28.896,0-57.791,0-86.686,0c-44.786,0-89.572,0-134.358,0c-9.542,0-19.085,0-28.628,0c-0.24,0-0.48-0.011-0.72-0.02
			c11.345,0.438,6.405,0.392,3.785,0.123c-2.701-0.277-5.372-0.794-8.003-1.458c-2.863-0.722,4.805,1.406,1.909,0.521
			c-0.917-0.279-1.819-0.603-2.718-0.933c-1.927-0.706-3.789-1.575-5.606-2.524c-3.758-1.964-7.13-4.576-10.061-7.631
			c0.689,0.732,1.378,1.466,2.068,2.198c-8.564-9.392-10.257-21.229-10.257-33.445c0-11.683,0-23.365,0-35.049
			c0-28.322,0-56.644,0-84.966c0-43.44,0-86.88,0-130.319c0-6.674-1.236-13.225-3.631-19.469
			c-2.957-7.708-8.251-14.465-14.747-19.523c-10.378-8.08-24.89-9.367-37.519-9.506c-9.343-0.104-19.124,2.092-28.079,4.491
			c-9.104,2.439-18.29,5.558-26.562,10.149c-2.315,1.285-10.64,5.559-9.487,9.862C1.275,28.887,10.585,28.302,13.256,28.331
			L13.256,28.331z"/>
	</g>
</g>
</svg>
