<?xml version="1.0" encoding="utf-8"?>
<!-- Generator: Adobe Illustrator 13.0.2, SVG Export Plug-In  -->
<!DOCTYPE svg PUBLIC "-//W3C//DTD SVG 1.1//EN" "http://www.w3.org/Graphics/SVG/1.1/DTD/svg11.dtd" [
	<!ENTITY ns_flows "http://ns.adobe.com/Flows/1.0/">
]>
<svg version="1.1"
	 xmlns="http://www.w3.org/2000/svg" xmlns:xlink="http://www.w3.org/1999/xlink" xmlns:a="http://ns.adobe.com/AdobeSVGViewerExtensions/3.0/"
	 x="0px" y="0px" width="1024px" height="1024px" viewBox="81.496 -667.756 1024 1024"
	 enable-background="new 81.496 -667.756 1024 1024" xml:space="preserve">
<defs>
</defs>
<g>
	<g>
		<path fill="none" d="M465.496,356.244l0.5-299.25c0-42.75-42.75-42.75-42.75-42.75h-171c-42.75,0-42.75,42.75-42.75,42.75
			s0,42.75,0,85.5s42.75,42.75,42.75,42.75h43c0,0,42.75,0,42.75,42.75s0,85.5,0,85.5s0,42.75-42.75,42.75h-43h-128.25
			c-42.5,0-42.5-42.5-42.5-42.5V56.994c0,0,0-42.75-42.75-42.75"/>
		<path d="M504.133,345.892c0.07-41.743,0.139-83.486,0.209-125.229c0.091-54.702,0.183-109.404,0.274-164.106
			c0.006-3.77,0.042-7.539,0.001-11.309c-0.194-17.572-10.374-32.846-26.588-39.644c-16.161-6.775-33.706-5.51-50.796-5.51
			c-49.832,0-99.665,0-149.497,0c-26.161,0-53.038,7.625-76.217,19.453c-9.277,4.734-17.925,12.024-23.294,21.026
			c-4.592,7.697-7.333,17.778-7.367,26.773c-0.069,18.81,0,37.62,0,56.43c0,13.604-1.676,28.324,1.436,41.672
			c2.041,8.755,7.33,16.05,14.077,21.841c16.855,14.466,41.782,12.105,62.381,12.105c6.253,0,12.506,0,18.759,0
			c0.769,0,1.538-0.006,2.306,0.001c3.387,0.029-9.277-0.69-3.525-0.146c1.805,0.171,3.596,0.46,5.374,0.806
			c1.233,0.24,2.453,0.541,3.666,0.862c-6.818-1.806-1.427-0.344,0.171,0.242c5.919,2.171,11.301,5.604,15.667,10.155
			c-0.689-0.732-1.378-1.466-2.068-2.198c7.933,8.699,10.257,19.713,10.257,31.203c0,18.688,0,37.376,0,56.064
			c0,12.347,1.397,25.525-1.383,37.72c0.23-0.979,0.461-1.958,0.692-2.938c-1.467,6.116-3.886,11.903-7.549,17.037
			c-0.934,1.31-5.216,5.815-0.667,1.229c-1.287,1.297-2.717,2.44-4.186,3.522c-3.364,2.479,5.951-3.646,2.275-1.509
			c-4.159,2.419,8.271-3.805,3.787-1.818c2.334-0.891,4.668-1.78,7.002-2.671c-3.677,1.266-1.333,0.567,7.032-2.096
			c-3.781,0.977-1.457,0.438,6.972-1.617c7.511-1.103,9.459-1.415,5.845-0.939c-4.892,0.629,9.359-0.212,1.438-0.212
			c-0.558,0-1.116,0-1.674,0c-2.924,0-5.848,0-8.771,0c-7.854,0-15.708,0-23.561,0c-19.228,0-38.455,0-57.683,0
			c-21.512,0-43.025,0-64.538,0c-4.847,0-9.693,0-14.54,0c-4.966,0,5.296,0.453,0.839,0.097c-1.643-0.131-3.27-0.397-4.891-0.688
			c-0.763-0.146-1.521-0.313-2.275-0.499c5,1.165,1.422,0.377,0.289-0.018c-5.427-1.891-10.236-5.203-14.165-9.362
			c0.689,0.732,1.379,1.466,2.068,2.198c-9.87-10.965-11.583-24.547-11.583-38.505c0-23.225,0-46.449,0-69.673
			c0-56.449,0-112.898,0-169.348c0-5.727,0.202-11.341-0.784-17.007c-1.489-8.552-5.032-16.774-10.867-23.257
			C96.926,3.193,80.976,0.278,64.236,0.094C54.893-0.01,45.112,2.186,36.158,4.585c-9.104,2.439-18.29,5.558-26.562,10.149
			c-2.315,1.285-10.64,5.559-9.487,9.862c1.167,4.354,10.477,3.769,13.147,3.798c5.218,0.058-6.175-0.495-1.172-0.096
			c1.652,0.133,3.29,0.4,4.919,0.693c0.768,0.147,1.53,0.314,2.289,0.502c-2.681-0.789-3.109-0.899-1.286-0.331
			c1.344,0.428,2.645,0.979,3.933,1.55c4.312,1.91,8.113,4.81,11.337,8.223c-0.689-0.732-1.379-1.465-2.068-2.197
			c9.913,11.014,11.651,24.661,11.651,38.684c0,23.225,0,46.449,0,69.673c0,56.449,0,112.898,0,169.348
			c0,13.408,0.913,26.118,9.383,37.463c17.349,23.236,50.816,18.489,76.6,18.489c29.502,0,59.004,0,88.506,0
			c18.789,0,37.75,0.923,56.498-0.136c13.114-0.741,26.127-2.732,38.769-6.39c12.281-3.553,24.946-7.629,35.896-14.403
			c8.925-5.521,16.975-12.218,21.909-21.659c3.853-7.373,6.214-16.571,6.214-24.935c0-20.607,0-41.215,0-61.823
			c0-12.879,1.6-26.775-2.368-39.236c-2.59-8.132-8.383-15.13-15.155-20.187c-17.268-12.893-41.129-10.532-61.361-10.532
			c-5.922,0-11.845,0-17.768,0c-0.769,0-1.538,0.006-2.306-0.001c-3.387-0.029,9.277,0.69,3.525,0.146
			c-1.805-0.171-3.596-0.46-5.374-0.806c-1.233-0.24-2.453-0.541-3.666-0.862c6.818,1.806,1.427,0.344-0.171-0.242
			c-5.919-2.171-11.301-5.604-15.667-10.155c0.689,0.732,1.378,1.466,2.068,2.198c-7.933-8.699-10.257-19.713-10.257-31.203
			c0-18.688,0-37.376,0-56.064c0-12.347-1.397-25.525,1.383-37.72c-0.23,0.979-0.461,1.958-0.692,2.938
			c1.467-6.116,3.886-11.903,7.549-17.037c0.934-1.31,5.216-5.815,0.667-1.229c1.287-1.297,2.717-2.44,4.186-3.522
			c3.364-2.479-5.951,3.646-2.275,1.509c4.159-2.419-8.271,3.805-3.787,1.818c-2.334,0.891-4.668,1.78-7.002,2.671
			c3.677-1.266,1.333-0.567-7.032,2.096c3.781-0.977,1.457-0.438-6.972,1.617c-7.511,1.103-9.459,1.415-5.845,0.939
			c4.965-0.639-9.342,0.212-1.527,0.212c0.152,0,0.304,0,0.456,0c0.917,0,1.834,0,2.751,0c3.745,0,7.49,0,11.235,0
			c29.461,0,58.923,0,88.384,0c21.082,0,42.164,0,63.246,0c1.568,0,3.136,0,4.705,0c0.242,0,0.483,0.005,0.725,0.013
			c-9.383-0.303-6.315-0.443-2.742-0.018c1.779,0.212,3.544,0.535,5.295,0.914c1.549,0.336,5.807,1.623-0.721-0.279
			c1.38,0.402,2.733,0.887,4.074,1.401c5.655,2.169,10.783,5.52,14.974,9.89c-0.689-0.732-1.378-1.466-2.068-2.198
			c12.352,13.545,10.252,32.369,10.224,49.312c-0.043,25.69-0.086,51.38-0.129,77.07c-0.099,59.381-0.199,118.762-0.298,178.143
			c-0.013,7.985-0.026,15.971-0.04,23.955c-0.007,4.203,11.703,3.822,13.147,3.798c9.459-0.159,18.975-2.052,28.079-4.491
			c9.104-2.439,18.29-5.558,26.562-10.149C498.121,353.825,504.125,350.73,504.133,345.892L504.133,345.892z"/>
	</g>
</g>
</svg>
