<?xml version="1.0" encoding="utf-8"?>
<!-- Generator: Adobe Illustrator 13.0.2, SVG Export Plug-In  -->
<!DOCTYPE svg PUBLIC "-//W3C//DTD SVG 1.1//EN" "http://www.w3.org/Graphics/SVG/1.1/DTD/svg11.dtd" [
	<!ENTITY ns_flows "http://ns.adobe.com/Flows/1.0/">
]>
<svg version="1.1"
	 xmlns="http://www.w3.org/2000/svg" xmlns:xlink="http://www.w3.org/1999/xlink" xmlns:a="http://ns.adobe.com/AdobeSVGViewerExtensions/3.0/"
	 x="0px" y="0px" width="1024px" height="1024px" viewBox="38.86 -667.85 1024 1024"
	 enable-background="new 38.86 -667.85 1024 1024" xml:space="preserve">
<defs>
</defs>
<g>
	<g>
		<path fill="none" d="M38.86,99.65c0,0,0-85.5,85.5-85.5s85.5,0,85.5,0h128.25c0,0,42.75,0.126,42.75,42.75s0,170.876,0,170.876"/>
		<path d="M77.497,89.298c0.013-6.872,1.227-13.847,2.767-20.516c-0.231,0.979-0.461,1.959-0.692,2.938
			c2.889-12.194,7.744-23.881,15.099-34.074c0.997-1.381,2.061-2.712,3.146-4.022c0.982-1.186,5.425-5.845,0.836-1.161
			c2.763-2.82,5.808-5.353,9-7.671c1.598-1.161,5.118-3.402-2.37,1.444c0.814-0.526,1.649-1.021,2.484-1.514
			c0.851-0.502,1.722-0.97,2.592-1.437c4.265-2.288-8.213,3.888-3.787,1.817c0.939-0.439,1.896-0.84,2.853-1.24
			c4.974-2.082-10.117,3.764-4.985,1.937c0.343-0.116,0.686-0.233,1.029-0.351c3.713-1.202,1.375-0.498-7.012,2.112
			c0.724-0.209,1.45-0.408,2.178-0.599c3.799-0.956,1.468-0.424-6.993,1.599c1.159-0.263,2.328-0.479,3.496-0.697
			c5.644-1.051-10.397,1.53-4.629,0.752c1.262-0.17,2.531-0.294,3.798-0.418c5.483-0.537-8.548,0.51-2.953,0.226
			c7.376-0.374,14.807-0.122,22.19-0.122c11.559,0,23.117,0,34.676,0c10.173,0,20.346,0,30.519,0c39.641,0,79.281,0,118.922,0
			c3.677,0,7.354,0,11.031,0c0.628,0,1.257,0,1.886,0c3.728,0-8.481-0.532-4.49-0.232c1.784,0.135,3.557,0.39,5.318,0.7
			c1.183,0.209,2.356,0.473,3.523,0.756c3.823,0.925-4.906-1.588,0.067,0.087c6.439,2.17,12.328,5.758,17.037,10.666
			c-0.689-0.732-1.378-1.465-2.068-2.198c11.673,12.798,10.257,29.753,10.257,45.854c0,18.159,0,36.318,0,54.479
			c0,31.679,0,63.356,0,95.035c0,1.562,0,3.122,0,4.683c0,4.205,11.695,3.822,13.147,3.798c9.459-0.159,18.975-2.052,28.079-4.491
			c9.104-2.439,18.29-5.558,26.562-10.149c3.466-1.925,9.487-5.026,9.487-9.862c0-24.515,0-49.028,0-73.542
			c0-19.486,0-38.973,0-58.459c0-8.296,0-16.592,0-24.889c0-7.663,0.451-15.496-0.72-23.088C414.529,9.902,386.379,0,361.933,0
			c-26.248,0-52.496,0-78.744,0c-38.888,0-77.775,0-116.663,0c-17.809,0-35.018,0.7-52.643,3.523
			c-17.794,2.852-36.379,8.353-52.621,16.224c-18.811,9.116-35.611,20.746-46.586,38.945C5.74,73.511,0.255,92.603,0.223,110.003
			c-0.007,4.203,11.703,3.822,13.147,3.798c9.459-0.159,18.975-2.052,28.079-4.491c9.104-2.439,18.29-5.558,26.562-10.149
			C71.485,97.231,77.488,94.137,77.497,89.298L77.497,89.298z"/>
	</g>
</g>
<g>
	<g>
		<path fill="none" d="M380.86,142.275l-0.144,171.25c0,0,0.144,43.375-42.356,42.625"/>
		<path d="M342.223,131.923c-0.042,49.904-0.083,99.81-0.125,149.715c-0.015,18.419,1.773,37.768-11.704,52.609
			c0.689-0.732,1.379-1.465,2.068-2.198c-3.234,3.392-6.957,6.031-11.209,7.999c-0.935,0.433-1.904,0.784-2.871,1.137
			c-2.835,1.034,4.204-0.899-0.789,0.187c-1.559,0.339-3.146,0.532-4.73,0.71c-4.15,0.466,6.836-0.037,0.007-0.081
			c-2.656-0.018-11.989-0.524-13.147,3.798c-1.153,4.304,7.171,8.577,9.487,9.862c15.929,8.843,36.388,14.522,54.641,14.641
			c12.106,0.079,25.194-1.22,35.626-7.943c6.458-4.162,11.669-10.707,14.973-17.587c3.075-6.403,4.898-13.949,4.904-21.084
			c0.018-20.735,0.035-41.472,0.052-62.207c0.03-36.283,0.061-72.567,0.091-108.852c0.004-4.835-6.024-7.94-9.487-9.862
			c-8.272-4.592-17.458-7.71-26.562-10.149c-9.104-2.439-18.619-4.332-28.079-4.491
			C353.915,128.101,342.227,127.718,342.223,131.923L342.223,131.923z"/>
	</g>
</g>
<g>
	<g>
		<path fill="none" d="M337.716,356.15c-44,0-42.75-42.75-42.75-42.75s0.394-40.75-42.356-40.75h-42.75h-42.75
			c-42.75,0-42.75,40.75-42.75,40.75s0,42.75-42.75,42.75"/>
		<path d="M338.551,346.942c-8.093-0.085-14.479-1.948-20.708-7.153c-0.149-0.125-2.257-2.128-0.811-0.646
			c-0.593-0.607-1.141-1.258-1.688-1.906c-1.058-1.254-1.984-2.612-2.865-3.993c-0.399-0.625-2.438-4.561-1.533-2.608
			c-0.716-1.545-1.304-3.147-1.844-4.762c-0.809-2.419-1.382-4.914-1.823-7.424c-0.179-1.02-0.314-2.047-0.434-3.074
			c-0.26-2.237,0.105,2.277-0.046-0.708c-0.073-1.438-0.039-2.868-0.148-4.306c-1.011-13.287-5.9-25.315-15.656-34.621
			c-12.289-11.722-29.628-12.299-45.57-12.299c-24.549,0-49.098,0-73.647,0c-17.953,0-35.033,4.587-47.172,18.555
			c-7.297,8.396-11.487,20.308-12.021,31.37c-0.068,1.41-0.109,2.81-0.253,4.217c-0.191,1.867-0.506,3.72-0.884,5.558
			c-0.125,0.608-0.27,1.213-0.415,1.817c0.621-2.587,0.057-0.311-0.086,0.18c-0.402,1.379-0.887,2.732-1.401,4.074
			c-0.457,1.191-0.988,2.354-1.539,3.504c-0.343,0.718-0.724,1.415-1.104,2.112c-1.3,2.381,1.145-1.767-0.362,0.545
			c-0.927,1.422-1.988,2.75-3.092,4.037c-0.275,0.321-2.336,2.333-0.47,0.543c-0.656,0.629-1.358,1.206-2.059,1.782
			c-0.484,0.388-0.979,0.762-1.483,1.123c-2.53,1.864,2.08-1.175-0.708,0.446c-0.869,0.506-1.777,0.938-2.684,1.369
			c-0.369,0.176-3.548,1.324-0.935,0.414c-1.058,0.369-2.145,0.65-3.228,0.933c-0.124,0.032-3.855,0.746-1.526,0.388
			c-2.616,0.402-5.269,0.504-7.911,0.533c-5.376,0.059-12.109,4.077-12.632,9.892c-0.555,6.175,5.942,8.58,10.961,8.524
			c20.843-0.229,39.484-9.838,49.248-28.524c3.779-7.234,6.009-16.063,6.135-24.253c0.049-3.17,0.608-6.351,1.33-9.427
			c-0.672,2.865,0.421-1.288,0.657-1.997c0.455-1.37,1.001-2.706,1.58-4.027c0.302-0.689,2.465-4.683,1.186-2.553
			c0.993-1.652,2.154-3.195,3.383-4.679c0.274-0.331,2.255-2.4,0.383-0.54c0.635-0.632,1.317-1.213,1.998-1.794
			c0.704-0.6,1.453-1.142,2.201-1.684c2.547-1.845-2.077,1.179,0.733-0.425c3.292-1.878,6.608-2.817,9.858-3.226
			c5.403-0.679,11.024-0.372,16.459-0.372c24.375,0,48.75,0,73.125,0c6.469,0,11.469,0.579,17.089,3.027
			c2.047,0.892,5.034,2.937,7.83,5.603c-1.132-1.079,1.663,2.075,2.159,2.741c1.117,1.499,2.069,3.115,2.955,4.759
			c0.174,0.322,1.237,2.658,0.287,0.542c0.3,0.668,0.566,1.352,0.833,2.033c0.501,1.285,0.916,2.604,1.303,3.927
			c0.691,2.367,1.165,4.797,1.501,7.237c0.06,0.433,0.107,0.867,0.155,1.301c0.18,1.645-0.19-2.474-0.076-0.967
			c0.038,0.497,0.061,0.994,0.077,1.492c0.013,0.407,0.002,0.813,0.006,1.221c0.095,10.004,2.745,19.752,7.781,28.4
			c9.482,16.283,28.128,21.997,45.932,22.184c5.367,0.057,12.116-4.16,12.631-9.892C350.075,349.214,343.56,346.994,338.551,346.942
			L338.551,346.942z"/>
	</g>
</g>
<g>
	<g>
		<path fill="none" d="M81.61,356.15c0,0-42.75,0-42.75-42.75v-85.5c0,0,0-42.75,42.75-42.75s384.75,0,384.75,0"/>
		<path d="M107.1,342c-0.24-0.001-0.48-0.011-0.72-0.02c11.345,0.438,6.405,0.392,3.785,0.123c-2.701-0.277-5.372-0.794-8.003-1.458
			c-2.863-0.722,4.805,1.406,1.909,0.521c-0.917-0.279-1.819-0.603-2.718-0.933c-1.927-0.706-3.789-1.575-5.606-2.524
			c-3.758-1.964-7.13-4.576-10.061-7.631c0.689,0.732,1.378,1.466,2.068,2.198c-8.525-9.349-10.257-21.113-10.257-33.293
			c0-12.729,0-25.46,0-38.189c0-12.906,0-25.812,0-38.718c0-5.043,0.25-9.819,1.383-14.787c-0.23,0.979-0.461,1.958-0.692,2.938
			c1.467-6.116,3.886-11.903,7.549-17.037c0.934-1.31,5.216-5.815,0.667-1.229c1.287-1.297,2.717-2.44,4.186-3.522
			c3.364-2.479-5.951,3.646-2.275,1.509c4.159-2.419-8.271,3.805-3.787,1.818c-2.334,0.891-4.668,1.78-7.002,2.671
			c3.677-1.266,1.333-0.567-7.032,2.096c3.781-0.977,1.457-0.438-6.972,1.617c-7.511,1.103-9.459,1.415-5.845,0.939
			c5.412-0.696-8.592,0.416-2.952,0.228c0.634-0.021,1.272-0.016,1.908-0.016c0.567,0,1.135,0,1.702,0c1.498,0,2.996,0,4.495,0
			c3.848,0,7.697,0,11.545,0c25.393,0,50.785,0,76.177,0c67.903,0,135.807,0,203.709,0c28.869,0,57.738,0,86.607,0
			c18.196,0,38.781-5.836,54.641-14.641c2.315-1.285,10.64-5.559,9.487-9.862c-1.161-4.334-10.485-3.798-13.147-3.798
			c-39.315,0-78.631,0-117.947,0c-67.283,0-134.565,0-201.848,0c-20.38,0-40.76,0-61.139,0c-14.782,0-28.978,2.309-43.366,5.663
			c-17.145,3.996-37.439,10.915-50.482,23.427c-10.155,9.741-15.5,21.794-16.721,35.795c-0.56,6.421-0.125,13.004-0.125,19.435
			c0,15.716,0,31.431,0,47.146c0,10.344-0.905,21.367,0.933,31.601c2.84,15.813,15.437,27.824,30.441,32.406
			c8.159,2.491,15.978,3.798,24.522,3.829c9.377,0.035,19.083-2.081,28.079-4.491c9.104-2.439,18.29-5.558,26.562-10.149
			c2.315-1.285,10.64-5.559,9.487-9.862C119.084,341.458,109.765,342.01,107.1,342L107.1,342z"/>
	</g>
</g>
</svg>
