<?xml version="1.0" encoding="utf-8"?>
<!-- Generator: Adobe Illustrator 13.0.2, SVG Export Plug-In  -->
<!DOCTYPE svg PUBLIC "-//W3C//DTD SVG 1.1//EN" "http://www.w3.org/Graphics/SVG/1.1/DTD/svg11.dtd" [
	<!ENTITY ns_flows "http://ns.adobe.com/Flows/1.0/">
]>
<svg version="1.1"
	 xmlns="http://www.w3.org/2000/svg" xmlns:xlink="http://www.w3.org/1999/xlink" xmlns:a="http://ns.adobe.com/AdobeSVGViewerExtensions/3.0/"
	 x="0px" y="0px" width="1024px" height="1024px" viewBox="81.496 -667.846 1024 1024"
	 enable-background="new 81.496 -667.846 1024 1024" xml:space="preserve">
<defs>
</defs>
<g>
	<g>
		<path fill="none" d="M252.496,14.154c0,0,171,0,171,85.5l-171,85.5c0,0,171,0,171,85.5v42.75c0,42.625-42.75,42.75-42.75,42.75
			h-128.25h-128.25c0,0-42.75,0-42.75-42.75v-129.25V56.904c0,0,0-42.75-42.75-42.75"/>
		<path d="M227.006,28.305c1.222,0.001,2.444,0.028,3.667,0.057c1.376,0.032,2.751,0.077,4.127,0.127
			c0.857,0.031,1.715,0.067,2.572,0.104c0.468,0.021,0.937,0.042,1.405,0.064c4.109,0.193-7.383-0.387-4.056-0.209
			c11.486,0.613,22.948,1.711,34.347,3.247c14.687,1.979,29.279,4.787,43.57,8.726c-6.24-1.72,0.275,0.115,1.705,0.55
			c1.769,0.538,3.527,1.107,5.282,1.688c3.775,1.25,7.506,2.628,11.199,4.103c6.893,2.753,13.595,5.987,19.991,9.755
			c7.191,4.237,13.898,9.322,19.68,15.353c-0.689-0.732-1.378-1.465-2.068-2.198c10.444,11.14,16.326,25.012,16.433,40.337
			c3.162-3.287,6.324-6.574,9.487-9.862c-44.462,22.231-88.924,44.462-133.387,66.693c-12.538,6.269-25.076,12.538-37.613,18.807
			c-2.339,1.17-10.62,5.634-9.487,9.862c1.162,4.335,10.485,3.797,13.147,3.798c1.222,0.001,2.444,0.028,3.667,0.057
			c1.376,0.032,2.751,0.077,4.127,0.127c0.857,0.031,1.715,0.067,2.572,0.104c0.468,0.021,0.937,0.042,1.405,0.064
			c4.109,0.193-7.383-0.387-4.056-0.209c11.486,0.613,22.948,1.711,34.347,3.247c14.687,1.979,29.279,4.787,43.57,8.726
			c-6.24-1.72,0.275,0.115,1.705,0.55c1.769,0.538,3.527,1.107,5.282,1.688c3.775,1.25,7.506,2.628,11.199,4.103
			c6.893,2.753,13.595,5.987,19.991,9.755c7.191,4.237,13.898,9.322,19.68,15.353c-0.689-0.732-1.378-1.465-2.068-2.198
			c11.354,12.11,16.433,26.599,16.433,43.062c0,9.252,0,18.504,0,27.756c0,8.29,0.464,16.708-1.435,24.839
			c0.23-0.979,0.461-1.959,0.692-2.938c-1.067,4.084-2.627,7.9-4.852,11.492c-0.981,1.583-2.146,3.043-3.364,4.448
			c-2.287,2.64,3.289-3.181,0.787-0.817c-0.834,0.789-1.733,1.507-2.637,2.214c-0.661,0.518-1.355,0.99-2.048,1.464
			c7.406-5.057,4.553-2.912,2.729-1.868c-5.217,2.983,9.085-4.008,2.494-1.234c-4.372,1.841,10.631-3.963,6.209-2.405
			c-3.279,1.155-8.303,2.384,7.512-2.257c-7.28,2.136,12.584-2.644,5.482-1.244c-5.501,1.084,11.984-1.722,5.94-0.935
			c-0.771,0.101-1.546,0.175-2.322,0.239c13.725-1.131,9.09-0.481,6.149-0.481c-2.262,0-4.524,0-6.787,0
			c-28.896,0-57.791,0-86.686,0c-44.786,0-89.572,0-134.358,0c-9.542,0-19.085,0-28.628,0c-0.24,0-0.48-0.011-0.72-0.02
			c11.345,0.438,6.405,0.392,3.785,0.123c-2.701-0.277-5.372-0.794-8.003-1.458c-2.863-0.722,4.805,1.406,1.909,0.521
			c-0.917-0.279-1.819-0.603-2.718-0.933c-1.927-0.706-3.789-1.575-5.606-2.524c-3.758-1.964-7.13-4.576-10.061-7.631
			c0.689,0.732,1.378,1.466,2.068,2.198c-8.564-9.392-10.257-21.229-10.257-33.445c0-11.683,0-23.365,0-35.049
			c0-28.322,0-56.644,0-84.966c0-43.44,0-86.88,0-130.319c0-6.674-1.236-13.225-3.631-19.469
			c-2.957-7.708-8.251-14.465-14.747-19.523c-10.378-8.08-24.89-9.367-37.519-9.506C54.893-0.1,45.112,2.096,36.158,4.495
			c-9.104,2.439-18.29,5.558-26.562,10.149c-2.315,1.285-10.64,5.559-9.487,9.862c1.167,4.354,10.477,3.769,13.147,3.798
			c5.218,0.058-6.175-0.495-1.172-0.096c1.652,0.133,3.29,0.4,4.919,0.693c0.768,0.147,1.53,0.314,2.289,0.502
			c-2.681-0.789-3.109-0.899-1.286-0.331c1.344,0.428,2.645,0.979,3.933,1.55c4.312,1.91,8.113,4.81,11.337,8.223
			c-0.689-0.732-1.379-1.465-2.068-2.197C43.094,49.854,42.859,65.896,42.859,82.33c0,30.194,0,60.388,0,90.582
			c0,44.638,0,89.276,0,133.915c0,8.201-0.516,16.685,0.533,24.841C45.493,348,57.57,360.925,72.899,366.059
			c18.219,6.101,38.143,4.246,57.058,4.246c44.835,0,89.669,0,134.504,0c28.446,0,56.892,0,85.337,0
			c10.298,0,20.355-1.093,30.523-2.888c17.555-3.099,34.689-8.991,50.597-16.969c9.157-4.593,17.808-11.132,23.709-19.6
			c8.677-12.451,7.504-28.429,7.504-42.845c0-12.195,1.105-25.048-0.734-37.161c-4.447-29.276-32.013-47.88-57.438-58.184
			c-39.078-15.836-83.944-21.631-125.975-21.655c1.22,4.553,2.44,9.106,3.66,13.66c44.462-22.231,88.924-44.462,133.387-66.693
			c12.538-6.269,25.076-12.538,37.613-18.807c3.452-1.727,9.52-5.157,9.487-9.862c-0.211-30.244-23.502-51.433-49.072-63.666
			C385.395,12.399,353.982,6.322,323.686,2.89c-15.125-1.714-30.47-2.877-45.699-2.886c-18.19-0.011-38.787,5.84-54.641,14.641
			c-2.315,1.285-10.64,5.559-9.487,9.862C215.021,28.842,224.344,28.304,227.006,28.305L227.006,28.305z"/>
	</g>
</g>
</svg>
