<?xml version="1.0" encoding="utf-8"?>
<!-- Generator: Adobe Illustrator 13.0.2, SVG Export Plug-In  -->
<!DOCTYPE svg PUBLIC "-//W3C//DTD SVG 1.1//EN" "http://www.w3.org/Graphics/SVG/1.1/DTD/svg11.dtd" [
	<!ENTITY ns_flows "http://ns.adobe.com/Flows/1.0/">
]>
<svg version="1.1"
	 xmlns="http://www.w3.org/2000/svg" xmlns:xlink="http://www.w3.org/1999/xlink" xmlns:a="http://ns.adobe.com/AdobeSVGViewerExtensions/3.0/"
	 x="0px" y="0px" width="1024px" height="1024px" viewBox="39.089 -667.85 1024 1024"
	 enable-background="new 39.089 -667.85 1024 1024" xml:space="preserve">
<defs>
</defs>
<g>
	<g>
		<path fill="none" d="M39.089,99.65c0,0,0-85.5,85.5-85.5s85.5,0,85.5,0h128.25c0,0,42.75,0.126,42.75,42.75s0,170.876,0,170.876"
			/>
		<path d="M77.726,89.298c0.013-6.872,1.227-13.847,2.767-20.516c-0.231,0.979-0.461,1.959-0.692,2.938
			c2.889-12.194,7.744-23.881,15.099-34.074c0.997-1.381,2.061-2.712,3.146-4.022c0.982-1.186,5.425-5.845,0.836-1.161
			c2.763-2.82,5.808-5.353,9-7.671c1.598-1.161,5.118-3.402-2.37,1.444c0.814-0.526,1.649-1.021,2.484-1.514
			c0.851-0.502,1.722-0.97,2.592-1.437c4.265-2.288-8.213,3.888-3.787,1.817c0.939-0.439,1.896-0.84,2.853-1.24
			c4.974-2.082-10.117,3.764-4.985,1.937c0.343-0.116,0.686-0.233,1.029-0.351c3.713-1.202,1.375-0.498-7.012,2.112
			c0.724-0.209,1.45-0.408,2.178-0.599c3.799-0.956,1.468-0.424-6.993,1.599c1.159-0.263,2.328-0.479,3.496-0.697
			c5.644-1.051-10.397,1.53-4.629,0.752c1.262-0.17,2.531-0.294,3.798-0.418c5.483-0.537-8.548,0.51-2.953,0.226
			c7.376-0.374,14.807-0.122,22.19-0.122c11.559,0,23.117,0,34.676,0c10.173,0,20.346,0,30.519,0c39.641,0,79.281,0,118.922,0
			c3.677,0,7.354,0,11.031,0c0.628,0,1.257,0,1.886,0c3.728,0-8.481-0.532-4.49-0.232c1.784,0.135,3.557,0.39,5.318,0.7
			c1.183,0.209,2.356,0.473,3.523,0.756c3.823,0.925-4.906-1.588,0.067,0.087c6.439,2.17,12.328,5.758,17.037,10.666
			c-0.689-0.732-1.378-1.465-2.068-2.198c11.673,12.798,10.257,29.753,10.257,45.854c0,18.159,0,36.318,0,54.479
			c0,31.679,0,63.356,0,95.035c0,1.562,0,3.122,0,4.683c0,4.205,11.695,3.822,13.147,3.798c9.459-0.159,18.975-2.052,28.079-4.491
			c9.104-2.439,18.29-5.558,26.562-10.149c3.466-1.925,9.487-5.026,9.487-9.862c0-24.515,0-49.028,0-73.542
			c0-19.486,0-38.973,0-58.459c0-8.296,0-16.592,0-24.889c0-7.663,0.451-15.496-0.72-23.088C414.758,9.902,386.608,0,362.162,0
			c-26.248,0-52.496,0-78.744,0c-38.888,0-77.775,0-116.663,0c-17.809,0-35.018,0.7-52.643,3.523
			c-17.794,2.852-36.379,8.353-52.621,16.224C42.68,28.863,25.88,40.493,14.905,58.692C5.969,73.511,0.484,92.603,0.452,110.003
			c-0.007,4.203,11.703,3.822,13.147,3.798c9.459-0.159,18.975-2.052,28.079-4.491c9.104-2.439,18.29-5.558,26.562-10.149
			C71.714,97.231,77.717,94.137,77.726,89.298L77.726,89.298z"/>
	</g>
</g>
<g>
	<g>
		<path fill="none" d="M39.089,270.65V227.9c0,0,0-42.75,42.75-42.75s128.25,0,128.25,0h42.75"/>
		<path d="M77.726,281.003c0-14.161,0-28.323,0-42.485c0-11.035,4.291-22.696,11.651-30.873c-0.689,0.732-1.379,1.465-2.068,2.197
			c2.564-2.714,5.426-4.977,8.653-6.854c1.777-1.033,3.677-1.836,5.595-2.563c1.068-0.405,4.767-1.338-0.264-0.025
			c1.542-0.402,3.118-0.66,4.691-0.902c1.266-0.195,2.544-0.295,3.82-0.396c-7.592,0.606-3.328,0.199-1.473,0.199
			c2.105,0,4.21,0,6.314,0c5.058,0,10.115,0,15.172,0c21.458,0,42.917,0,64.376,0c23.652,0,47.303,0,70.955,0
			c4.394,0,8.787,0,13.181,0c2.662,0,11.986,0.536,13.147-3.798c1.153-4.304-7.171-8.577-9.487-9.862
			C266.13,176.836,245.544,171,227.349,171c-19.69,0-39.38,0-59.07,0c-19.452,0-38.903,0-58.354,0c-10.771,0-21.542,0-32.313,0
			c-11.46,0-23.083-0.479-34.494,0.709c-14.791,1.538-27.665,8.618-35.574,21.303c-4.167,6.684-6.371,14.688-6.993,22.502
			c-1.177,14.77-0.098,29.969-0.098,44.784c0,4.836,6.021,7.938,9.487,9.862c8.272,4.592,17.458,7.71,26.562,10.149
			c9.104,2.439,18.619,4.332,28.079,4.491C66.031,284.825,77.726,285.208,77.726,281.003L77.726,281.003z"/>
	</g>
</g>
<g>
	<g>
		<path fill="none" d="M252.839,185.15c0,0,42.75,0.125,42.75,42.75s0,85.5,0,85.5s-1,42.75,43,42.75"/>
		<path d="M252.004,194.358c1.847,0.013-4.112-0.289-0.636-0.003c2.052,0.169,4.088,0.49,6.107,0.888
			c0.819,0.161,4.947,1.257,1.603,0.32c1.366,0.383,2.708,0.845,4.038,1.335c1.431,0.527,2.823,1.151,4.197,1.812
			c0.372,0.178,2.688,1.468,0.53,0.234c0.954,0.546,1.869,1.155,2.776,1.774c3.635,2.482,4.29,3.256,6.506,6.102
			c2.918,3.746,3.896,6.188,5.15,10.517c1.455,5.021,1.518,9.998,1.518,15.182c0,8.361,0,16.724,0,25.085c0,18.827,0,37.654,0,56.48
			c0,9.521,2.426,18.59,6.764,27.031c9.057,17.624,28.551,24.048,47.197,24.243c5.367,0.057,12.116-4.16,12.631-9.892
			c0.563-6.253-5.953-8.473-10.961-8.524c-3.385-0.036-8.575-0.859-11.254-1.75c-1.949-0.647-3.815-1.518-5.633-2.466
			c1.777,0.927-0.854-0.634-0.979-0.718c-1.013-0.675-1.96-1.442-2.896-2.22c-0.678-0.563-1.311-1.179-1.943-1.791
			c1.471,1.427-0.43-0.584-0.58-0.761c-1.064-1.254-2-2.612-2.888-3.993c-0.4-0.621-2.473-4.55-1.561-2.608
			c-0.726-1.545-1.323-3.147-1.872-4.762c-0.823-2.418-1.411-4.913-1.867-7.424c-0.185-1.02-0.326-2.047-0.452-3.074
			c-0.368-3.011,0.081,1.855-0.064-0.708c-0.127-2.243-0.049-4.507-0.049-6.751c0-25.589,0-51.178,0-76.767
			c0-11.382-1.204-21.812-7.018-31.796c-4.306-7.396-11.186-12.579-18.548-16.609c-8.405-4.601-18.586-6.74-28.146-6.803
			c-5.369-0.036-12.114,4.146-12.631,9.892C240.481,192.073,246.993,194.326,252.004,194.358L252.004,194.358z"/>
	</g>
</g>
<g>
	<g>
		<path fill="none" d="M381.089,142.275l-0.144,171.25c0,0,0.144,43.375-42.356,42.625"/>
		<path d="M342.452,131.923c-0.042,49.904-0.083,99.81-0.125,149.715c-0.015,18.419,1.773,37.768-11.704,52.609
			c0.689-0.732,1.379-1.465,2.068-2.198c-3.234,3.392-6.957,6.031-11.209,7.999c-0.935,0.433-1.904,0.784-2.871,1.137
			c-2.835,1.034,4.204-0.899-0.789,0.187c-1.559,0.339-3.146,0.532-4.73,0.71c-4.15,0.466,6.836-0.037,0.007-0.081
			c-2.656-0.018-11.989-0.524-13.147,3.798c-1.153,4.304,7.171,8.577,9.487,9.862c15.929,8.843,36.388,14.522,54.641,14.641
			c12.106,0.079,25.194-1.22,35.626-7.943c6.458-4.162,11.669-10.707,14.973-17.587c3.075-6.403,4.898-13.949,4.904-21.084
			c0.018-20.735,0.035-41.472,0.052-62.207c0.03-36.283,0.061-72.567,0.091-108.852c0.004-4.835-6.024-7.94-9.487-9.862
			c-8.272-4.592-17.458-7.71-26.562-10.149c-9.104-2.439-18.619-4.332-28.079-4.491
			C354.144,128.101,342.456,127.718,342.452,131.923L342.452,131.923z"/>
	</g>
</g>
<g>
	<g>
		<line fill="none" x1="39.089" y1="227.9" x2="39.089" y2="356.15"/>
		<path d="M0.452,238.253c0,42.75,0,85.5,0,128.25c0,4.205,11.695,3.822,13.147,3.798c9.459-0.159,18.975-2.052,28.079-4.491
			c9.104-2.439,18.29-5.558,26.562-10.149c3.466-1.925,9.487-5.026,9.487-9.862c0-42.75,0-85.5,0-128.25
			c0-4.205-11.695-3.822-13.147-3.798c-9.459,0.159-18.975,2.052-28.079,4.491c-9.104,2.439-18.29,5.558-26.562,10.149
			C6.472,230.315,0.452,233.417,0.452,238.253L0.452,238.253z"/>
	</g>
</g>
</svg>
