<?xml version="1.0" encoding="utf-8"?>
<!-- Generator: Adobe Illustrator 13.0.2, SVG Export Plug-In  -->
<!DOCTYPE svg PUBLIC "-//W3C//DTD SVG 1.1//EN" "http://www.w3.org/Graphics/SVG/1.1/DTD/svg11.dtd" [
	<!ENTITY ns_flows "http://ns.adobe.com/Flows/1.0/">
]>
<svg version="1.1"
	 xmlns="http://www.w3.org/2000/svg" xmlns:xlink="http://www.w3.org/1999/xlink" xmlns:a="http://ns.adobe.com/AdobeSVGViewerExtensions/3.0/"
	 x="0px" y="0px" width="1024px" height="1024px" viewBox="124.246 -155.823 1024 1024"
	 enable-background="new 124.246 -155.823 1024 1024" xml:space="preserve">
<defs>
</defs>
<g>
	<g>
		<path fill="none" d="M209.746,526.177h85.5c0,0,85.5,0,128.25,0s42.75,42.75,42.75,42.75s0,42.75,0,85.5s-42.75,42.75-42.75,42.75
			s-42.75,0-85.5,0s-42.75,42.75-42.75,42.75s0,42.75,0,85.5s44,42.75,44,42.75h127h128.25c0,0,41.875,1.75,41.875-41.875
			l-0.875-698.125c0,0,0-114,85.5-114"/>
		<path d="M184.256,540.327c47.272,0,94.545,0,141.818,0c18.889,0,37.778,0,56.667,0c4.071,0,8.143,0,12.215,0
			c1.923,0,9.038,0.278,0.575-0.199c2.485,0.14,4.946,0.533,7.381,1.035c1.914,0.465,1.512,0.331-1.205-0.401
			c1.041,0.301,2.055,0.684,3.067,1.067c1.895,0.719,3.696,1.66,5.444,2.678c2.917,1.696,5.498,3.917,7.808,6.361
			c-0.689-0.732-1.379-1.465-2.068-2.197c7.91,8.788,11.651,20.766,11.651,32.472c0,12.812,0,25.623,0,38.435
			c0,10.481,0,20.963,0,31.444c0,8.799,0.578,17.726-1.435,26.359c0.23-0.979,0.461-1.958,0.692-2.938
			c-1.067,4.091-2.626,7.914-4.852,11.513c-0.98,1.584-2.146,3.045-3.364,4.451c-2.287,2.64,3.289-3.181,0.787-0.817
			c-0.834,0.788-1.733,1.506-2.637,2.213c-0.661,0.517-1.355,0.989-2.048,1.462c7.411-5.054,4.554-2.913,2.729-1.871
			c-5.219,2.978,9.087-4.006,2.494-1.242c13.007-5.452,9.2-3.458,6.209-2.41c-3.283,1.15-8.3,2.344,7.512-2.263
			c-7.282,2.122,12.586-2.638,5.482-1.255c-5.503,1.071,11.985-1.715,5.94-0.943c-0.771,0.099-1.546,0.171-2.322,0.232
			c13.646-1.087,9.047-0.486,6.07-0.486c-6.315,0-12.63,0-18.944,0c-13.709,0-27.418,0-41.127,0c-7.778,0-15.557,0-23.335,0
			c-14.162,0-27.771,2.457-41.522,5.663c-24.393,5.686-54.701,17.346-63.762,43.197c-2.574,7.343-3.566,14.797-3.566,22.495
			c0,25.161,0,50.321,0,75.482c0,10.515,0.547,20.475,6.222,29.643c4.137,6.685,10.519,12.166,17.491,15.703
			c10.121,5.133,22.163,7.117,33.444,7.117c42.662,0,85.325,0,127.987,0c25.499,0,50.998,0,76.496,0
			c20.763,0,41.687,0.847,62.409-0.679c14.406-1.061,28.735-5.003,42.413-9.426c12.681-4.101,26.842-10.047,36.701-19.335
			c10.733-10.113,15.254-22.75,15.236-37.483c-0.01-7.872-0.021-15.744-0.03-23.616c-0.054-42.94-0.107-85.881-0.161-128.821
			c-0.079-63.029-0.158-126.058-0.237-189.086c-0.079-63.708-0.159-127.416-0.239-191.124c-0.057-44.979-0.112-89.957-0.169-134.936
			c-0.024-19.517-0.584-38.583,2.828-57.909c0.605-3.431,1.324-6.841,2.122-10.232c-0.23,0.979-0.461,1.958-0.691,2.938
			c4.046-16.861,10.473-33.371,21.062-47.243c1.261-1.652,2.606-3.237,3.986-4.79c0.912-1.026,4.16-4.256-0.192,0.111
			c0.847-0.849,1.728-1.662,2.613-2.47c1.789-1.63,3.688-3.136,5.633-4.575c1.711-1.267,6.169-4.07-1.713,0.986
			c1.047-0.672,2.124-1.292,3.206-1.905c0.821-0.465,1.662-0.896,2.502-1.327c-10.708,5.488-5.642,2.703-3.057,1.6
			c4.829-2.059-11.027,4.01-4.367,1.714c5.36-1.848-12.593,3.596-5.329,1.654c5.532-1.479-12.771,2.726-5.26,1.271
			c5.311-1.029-11.5,1.601-4.124,0.688c6.927-0.858-7.639,0.404-2.589,0.115c1.566-0.09,3.136-0.108,4.705-0.118
			c18.25-0.114,38.715-5.8,54.641-14.641c2.315-1.286,10.64-5.559,9.486-9.862c-1.158-4.323-10.49-3.814-13.146-3.798
			c-35.372,0.221-72.478,10.64-102.036,30.173c-13.388,8.848-23.912,22.253-31.057,36.485
			c-10.431,20.776-15.357,45.035-16.428,68.178c-0.871,18.827-0.063,37.845-0.04,56.683c0.064,51.005,0.128,102.009,0.192,153.014
			c0.082,65.271,0.164,130.541,0.246,195.811c0.075,60.127,0.151,120.254,0.226,180.381c0.044,35.575,0.089,71.15,0.134,106.725
			c0.009,7.384,0.249,14.705-1.395,21.979c0.231-0.979,0.461-1.958,0.692-2.938c-1.037,4.097-2.553,7.937-4.753,11.549
			c-0.956,1.569-2.098,3.016-3.295,4.405c-2.253,2.616,3.311-3.197,0.838-0.867c-0.816,0.769-1.696,1.465-2.583,2.149
			c-4.235,3.272,6.503-3.706,0.779-0.542c-3.813,2.107,8.58-4.042,4.656-2.25c-2.827,1.291-7.51,2.829,6.226-2.335
			c-7.251,2.727,11.749-3.29,5.546-1.666c-4.721,1.235,12.59-2.822,7.885-1.843c-3.237,0.674-8.496,1.267,6.645-1.007
			c-0.974,0.146-1.954,0.251-2.935,0.341c-3.523,0.32,10.878-0.608,5.645-0.433c-0.577,0.02-1.152,0.007-1.729,0.007
			c-2.262,0-4.524,0-6.787,0c-28.896,0-57.791,0-86.686,0c-44.852,0-89.704,0-134.555,0c-9.079,0-18.162,0.074-27.241-0.001
			c-2.268-0.019-5.515-0.31,5.208,0.284c-0.966-0.054-1.929-0.149-2.89-0.257c-2.83-0.319-5.628-0.882-8.382-1.601
			c6.938,1.812,0.758,0.138-0.913-0.489c-1.945-0.729-3.824-1.618-5.658-2.59c-3.755-1.988-7.128-4.613-10.061-7.68
			c0.689,0.732,1.379,1.466,2.068,2.198c-7.825-8.604-10.167-19.431-10.167-30.791c0-18.688,0-37.376,0-56.064
			c0-12.347-1.397-25.525,1.383-37.72c-0.23,0.979-0.461,1.958-0.692,2.938c1.467-6.116,3.886-11.903,7.549-17.037
			c0.934-1.31,5.216-5.815,0.667-1.229c1.287-1.297,2.717-2.44,4.186-3.522c3.364-2.479-5.951,3.646-2.275,1.509
			c4.159-2.419-8.271,3.805-3.787,1.818c-2.334,0.891-4.668,1.78-7.002,2.671c3.677-1.266,1.333-0.567-7.032,2.096
			c3.781-0.977,1.457-0.438-6.972,1.617c-7.511,1.103-9.459,1.415-5.845,0.939c5.412-0.696-8.592,0.416-2.952,0.228
			c1.777-0.06,3.562-0.016,5.339-0.016c3.92,0,7.84,0,11.76,0c8.096,0,16.192,0,24.288,0c11.873,0,23.745,0,35.617,0
			c12.772,0,25.312-0.605,37.863-3.468c17.581-4.009,35.58-8.945,51.205-18.265c9.12-5.439,17.736-12.268,22.652-21.902
			c5.594-10.962,5.048-23.505,5.048-35.423c0-14.908,0-29.815,0-44.724c0-10.717,0.865-21.781-0.232-32.472
			c-1.329-12.938-7.313-24.672-17.416-32.973c-16.794-13.8-42.948-10.075-63.215-10.075c-57.508,0-115.016,0-172.524,0
			c-5.42,0-10.84,0-16.26,0c-18.196,0-38.781,5.836-54.641,14.641c-2.315,1.285-10.64,5.559-9.487,9.862
			C172.27,540.863,181.594,540.327,184.256,540.327L184.256,540.327z"/>
	</g>
</g>
<g>
	<g>
		<path fill="none" d="M209.746,526.177c-42.75,0-42.75,42.75-42.75,42.75v256.5c0,0,0,42.75-42.75,42.75"/>
		<path d="M210.581,516.969c-20.843,0.229-39.483,9.838-49.248,28.524c-3.725,7.129-6.134,16.059-6.134,24.164
			c0,15.068,0,30.138,0,45.206c0,60.433,0,120.864,0,181.297c0,9.988,0.037,19.978,0,29.966c-0.008,2.097-0.284,4.204-0.604,6.272
			c-0.144,0.928-0.324,1.85-0.513,2.77c-0.084,0.4-0.173,0.801-0.267,1.2c-0.498,2.183,0.58-2.101-0.043,0.141
			c-0.718,2.585-1.678,5.094-2.793,7.53c-0.552,1.205-1.186,2.368-1.842,3.519c1.222-2.142-1.055,1.397-1.423,1.891
			c-0.862,1.154-1.827,2.228-2.815,3.274c1.795-1.9-0.328,0.191-0.636,0.458c-0.7,0.606-1.446,1.156-2.191,1.705
			c-1.079,0.736-1.033,0.722,0.138-0.045c-0.843,0.521-1.728,0.973-2.61,1.423c-0.613,0.302-1.235,0.588-1.864,0.855
			c-3.16,1.4,2.375-0.757-1.039,0.33c-0.759,0.242-5.468,1.257-3.705,0.986c-2.616,0.402-5.27,0.504-7.911,0.533
			c-5.375,0.059-12.108,4.077-12.631,9.892c-0.555,6.175,5.942,8.58,10.961,8.524c20.843-0.229,39.483-9.838,49.248-28.524
			c3.725-7.129,6.134-16.059,6.134-24.164c0-15.068,0-30.138,0-45.206c0-60.433,0-120.864,0-181.297c0-9.988-0.037-19.978,0-29.966
			c0.008-2.097,0.284-4.204,0.604-6.272c0.144-0.928,0.324-1.85,0.513-2.77c0.084-0.4,0.173-0.801,0.267-1.2
			c0.498-2.183-0.58,2.101,0.043-0.141c0.718-2.585,1.678-5.094,2.793-7.53c0.552-1.204,1.186-2.368,1.842-3.519
			c-1.222,2.142,1.055-1.397,1.423-1.891c0.862-1.154,1.827-2.228,2.815-3.274c-1.795,1.9,0.328-0.191,0.636-0.458
			c0.7-0.606,1.446-1.156,2.191-1.705c1.079-0.736,1.033-0.722-0.138,0.045c0.843-0.521,1.728-0.973,2.61-1.423
			c0.613-0.302,1.235-0.588,1.864-0.855c3.16-1.4-2.375,0.757,1.039-0.33c0.759-0.242,5.468-1.257,3.705-0.986
			c2.616-0.402,5.27-0.504,7.911-0.533c5.375-0.059,12.108-4.077,12.631-9.892C222.098,519.319,215.601,516.913,210.581,516.969
			L210.581,516.969z"/>
	</g>
</g>
<g>
	<g>
		<path fill="none" d="M38.746,526.177c0,0,42.75,0,42.75,42.75s0,256.5,0,256.5s0,42.75,42.75,42.75"/>
		<path d="M13.256,540.327c0.24,0.001,0.48,0.011,0.72,0.02c-11.345-0.438-6.405-0.392-3.785-0.123
			c2.701,0.277,5.372,0.795,8.003,1.458c2.863,0.722-4.805-1.406-1.909-0.521c0.917,0.279,1.819,0.603,2.718,0.933
			c1.927,0.706,3.789,1.575,5.606,2.524c3.758,1.964,7.13,4.576,10.061,7.631c-0.689-0.732-1.378-1.466-2.068-2.198
			c10.232,11.221,10.257,25.443,10.257,39.708c0,12.94,0,25.882,0,38.822c0,35.479,0,70.957,0,106.436c0,28.887,0,57.773,0,86.66
			c0,13.66-0.264,26.307,7.091,38.64c10.443,17.51,29.688,21.801,48.806,22.012c9.343,0.104,19.124-2.092,28.079-4.491
			c9.104-2.439,18.29-5.558,26.562-10.149c2.315-1.285,10.64-5.559,9.487-9.862c-1.167-4.354-10.477-3.769-13.147-3.798
			c-5.218-0.058,6.175,0.495,1.172,0.096c-1.652-0.133-3.29-0.4-4.919-0.693c-0.768-0.147-1.53-0.314-2.289-0.502
			c2.681,0.789,3.109,0.899,1.286,0.331c-1.344-0.428-2.645-0.979-3.933-1.55c-4.312-1.91-8.113-4.81-11.337-8.223
			c0.689,0.732,1.379,1.465,2.068,2.197c-10.394-11.548-11.651-25.681-11.651-40.269c0-27.152,0-54.305,0-81.457
			c0-35.838,0-71.675,0-107.513c0-13.906,0-27.812,0-41.718c0-13.067,1.194-26.714-5.288-38.599
			c-9.795-17.958-31.491-24.031-50.609-24.102c-9.377-0.035-19.083,2.081-28.079,4.491c-9.104,2.439-18.29,5.558-26.562,10.149
			c-2.315,1.285-10.64,5.559-9.487,9.862C1.272,540.869,10.591,540.317,13.256,540.327L13.256,540.327z"/>
	</g>
</g>
</svg>
