<?xml version="1.0" encoding="utf-8"?>
<!-- Generator: Adobe Illustrator 13.0.2, SVG Export Plug-In  -->
<!DOCTYPE svg PUBLIC "-//W3C//DTD SVG 1.1//EN" "http://www.w3.org/Graphics/SVG/1.1/DTD/svg11.dtd" [
	<!ENTITY ns_flows "http://ns.adobe.com/Flows/1.0/">
]>
<svg version="1.1"
	 xmlns="http://www.w3.org/2000/svg" xmlns:xlink="http://www.w3.org/1999/xlink" xmlns:a="http://ns.adobe.com/AdobeSVGViewerExtensions/3.0/"
	 x="0px" y="0px" width="1024px" height="1024px" viewBox="81.496 -155.823 1024 1024"
	 enable-background="new 81.496 -155.823 1024 1024" xml:space="preserve">
<defs>
</defs>
<g>
	<g>
		<path fill="none" d="M508.996,14.177c-85.5,0-85.5,114-85.5,114v398v170.875c0,0,0,42.75,0,128.375
			c0,42.625-42.75,42.75-42.75,42.75h-128.25h-128.25c0,0-42.75,0-42.75-42.75v-129.25v-127.25c0,0,0-42.75-42.75-42.75"/>
		<path d="M534.486,0.026c-35.372,0.221-72.478,10.64-102.036,30.173c-13.389,8.848-23.913,22.253-31.058,36.485
			c-10.431,20.776-15.357,45.035-16.428,68.178c-0.336,7.258-0.106,14.56-0.106,21.822c0,22.019,0,44.037,0,66.055
			c0,63.827,0,127.654,0,191.48c0,40.333,0,80.666,0,121c0,45.119,0,90.239,0,135.359c0,51.177,0,102.354,0,153.531
			c0,8.124,0.426,16.271-1.435,24.238c0.23-0.979,0.461-1.959,0.692-2.938c-1.067,4.084-2.627,7.9-4.852,11.492
			c-0.981,1.583-2.146,3.043-3.364,4.448c-2.287,2.64,3.289-3.181,0.787-0.817c-0.834,0.789-1.733,1.507-2.637,2.214
			c-0.661,0.518-1.355,0.99-2.048,1.464c7.406-5.057,4.553-2.912,2.729-1.868c-5.217,2.983,9.085-4.008,2.494-1.234
			c-4.372,1.841,10.631-3.963,6.209-2.405c-3.279,1.155-8.303,2.384,7.512-2.257c-7.28,2.136,12.584-2.644,5.482-1.244
			c-5.501,1.084,11.984-1.722,5.94-0.935c-0.771,0.101-1.546,0.175-2.322,0.239c13.725-1.131,9.09-0.481,6.149-0.481
			c-2.262,0-4.524,0-6.787,0c-28.896,0-57.791,0-86.686,0c-44.786,0-89.572,0-134.358,0c-9.542,0-19.085,0-28.628,0
			c-0.24,0-0.48-0.011-0.72-0.02c11.345,0.438,6.405,0.392,3.785,0.123c-2.701-0.277-5.372-0.794-8.003-1.458
			c-2.863-0.722,4.805,1.406,1.909,0.521c-0.917-0.279-1.819-0.603-2.718-0.933c-1.927-0.706-3.789-1.575-5.606-2.524
			c-3.758-1.964-7.13-4.576-10.061-7.631c0.689,0.732,1.378,1.466,2.068,2.198c-8.564-9.392-10.257-21.229-10.257-33.445
			c0-11.683,0-23.365,0-35.049c0-28.322,0-56.644,0-84.966c0-43.44,0-86.88,0-130.319c0-6.674-1.236-13.225-3.631-19.469
			c-2.957-7.708-8.251-14.465-14.747-19.523c-10.378-8.08-24.89-9.367-37.519-9.506c-9.343-0.104-19.124,2.092-28.079,4.491
			c-9.104,2.439-18.29,5.558-26.562,10.149c-2.315,1.285-10.64,5.559-9.487,9.862c1.167,4.354,10.477,3.769,13.147,3.798
			c5.218,0.058-6.175-0.495-1.172-0.096c1.652,0.133,3.29,0.4,4.919,0.693c0.768,0.147,1.53,0.314,2.289,0.502
			c-2.681-0.789-3.109-0.899-1.286-0.331c1.344,0.428,2.645,0.979,3.933,1.55c4.312,1.91,8.113,4.81,11.337,8.223
			c-0.689-0.732-1.379-1.465-2.068-2.197c11.886,13.205,11.651,29.248,11.651,45.682c0,30.194,0,60.388,0,90.582
			c0,44.638,0,89.276,0,133.915c0,8.201-0.516,16.685,0.533,24.841c2.101,16.332,14.178,29.257,29.507,34.391
			c18.219,6.101,38.143,4.246,57.058,4.246c44.835,0,89.669,0,134.504,0c28.446,0,56.892,0,85.337,0
			c10.298,0,20.355-1.093,30.523-2.888c17.555-3.099,34.689-8.991,50.597-16.969c9.157-4.593,17.808-11.132,23.709-19.6
			c5.947-8.534,7.504-19.629,7.504-29.78c0-14.855,0-29.711,0-44.566c0-20.056,0-40.112,0-60.168c0-12.237,0-24.475,0-36.712
			c0-51.688,0-103.376,0-155.064c0-32.012,0-64.023,0-96.034c0-64.119,0-128.237,0-192.356c0-36.734,0-73.469,0-110.203
			c0-12.827,2.06-25.861,4.988-38.307c-0.231,0.979-0.461,1.958-0.692,2.938c4.046-16.861,10.473-33.371,21.062-47.243
			c1.261-1.652,2.606-3.237,3.987-4.79c0.912-1.026,4.16-4.256-0.193,0.111c0.846-0.849,1.728-1.662,2.613-2.47
			c1.79-1.63,3.688-3.136,5.633-4.575c1.711-1.267,6.169-4.07-1.713,0.986c1.047-0.672,2.125-1.292,3.207-1.905
			c0.821-0.465,1.662-0.896,2.502-1.327c-10.708,5.488-5.641,2.703-3.056,1.6c4.829-2.059-11.027,4.01-4.368,1.714
			c5.361-1.848-12.593,3.596-5.329,1.654c5.533-1.479-12.77,2.726-5.259,1.271c5.31-1.029-11.5,1.601-4.124,0.688
			c6.927-0.858-7.639,0.404-2.59,0.115c1.567-0.09,3.137-0.108,4.706-0.118c18.25-0.114,38.715-5.8,54.641-14.641
			c2.315-1.286,10.64-5.559,9.487-9.862C546.475-0.499,537.143,0.01,534.486,0.026L534.486,0.026z"/>
	</g>
</g>
</svg>
