<?xml version="1.0" encoding="utf-8"?>
<!-- Generator: Adobe Illustrator 13.0.2, SVG Export Plug-In  -->
<!DOCTYPE svg PUBLIC "-//W3C//DTD SVG 1.1//EN" "http://www.w3.org/Graphics/SVG/1.1/DTD/svg11.dtd" [
	<!ENTITY ns_flows "http://ns.adobe.com/Flows/1.0/">
]>
<svg version="1.1"
	 xmlns="http://www.w3.org/2000/svg" xmlns:xlink="http://www.w3.org/1999/xlink" xmlns:a="http://ns.adobe.com/AdobeSVGViewerExtensions/3.0/"
	 x="0px" y="0px" width="1024px" height="1024px" viewBox="124.246 -667.693 1024 1024"
	 enable-background="new 124.246 -667.693 1024 1024" xml:space="preserve">
<defs>
</defs>
<g>
	<g>
		<path fill="none" d="M209.746,14.307h192.375c42.75,0,42.75,42.75,42.75,42.75v256.5c0,0,0,42.75,42.75,42.75"/>
		<path d="M184.256,28.457c49.626,0,99.252,0,148.878,0c12.569,0,25.139,0,37.708,0c1.929,0,3.859,0,5.789,0
			c5.215,0-6.171-0.495-1.172-0.096c1.652,0.133,3.29,0.4,4.919,0.693c0.768,0.147,1.53,0.314,2.289,0.502
			c-2.681-0.789-3.109-0.899-1.286-0.331c1.344,0.428,2.645,0.979,3.933,1.55c4.312,1.91,8.113,4.81,11.337,8.223
			c-0.689-0.732-1.379-1.465-2.068-2.197c9.923,11.024,11.651,24.682,11.651,38.716c0,23.302,0,46.603,0,69.904
			c0,56.401,0,112.803,0,169.204c0,5.811-0.172,11.446,0.887,17.191c1.539,8.354,5.057,16.36,10.765,22.702
			c11.556,12.839,27.506,15.754,44.246,15.938c9.343,0.104,19.124-2.092,28.079-4.491c9.104-2.439,18.29-5.558,26.562-10.149
			c2.315-1.285,10.64-5.559,9.487-9.862c-1.167-4.354-10.477-3.769-13.147-3.798c-5.218-0.058,6.175,0.495,1.172,0.096
			c-1.652-0.133-3.29-0.4-4.919-0.693c-0.768-0.147-1.53-0.314-2.289-0.502c2.681,0.789,3.109,0.899,1.286,0.331
			c-1.344-0.428-2.645-0.979-3.933-1.55c-4.312-1.91-8.113-4.81-11.337-8.223c0.689,0.732,1.379,1.465,2.068,2.197
			c-9.923-11.024-11.651-24.682-11.651-38.716c0-23.302,0-46.603,0-69.904c0-56.401,0-112.803,0-169.204
			c0-13.611-1.107-26.6-9.963-37.927c-16.39-20.967-44.81-17.905-68.697-17.905c-54.963,0-109.926,0-164.889,0
			c-1.574,0-3.149,0-4.724,0c-18.196,0-38.781,5.836-54.641,14.641c-2.315,1.285-10.64,5.559-9.487,9.862
			C172.27,28.993,181.594,28.457,184.256,28.457L184.256,28.457z"/>
	</g>
</g>
<g>
	<g>
		<path fill="none" d="M209.746,14.307c-42.75,0-42.75,42.75-42.75,42.75v256.5c0,0,0,42.75-42.75,42.75"/>
		<path d="M210.582,5.099c-20.843,0.229-39.484,9.838-49.248,28.524c-3.725,7.129-6.134,16.059-6.134,24.164
			c0,15.068,0,30.138,0,45.206c0,60.433,0,120.864,0,181.297c0,9.988,0.037,19.978,0,29.966c-0.008,2.097-0.284,4.204-0.604,6.272
			c-0.144,0.928-0.324,1.85-0.513,2.77c-0.084,0.4-0.173,0.801-0.267,1.2c-0.498,2.183,0.58-2.101-0.043,0.141
			c-0.718,2.585-1.678,5.094-2.793,7.53c-0.552,1.205-1.186,2.368-1.842,3.519c1.222-2.142-1.055,1.397-1.423,1.891
			c-0.862,1.154-1.827,2.228-2.815,3.274c1.795-1.9-0.328,0.191-0.636,0.458c-0.7,0.606-1.446,1.156-2.191,1.705
			c-1.079,0.736-1.033,0.722,0.138-0.045c-0.843,0.521-1.728,0.973-2.61,1.423c-0.613,0.302-1.235,0.588-1.864,0.855
			c-3.16,1.4,2.375-0.757-1.039,0.33c-0.759,0.242-5.468,1.257-3.705,0.986c-2.616,0.402-5.269,0.504-7.911,0.533
			c-5.376,0.059-12.109,4.077-12.632,9.892c-0.555,6.175,5.942,8.58,10.961,8.524c20.843-0.229,39.484-9.838,49.248-28.524
			c3.725-7.129,6.134-16.059,6.134-24.164c0-15.068,0-30.138,0-45.206c0-60.433,0-120.864,0-181.297c0-9.988-0.037-19.978,0-29.966
			c0.008-2.097,0.284-4.204,0.604-6.272c0.144-0.928,0.324-1.85,0.513-2.77c0.084-0.4,0.173-0.801,0.267-1.2
			c0.498-2.183-0.58,2.101,0.043-0.141c0.718-2.585,1.678-5.094,2.793-7.53c0.552-1.204,1.186-2.368,1.842-3.519
			c-1.222,2.142,1.055-1.397,1.423-1.891c0.862-1.154,1.827-2.228,2.815-3.274c-1.795,1.9,0.328-0.191,0.636-0.458
			c0.7-0.606,1.446-1.156,2.191-1.705c1.079-0.736,1.033-0.722-0.138,0.045c0.843-0.521,1.728-0.973,2.61-1.423
			c0.613-0.302,1.235-0.588,1.864-0.855c3.16-1.4-2.375,0.757,1.039-0.33c0.759-0.242,5.468-1.257,3.705-0.986
			c2.616-0.402,5.269-0.504,7.911-0.533c5.376-0.059,12.109-4.077,12.632-9.892C222.098,7.449,215.601,5.043,210.582,5.099
			L210.582,5.099z"/>
	</g>
</g>
<g>
	<g>
		<path fill="none" d="M573.121,14.307c-42.75,0-42.75,42.75-42.75,42.75v256.5c0,0,0,42.75-42.75,42.75"/>
		<path d="M573.956,5.099c-20.843,0.229-39.483,9.838-49.248,28.524c-3.725,7.129-6.134,16.059-6.134,24.164
			c0,15.068,0,30.138,0,45.206c0,60.433,0,120.864,0,181.297c0,9.988,0.037,19.978,0,29.966c-0.008,2.097-0.284,4.204-0.604,6.272
			c-0.144,0.928-0.324,1.85-0.513,2.77c-0.084,0.4-0.173,0.801-0.267,1.2c-0.498,2.183,0.58-2.101-0.043,0.141
			c-0.718,2.585-1.678,5.094-2.793,7.53c-0.552,1.205-1.186,2.368-1.842,3.519c1.222-2.142-1.055,1.397-1.423,1.891
			c-0.862,1.154-1.827,2.228-2.815,3.274c1.795-1.9-0.328,0.191-0.636,0.458c-0.7,0.606-1.446,1.156-2.191,1.705
			c-1.079,0.736-1.033,0.722,0.138-0.045c-0.843,0.521-1.728,0.973-2.61,1.423c-0.613,0.302-1.235,0.588-1.864,0.855
			c-3.16,1.4,2.375-0.757-1.039,0.33c-0.759,0.242-5.468,1.257-3.705,0.986c-2.616,0.402-5.27,0.504-7.911,0.533
			c-5.375,0.059-12.108,4.077-12.631,9.892c-0.555,6.175,5.942,8.58,10.961,8.524c20.843-0.229,39.483-9.838,49.248-28.524
			c3.725-7.129,6.134-16.059,6.134-24.164c0-15.068,0-30.138,0-45.206c0-60.433,0-120.864,0-181.297c0-9.988-0.037-19.978,0-29.966
			c0.008-2.097,0.284-4.204,0.604-6.272c0.144-0.928,0.324-1.85,0.513-2.77c0.084-0.4,0.173-0.801,0.267-1.2
			c0.498-2.183-0.58,2.101,0.043-0.141c0.718-2.585,1.678-5.094,2.793-7.53c0.552-1.204,1.186-2.368,1.842-3.519
			c-1.222,2.142,1.055-1.397,1.423-1.891c0.862-1.154,1.827-2.228,2.815-3.274c-1.795,1.9,0.328-0.191,0.636-0.458
			c0.7-0.606,1.446-1.156,2.191-1.705c1.079-0.736,1.033-0.722-0.138,0.045c0.843-0.521,1.728-0.973,2.61-1.423
			c0.613-0.302,1.235-0.588,1.864-0.855c3.16-1.4-2.375,0.757,1.039-0.33c0.759-0.242,5.468-1.257,3.705-0.986
			c2.616-0.402,5.27-0.504,7.911-0.533c5.375-0.059,12.108-4.077,12.631-9.892C585.473,7.449,578.976,5.043,573.956,5.099
			L573.956,5.099z"/>
	</g>
</g>
<g>
	<g>
		<path fill="none" d="M38.746,14.307c0,0,42.75,0,42.75,42.75c0,60.458,0,38.517,0,256.5c0,0,0,42.75,42.75,42.75"/>
		<path d="M13.256,28.457c0.24,0.001,0.48,0.011,0.72,0.02c-11.345-0.438-6.405-0.392-3.785-0.123
			c2.701,0.277,5.372,0.795,8.003,1.458c2.863,0.722-4.805-1.406-1.909-0.521c0.917,0.279,1.819,0.603,2.718,0.933
			c1.927,0.706,3.789,1.575,5.606,2.524c3.758,1.964,7.13,4.576,10.061,7.631c-0.689-0.732-1.378-1.466-2.068-2.198
			c10.291,11.284,10.257,25.596,10.257,39.943c0,6.771,0,13.542,0,20.313c0,14.105,0,28.21,0,42.314c0,30.22,0,60.439,0,90.658
			c0,26.914,0,53.828,0,80.742c0,11.38-0.013,21.495,4.833,32.077c9.353,20.423,30.235,26,51.064,26.229
			c9.343,0.104,19.124-2.092,28.079-4.491c9.104-2.439,18.29-5.558,26.562-10.149c2.315-1.285,10.64-5.559,9.487-9.862
			c-1.167-4.354-10.477-3.769-13.147-3.798c-5.218-0.058,6.175,0.495,1.172,0.096c-1.652-0.133-3.29-0.4-4.919-0.693
			c-0.768-0.147-1.53-0.314-2.289-0.502c2.681,0.789,3.109,0.899,1.286,0.331c-1.344-0.428-2.645-0.979-3.933-1.55
			c-4.312-1.91-8.113-4.81-11.337-8.223c0.689,0.732,1.379,1.465,2.068,2.197c-7.206-8.006-10.987-18.76-11.61-29.437
			c-0.608-10.426-0.041-21.04-0.041-31.484c0-13.667,0-27.334,0-41.001c0-34.228,0-68.454,0-102.681c0-15.347,0-30.693,0-46.04
			c0-6.354,0-12.71,0-19.064c0-11.384,1.07-23.359-2.724-34.253C109.803,8.02,85.259,0.233,64.236,0.156
			c-9.377-0.035-19.083,2.081-28.079,4.491c-9.104,2.439-18.29,5.558-26.562,10.149c-2.315,1.285-10.64,5.559-9.487,9.862
			C1.272,28.999,10.591,28.447,13.256,28.457L13.256,28.457z"/>
	</g>
</g>
<g>
	<g>
		<path fill="none" d="M573.121,14.307h192.375c0,0,42.75,0,42.75,42.75s1,299.25,1,299.25"/>
		<path d="M547.631,28.457c49.626,0,99.252,0,148.878,0c13.999,0,27.997,0,41.996,0c0.546,0,1.092-0.006,1.637,0.002
			c3.478,0.05-8.882-0.575-4.333-0.213c1.489,0.118,2.971,0.323,4.444,0.565c1.796,0.295,3.57,0.703,5.329,1.169
			c-7.136-1.89,1.04,0.546,2.96,1.388c4.849,2.124,9.218,5.194,12.878,9.01c-0.689-0.732-1.379-1.466-2.068-2.198
			c9.816,10.765,10.244,24.312,10.266,38.057c0.019,11.228,0.05,22.456,0.081,33.684c0.095,33.25,0.21,66.501,0.327,99.751
			c0.184,51.998,0.378,103.996,0.58,155.993c0.001,0.332,0.002,0.664,0.004,0.995c0.016,4.208,11.678,3.823,13.146,3.798
			c9.46-0.159,18.975-2.052,28.078-4.491c9.104-2.439,18.291-5.558,26.563-10.149c3.448-1.914,9.506-5.033,9.486-9.862
			c-0.184-47.245-0.359-94.49-0.529-141.734c-0.122-34.335-0.242-68.67-0.346-103.005c-0.038-12.635-0.074-25.271-0.102-37.905
			c-0.024-11.479,1.012-23.541-3.125-34.452c-8.56-22.581-34.104-28.701-55.694-28.701c-23.344,0-46.687,0-70.03,0
			c-39.815,0-79.63,0-119.445,0c-18.196,0-38.781,5.836-54.641,14.641c-2.315,1.285-10.64,5.559-9.487,9.862
			C535.645,28.993,544.969,28.457,547.631,28.457L547.631,28.457z"/>
	</g>
</g>
</svg>
