<?xml version="1.0" encoding="utf-8"?>
<!-- Generator: Adobe Illustrator 13.0.2, SVG Export Plug-In  -->
<!DOCTYPE svg PUBLIC "-//W3C//DTD SVG 1.1//EN" "http://www.w3.org/Graphics/SVG/1.1/DTD/svg11.dtd" [
	<!ENTITY ns_flows "http://ns.adobe.com/Flows/1.0/">
]>
<svg version="1.1"
	 xmlns="http://www.w3.org/2000/svg" xmlns:xlink="http://www.w3.org/1999/xlink" xmlns:a="http://ns.adobe.com/AdobeSVGViewerExtensions/3.0/"
	 x="0px" y="0px" width="1024px" height="1024px" viewBox="38.746 -667.85 1024 1024"
	 enable-background="new 38.746 -667.85 1024 1024" xml:space="preserve">
<defs>
</defs>
<g>
	<g>
		<path fill="none" d="M38.746,356.15h127c0,0,44,0,44-42.75s0-85.5,0-85.5s0-42.75-42.75-42.75s-85.5,0-85.5,0
			s-42.75,0-42.75-42.75s0-85.5,0-85.5s0-42.75,42.75-42.75s128.25,0,128.25,0h128.25c0,0,42.75,0,42.75,42.75s1,299.25,1,299.25"/>
		<path d="M13.256,370.301c22.662,0,45.323,0,67.984,0c19.98,0,40.21,0.938,60.172-0.038c13.064-0.64,25.611-3.021,38.33-6.036
			c14.135-3.352,29.368-8.689,41.737-16.479c9.082-5.719,17.61-12.433,22.338-22.343c5.374-11.264,4.565-24.01,4.565-36.115
			c0-23.293,0-46.586,0-69.879c0-7.144-1.437-14.178-4.203-20.776c-6.434-15.346-20.094-23.721-36.002-26.578
			c-13.83-2.483-28.877-1.056-42.887-1.056c-12.191,0-24.382,0-36.572,0c-6.767,0-13.532,0-20.298,0
			c-0.559,0-1.117,0.008-1.675-0.004c-3.111-0.063,8.164,0.446,5.37,0.283c-0.689-0.04-1.377-0.105-2.064-0.176
			c-1.867-0.191-3.72-0.507-5.557-0.884c-1.036-0.213-2.063-0.472-3.085-0.743c6.818,1.806,1.428,0.344-0.171-0.242
			c-5.92-2.171-11.301-5.604-15.667-10.155c0.689,0.732,1.379,1.466,2.068,2.198c-7.933-8.699-10.258-19.713-10.258-31.203
			c0-18.688,0-37.376,0-56.064c0-12.347-1.396-25.525,1.384-37.72c-0.23,0.979-0.461,1.958-0.692,2.938
			c1.468-6.116,3.887-11.903,7.55-17.037c0.934-1.31,5.216-5.815,0.667-1.229c1.287-1.297,2.717-2.44,4.186-3.522
			c3.363-2.479-5.951,3.646-2.275,1.509c4.159-2.419-8.271,3.805-3.786,1.818c-2.335,0.891-4.669,1.78-7.003,2.671
			c3.677-1.266,1.333-0.567-7.032,2.096c3.781-0.977,1.457-0.438-6.972,1.617c-7.511,1.103-9.459,1.415-5.845,0.939
			c5.412-0.696-8.593,0.416-2.952,0.228c1.136-0.038,2.277-0.016,3.413-0.016c2.133,0,4.265,0,6.397,0c5.103,0,10.205,0,15.308,0
			c10.833,0,21.667,0,32.501,0c24.945,0,49.891,0,74.835,0c27.147,0,54.294,0,81.441,0c12.548,0,25.096,0,37.644,0
			c2.115,0,4.23,0,6.345,0c3.687,0-8.508-0.526-4.521-0.238c1.972,0.144,3.93,0.431,5.873,0.789
			c0.787,0.145,1.569,0.318,2.351,0.497c4.584,1.045-2.866-0.888-0.664-0.215c2.126,0.648,4.192,1.475,6.212,2.399
			c4.576,2.096,8.693,5.061,12.174,8.688c-0.689-0.732-1.379-1.466-2.068-2.198c9.816,10.765,10.244,24.312,10.266,38.057
			c0.019,11.228,0.05,22.456,0.081,33.684c0.095,33.25,0.21,66.501,0.327,99.751c0.184,51.998,0.378,103.996,0.58,155.993
			c0.001,0.332,0.002,0.664,0.004,0.995c0.016,4.208,11.678,3.823,13.146,3.798c9.46-0.159,18.975-2.052,28.078-4.491
			c9.104-2.439,18.291-5.558,26.563-10.149c3.448-1.914,9.506-5.033,9.486-9.862c-0.184-47.245-0.359-94.49-0.529-141.734
			c-0.122-34.335-0.242-68.67-0.346-103.005c-0.038-12.635-0.074-25.271-0.102-37.905c-0.024-11.479,1.012-23.541-3.125-34.452
			C407.476,5.47,381.265,0,359.262,0c-27.932,0-55.864,0-83.796,0C219.64,0,163.814,0,107.988,0
			C81.841,0,54.886,7.147,31.665,18.997C22.266,23.793,13.524,30.748,7.893,39.78c-4.889,7.84-7.703,18.202-7.783,27.458
			c-0.158,18.191,0,36.392,0,54.583c0,7.684,0,15.366,0,23.05c0,6.517-0.149,12.94,1.172,19.353
			c1.85,8.979,6.952,16.349,13.685,22.409c13.21,11.89,32.254,12.668,49.048,12.668c19.949,0,39.898,0,59.848,0
			c5.882,0,11.763,0,17.645,0c2.685,0.051,1.859-0.016-2.476-0.199c1.279,0.072,2.551,0.233,3.821,0.396
			c1.318,0.17,7.854,1.828,2.355,0.237c6.266,1.813,11.858,5.384,16.319,10.106c-0.689-0.732-1.379-1.465-2.068-2.197
			c7.909,8.788,11.651,20.766,11.651,32.472c0,12.812,0,25.623,0,38.435c0,10.481,0,20.963,0,31.444
			c0,8.716,0.585,17.567-1.417,26.119c0.23-0.979,0.461-1.959,0.692-2.938c-1.059,4.04-2.605,7.813-4.806,11.367
			c-0.975,1.575-2.133,3.028-3.342,4.427c-2.279,2.638,3.293-3.186,0.797-0.818c-0.833,0.79-1.729,1.511-2.632,2.221
			c-0.661,0.521-1.355,0.997-2.048,1.474c7.371-5.07,4.544-2.901,2.72-1.849c-2.271,1.312-6.398,3.199,4.581-2.135
			c-0.697,0.339-1.411,0.643-2.124,0.947c-4.384,1.871,10.61-3.966,6.172-2.374c-3.264,1.171-8.328,2.513,7.46-2.223
			c-0.649,0.194-1.306,0.365-1.962,0.537c-4.843,1.264,13.12-2.9,7.293-1.712c-6.478,1.321,11.087-1.612,5.747-0.879
			c-0.843,0.116-1.69,0.203-2.538,0.279c-3.502,0.314,10.841-0.653,6.244-0.457c-0.237,0.01-0.474,0.018-0.711,0.019
			c-1.985,0.007-3.972,0-5.958,0c-28.676,0-57.353,0-86.028,0c-11.672,0-23.343,0-35.014,0c-18.195,0-38.781,5.836-54.641,14.641
			c-2.315,1.285-10.64,5.559-9.487,9.862C1.27,370.837,10.594,370.301,13.256,370.301L13.256,370.301z"/>
	</g>
</g>
</svg>
