<?xml version="1.0" encoding="utf-8"?>
<!-- Generator: Adobe Illustrator 13.0.2, SVG Export Plug-In  -->
<!DOCTYPE svg PUBLIC "-//W3C//DTD SVG 1.1//EN" "http://www.w3.org/Graphics/SVG/1.1/DTD/svg11.dtd" [
	<!ENTITY ns_flows "http://ns.adobe.com/Flows/1.0/">
]>
<svg version="1.1"
	 xmlns="http://www.w3.org/2000/svg" xmlns:xlink="http://www.w3.org/1999/xlink" xmlns:a="http://ns.adobe.com/AdobeSVGViewerExtensions/3.0/"
	 x="0px" y="0px" width="1024px" height="1024px" viewBox="38.963 -155.823 1024 1024"
	 enable-background="new 38.963 -155.823 1024 1024" xml:space="preserve">
<defs>
</defs>
<g>
	<g>
		<path fill="none" d="M38.963,526.177h128.25c0,0,42.75,0,42.75,42.75s0,85.5,0,85.5s0,42.75-42.75,42.75s-85.5,0-85.5,0
			s-42.75,0.5-42.75,43s0,85.5,0,85.5s0,42.5,42.5,42.5h128.5h127.5c0,0,43.5,0.125,43.5-42.75s0-299.25,0-299.25v-398
			c0,0,0-114,85.5-114"/>
		<path d="M13.473,540.327c22.537,0,45.075,0,67.612,0c20.402,0,40.968-0.767,61.358,0.02c-12.095-0.466-4.502-0.266-1.506,0.17
			c1.099,0.16,2.19,0.368,3.278,0.591c0.609,0.126,1.213,0.271,1.818,0.416c3.921,0.94-4.105-1.227-1.281-0.363
			c6.95,2.122,13.345,5.833,18.385,11.088c-0.689-0.732-1.378-1.466-2.068-2.198c7.933,8.699,10.257,19.713,10.257,31.203
			c0,18.688,0,37.376,0,56.064c0,12.347,1.397,25.525-1.383,37.72c0.23-0.979,0.461-1.958,0.692-2.938
			c-1.467,6.116-3.886,11.903-7.549,17.037c-0.934,1.31-5.216,5.815-0.667,1.229c-1.287,1.297-2.717,2.44-4.186,3.522
			c-3.364,2.479,5.951-3.646,2.275-1.509c-4.159,2.419,8.271-3.805,3.787-1.818c2.334-0.891,4.668-1.78,7.002-2.671
			c-3.677,1.266-1.333,0.567,7.032-2.096c-3.781,0.977-1.457,0.438,6.972-1.617c7.511-1.103,9.459-1.415,5.845-0.939
			c-5.412,0.696,8.592-0.416,2.952-0.228c-1.777,0.06-3.562,0.016-5.339,0.016c-3.92,0-7.84,0-11.76,0c-8.096,0-16.192,0-24.288,0
			c-11.873,0-23.745,0-35.617,0c-16.282,0-31.688,2.044-47.621,5.842c-14.135,3.37-28.958,8.585-41.447,16.136
			c-9.116,5.512-17.717,12.305-22.652,21.977c-5.577,10.931-5.048,23.412-5.048,35.297c0,14.895,0,29.788,0,44.683
			c0,10.741-0.869,21.833,0.231,32.549c1.322,12.869,7.277,24.537,17.326,32.793c11.733,9.641,28.259,10.025,42.719,10.025
			c43.906,0,87.813,0,131.719,0c29.16,0,58.319,0,87.479,0c10.167,0,20.333,0,30.5,0c14.506,0,29.274-2.73,43.185-6.616
			c23.033-6.436,54.292-16.861,63.064-41.979c4.008-11.477,3.052-23.938,3.052-35.901c0-29.136,0-58.271,0-87.405
			c0-61.037,0-122.074,0-183.112c0-24.998,0-49.996,0-74.994c0-62.485,0-124.97,0-187.454c0-46.772,0-93.544,0-140.316
			c0-15.145,1.508-30.077,4.988-44.869c-0.231,0.979-0.461,1.958-0.692,2.938c4.046-16.861,10.473-33.371,21.062-47.243
			c1.261-1.652,2.606-3.237,3.987-4.79c0.912-1.026,4.16-4.256-0.193,0.111c0.846-0.849,1.728-1.662,2.613-2.47
			c1.79-1.63,3.688-3.136,5.633-4.575c1.711-1.267,6.169-4.07-1.713,0.986c1.047-0.672,2.125-1.292,3.207-1.905
			c0.821-0.465,1.662-0.896,2.502-1.327c-10.708,5.488-5.641,2.703-3.056,1.6c4.829-2.059-11.027,4.01-4.368,1.714
			c5.361-1.848-12.593,3.596-5.329,1.654c5.533-1.479-12.77,2.726-5.259,1.271c5.31-1.029-11.5,1.601-4.124,0.688
			c6.927-0.858-7.639,0.404-2.59,0.115c1.567-0.09,3.137-0.108,4.706-0.118c18.25-0.114,38.715-5.8,54.641-14.641
			c2.315-1.286,10.64-5.559,9.487-9.862c-1.158-4.323-10.49-3.814-13.147-3.798c-35.372,0.221-72.478,10.64-102.036,30.173
			c-13.389,8.848-23.913,22.253-31.058,36.485c-10.431,20.776-15.357,45.035-16.428,68.178c-0.336,7.258-0.106,14.56-0.106,21.822
			c0,22.019,0,44.037,0,66.055c0,63.827,0,127.654,0,191.48c0,40.333,0,80.666,0,121c0,40.47,0,80.94,0,121.411
			c0,59.123,0,118.247,0,177.371c0,4.837-0.326,9.567-1.43,14.29c0.231-0.979,0.462-1.959,0.692-2.938
			c-1.065,4.072-2.623,7.877-4.843,11.459c-0.98,1.581-2.146,3.039-3.362,4.442c-2.289,2.638,3.289-3.182,0.785-0.818
			c-0.836,0.79-1.737,1.509-2.642,2.217c-0.663,0.518-1.359,0.992-2.054,1.466c7.406-5.051,4.54-2.904,2.716-1.862
			c-5.231,2.987,9.08-4.004,2.46-1.222c-4.386,1.844,10.62-3.958,6.182-2.396c-3.278,1.153-8.311,2.376,7.478-2.248
			c-7.339,2.149,12.566-2.635,5.391-1.225c-5.56,1.093,11.971-1.716,5.831-0.92c-0.811,0.105-1.625,0.183-2.439,0.25
			c13.686-1.121,8.849-0.471,5.854-0.471c-2.124,0-4.247,0-6.371,0c-28.76,0-57.52,0-86.279,0c-44.885,0-89.771,0-134.656,0
			c-8.826,0-17.651,0-26.476,0c-0.682,0-1.363,0-2.044,0c-0.517,0-1.03-0.01-1.549-0.016c8.573,0.095-0.048-0.171-2.301-0.576
			c-0.763-0.146-1.521-0.313-2.275-0.499c5,1.165,1.422,0.377,0.289-0.018c-1.93-0.673-3.771-1.571-5.562-2.548
			c-3.231-1.763-6.084-4.148-8.603-6.814c0.689,0.732,1.379,1.466,2.068,2.198c-7.871-8.744-11.583-20.656-11.583-32.303
			c0-12.846,0-25.69,0-38.535c0-10.466,0-20.933,0-31.398c0-8.759-0.575-17.644,1.435-26.238c-0.23,0.979-0.461,1.959-0.692,2.938
			c1.069-4.086,2.63-7.905,4.852-11.501c0.981-1.588,2.147-3.054,3.364-4.465c2.285-2.649-3.286,3.179-0.787,0.803
			c0.834-0.794,1.733-1.518,2.637-2.23c0.661-0.521,1.355-1,2.048-1.478c-7.36,5.076-4.552,2.904-2.729,1.849
			c0.69-0.399,1.402-0.762,2.112-1.123c-10.576,5.382-7.074,3.378-4.606,2.32c4.364-1.869-10.624,3.975-6.209,2.385
			c3.263-1.176,8.318-2.534-7.512,2.236c0.633-0.191,1.273-0.359,1.913-0.526c4.803-1.26-13.135,2.908-7.395,1.73
			c6.333-1.3-11.156,1.628-5.94,0.905c0.771-0.106,1.546-0.188,2.322-0.259c2.643-0.239-10.956,0.464-6.07,0.464
			c6.315,0,12.63,0,18.944,0c13.709,0,27.418,0,41.127,0c7.778,0,15.557,0,23.335,0c14.162,0,27.771-2.457,41.522-5.663
			c24.393-5.686,54.701-17.346,63.762-43.197c2.574-7.343,3.566-14.797,3.566-22.495c0-25.161,0-50.321,0-75.482
			c0-10.637-0.549-20.752-6.288-30.029c-4.135-6.684-10.515-12.168-17.508-15.664c-9.782-4.892-21.322-6.77-32.193-6.77
			c-42.719,0-85.438,0-128.158,0c-18.196,0-38.781,5.836-54.641,14.641c-2.315,1.285-10.64,5.559-9.487,9.862
			C1.487,540.863,10.812,540.327,13.473,540.327L13.473,540.327z"/>
	</g>
</g>
</svg>
