<?xml version="1.0" encoding="utf-8"?>
<!-- Generator: Adobe Illustrator 13.0.2, SVG Export Plug-In  -->
<!DOCTYPE svg PUBLIC "-//W3C//DTD SVG 1.1//EN" "http://www.w3.org/Graphics/SVG/1.1/DTD/svg11.dtd" [
	<!ENTITY ns_flows "http://ns.adobe.com/Flows/1.0/">
]>
<svg version="1.1"
	 xmlns="http://www.w3.org/2000/svg" xmlns:xlink="http://www.w3.org/1999/xlink" xmlns:a="http://ns.adobe.com/AdobeSVGViewerExtensions/3.0/"
	 x="0px" y="0px" width="1024px" height="1024px" viewBox="124.246 -667.392 1024 1024"
	 enable-background="new 124.246 -667.392 1024 1024" xml:space="preserve">
<defs>
</defs>
<g>
	<g>
		<path fill="none" d="M466.246,356.608h-127c0,0-44,0-44-42.75s0-85.5,0-85.5s0-42.75,42.75-42.75s85.5,0,85.5,0
			s42.75,0,42.75-42.75s0-85.5,0-85.5s0-42.75-42.75-42.75s-128.25,0-128.25,0h-85.5"/>
		<path d="M491.736,342.458c-22.662,0-45.323,0-67.985,0c-14.657,0-29.314,0-43.971,0c-4.173,0-8.346,0-12.52,0
			c-2.817,0-8.922-0.356,2.624,0.283c-1.784-0.1-3.561-0.32-5.326-0.594c-1.148-0.179-2.288-0.406-3.424-0.649
			c-0.628-0.136-1.252-0.29-1.876-0.445c-2.751-0.686,5.207,1.569,1.205,0.313c-6.981-2.19-13.413-5.94-18.481-11.24
			c0.689,0.732,1.379,1.466,2.068,2.198c-7.825-8.604-10.167-19.431-10.167-30.791c0-18.688,0-37.376,0-56.064
			c0-12.347-1.397-25.525,1.383-37.72c-0.23,0.979-0.461,1.958-0.692,2.938c1.467-6.116,3.886-11.903,7.549-17.037
			c0.934-1.31,5.216-5.815,0.667-1.229c1.287-1.297,2.717-2.44,4.186-3.522c3.364-2.479-5.951,3.646-2.275,1.509
			c4.159-2.419-8.271,3.805-3.787,1.818c-2.334,0.891-4.668,1.78-7.002,2.671c3.677-1.266,1.333-0.567-7.032,2.096
			c3.781-0.977,1.457-0.438-6.972,1.617c-7.511,1.103-9.459,1.415-5.845,0.939c5.412-0.696-8.592,0.416-2.952,0.228
			c1.777-0.06,3.562-0.016,5.339-0.016c3.92,0,7.84,0,11.76,0c8.096,0,16.192,0,24.288,0c11.873,0,23.745,0,35.617,0
			c12.772,0,25.312-0.605,37.863-3.468c17.581-4.009,35.58-8.945,51.205-18.265c9.12-5.439,17.736-12.268,22.652-21.902
			c5.594-10.962,5.048-23.505,5.048-35.423c0-14.908,0-29.815,0-44.724c0-10.717,0.865-21.781-0.232-32.472
			c-1.329-12.938-7.313-24.672-17.416-32.973c-16.794-13.8-42.948-10.075-63.215-10.075c-57.508,0-115.016,0-172.524,0
			c-5.42,0-10.84,0-16.26,0c-18.196,0-38.781,5.836-54.641,14.641c-2.315,1.285-10.64,5.559-9.487,9.862
			c1.161,4.334,10.485,3.798,13.147,3.798c47.272,0,94.545,0,141.818,0c18.889,0,37.778,0,56.667,0c4.071,0,8.143,0,12.215,0
			c1.923,0,9.038,0.278,0.575-0.199c2.485,0.14,4.946,0.533,7.381,1.035c1.914,0.465,1.512,0.331-1.205-0.401
			c1.041,0.301,2.055,0.684,3.067,1.067c1.895,0.719,3.696,1.66,5.444,2.678c2.917,1.696,5.498,3.917,7.808,6.361
			c-0.689-0.732-1.379-1.465-2.068-2.197c7.91,8.788,11.651,20.766,11.651,32.472c0,12.812,0,25.623,0,38.435
			c0,10.481,0,20.963,0,31.444c0,8.799,0.578,17.726-1.435,26.359c0.23-0.979,0.461-1.958,0.692-2.938
			c-1.067,4.091-2.626,7.914-4.852,11.513c-0.98,1.584-2.146,3.045-3.364,4.451c-2.287,2.64,3.289-3.181,0.787-0.817
			c-0.834,0.788-1.733,1.506-2.637,2.213c-0.661,0.517-1.355,0.989-2.048,1.462c7.411-5.054,4.554-2.913,2.729-1.871
			c-5.219,2.978,9.087-4.006,2.494-1.242c13.007-5.452,9.2-3.458,6.209-2.41c-3.283,1.15-8.3,2.344,7.512-2.263
			c-7.282,2.122,12.586-2.638,5.482-1.255c-5.503,1.071,11.985-1.715,5.94-0.943c-0.771,0.099-1.546,0.171-2.322,0.232
			c13.646-1.087,9.047-0.486,6.07-0.486c-6.315,0-12.63,0-18.944,0c-13.709,0-27.418,0-41.127,0c-7.778,0-15.557,0-23.335,0
			c-14.162,0-27.771,2.457-41.522,5.663c-24.393,5.686-54.701,17.346-63.762,43.197c-2.574,7.343-3.566,14.797-3.566,22.495
			c0,25.161,0,50.321,0,75.482c0,10.515,0.547,20.475,6.222,29.643c4.137,6.685,10.519,12.166,17.491,15.703
			c10.121,5.133,22.163,7.117,33.444,7.117c42.33,0,84.66,0,126.99,0c18.196,0,38.781-5.836,54.641-14.641
			c2.315-1.285,10.64-5.559,9.487-9.862C503.722,341.922,494.398,342.458,491.736,342.458L491.736,342.458z"/>
	</g>
</g>
<g>
	<g>
		<path fill="none" d="M209.746,14.608c-42.75,0-42.75,42.75-42.75,42.75v256.5c0,0,0,42.75-42.75,42.75"/>
		<path d="M210.581,5.4c-20.843,0.229-39.483,9.838-49.248,28.524c-3.725,7.129-6.134,16.059-6.134,24.164
			c0,15.068,0,30.138,0,45.206c0,60.433,0,120.864,0,181.297c0,9.988,0.037,19.978,0,29.966c-0.008,2.097-0.284,4.204-0.604,6.272
			c-0.144,0.928-0.324,1.85-0.513,2.77c-0.084,0.4-0.173,0.801-0.267,1.2c-0.498,2.183,0.58-2.101-0.043,0.141
			c-0.718,2.585-1.678,5.094-2.793,7.53c-0.552,1.205-1.186,2.368-1.842,3.519c1.222-2.142-1.055,1.397-1.423,1.891
			c-0.862,1.154-1.827,2.228-2.815,3.274c1.795-1.9-0.328,0.191-0.636,0.458c-0.7,0.606-1.446,1.156-2.191,1.705
			c-1.079,0.736-1.033,0.722,0.138-0.045c-0.843,0.521-1.728,0.973-2.61,1.423c-0.613,0.302-1.235,0.588-1.864,0.855
			c-3.16,1.4,2.375-0.757-1.039,0.33c-0.759,0.242-5.468,1.257-3.705,0.986c-2.616,0.402-5.27,0.504-7.911,0.533
			c-5.375,0.059-12.108,4.077-12.631,9.892c-0.555,6.175,5.942,8.58,10.961,8.524c20.843-0.229,39.483-9.838,49.248-28.524
			c3.725-7.129,6.134-16.059,6.134-24.164c0-15.068,0-30.138,0-45.206c0-60.433,0-120.864,0-181.297c0-9.988-0.037-19.978,0-29.966
			c0.008-2.097,0.284-4.204,0.604-6.272c0.144-0.928,0.324-1.85,0.513-2.77c0.084-0.4,0.173-0.801,0.267-1.2
			c0.498-2.183-0.58,2.101,0.043-0.141c0.718-2.585,1.678-5.094,2.793-7.53c0.552-1.204,1.186-2.368,1.842-3.519
			c-1.222,2.142,1.055-1.397,1.423-1.891c0.862-1.154,1.827-2.228,2.815-3.274c-1.795,1.9,0.328-0.191,0.636-0.458
			c0.7-0.606,1.446-1.156,2.191-1.705c1.079-0.736,1.033-0.722-0.138,0.045c0.843-0.521,1.728-0.973,2.61-1.423
			c0.613-0.302,1.235-0.588,1.864-0.855c3.16-1.4-2.375,0.757,1.039-0.33c0.759-0.242,5.468-1.257,3.705-0.986
			c2.616-0.402,5.27-0.504,7.911-0.533c5.375-0.059,12.108-4.077,12.631-9.892C222.098,7.751,215.601,5.345,210.581,5.4L210.581,5.4
			z"/>
	</g>
</g>
<g>
	<g>
		<path fill="none" d="M38.746,14.608c0,0,42.75,0,42.75,42.75s0,256.5,0,256.5s0,42.75,42.75,42.75"/>
		<path d="M13.256,28.759c0.24,0.001,0.48,0.011,0.72,0.02c-11.345-0.438-6.405-0.392-3.785-0.123
			c2.701,0.277,5.372,0.795,8.003,1.458c2.863,0.722-4.805-1.406-1.909-0.521c0.917,0.279,1.819,0.603,2.718,0.933
			c1.927,0.706,3.789,1.575,5.606,2.524c3.758,1.964,7.13,4.576,10.061,7.631c-0.689-0.732-1.378-1.466-2.068-2.198
			c10.232,11.221,10.257,25.443,10.257,39.708c0,12.94,0,25.882,0,38.822c0,35.479,0,70.957,0,106.436c0,28.887,0,57.773,0,86.66
			c0,13.66-0.264,26.307,7.091,38.64c10.443,17.51,29.688,21.801,48.806,22.012c9.343,0.104,19.124-2.092,28.079-4.491
			c9.104-2.439,18.29-5.558,26.562-10.149c2.315-1.285,10.64-5.559,9.487-9.862c-1.167-4.354-10.477-3.769-13.147-3.798
			c-5.218-0.058,6.175,0.495,1.172,0.096c-1.652-0.133-3.29-0.4-4.919-0.693c-0.768-0.147-1.53-0.314-2.289-0.502
			c2.681,0.789,3.109,0.899,1.286,0.331c-1.344-0.428-2.645-0.979-3.933-1.55c-4.312-1.91-8.113-4.81-11.337-8.223
			c0.689,0.732,1.379,1.465,2.068,2.197c-10.394-11.548-11.651-25.681-11.651-40.269c0-27.152,0-54.305,0-81.457
			c0-35.838,0-71.675,0-107.513c0-13.906,0-27.812,0-41.718c0-13.067,1.194-26.714-5.288-38.599
			C105.051,6.602,83.354,0.528,64.236,0.458c-9.377-0.035-19.083,2.081-28.079,4.491c-9.104,2.439-18.29,5.558-26.562,10.149
			c-2.315,1.285-10.64,5.559-9.487,9.862C1.272,29.301,10.591,28.749,13.256,28.759L13.256,28.759z"/>
	</g>
</g>
</svg>
