<?xml version="1.0" encoding="utf-8"?>
<!-- Generator: Adobe Illustrator 13.0.2, SVG Export Plug-In  -->
<!DOCTYPE svg PUBLIC "-//W3C//DTD SVG 1.1//EN" "http://www.w3.org/Graphics/SVG/1.1/DTD/svg11.dtd" [
	<!ENTITY ns_flows "http://ns.adobe.com/Flows/1.0/">
]>
<svg version="1.1"
	 xmlns="http://www.w3.org/2000/svg" xmlns:xlink="http://www.w3.org/1999/xlink" xmlns:a="http://ns.adobe.com/AdobeSVGViewerExtensions/3.0/"
	 x="0px" y="0px" width="1024px" height="1024px" viewBox="38.963 -667.529 1024 1024"
	 enable-background="new 38.963 -667.529 1024 1024" xml:space="preserve">
<defs>
</defs>
<g>
	<g>
		<path fill="none" d="M38.963,14.471h128.25c0,0,42.75,0,42.75,42.75s0,85.5,0,85.5s0,42.75-42.75,42.75s-85.5,0-85.5,0
			s-42.75,0.5-42.75,43s0,85.5,0,85.5s0,42.5,42.5,42.5h128.5h128.25c0,0,42.75,0,42.75-42.75s0-256.5,0-256.5s0-42.75,42.75-42.75
			h128.25c0,0,171,0,171,85.5l-171,85.5c0,0,171,0,171,85.5s0,85.5,0,85.5"/>
		<path d="M13.473,28.621c22.537,0,45.075,0,67.612,0c20.402,0,40.968-0.767,61.358,0.02c-12.095-0.466-4.502-0.266-1.506,0.17
			c1.099,0.16,2.19,0.368,3.278,0.591c0.609,0.126,1.213,0.271,1.818,0.416c3.921,0.94-4.105-1.227-1.281-0.363
			c6.95,2.122,13.345,5.833,18.385,11.088c-0.689-0.732-1.378-1.466-2.068-2.198c7.933,8.699,10.257,19.713,10.257,31.203
			c0,18.688,0,37.376,0,56.064c0,12.347,1.397,25.525-1.383,37.72c0.23-0.979,0.461-1.958,0.692-2.938
			c-1.467,6.116-3.886,11.903-7.549,17.037c-0.934,1.31-5.216,5.815-0.667,1.229c-1.287,1.297-2.717,2.44-4.186,3.522
			c-3.364,2.479,5.951-3.646,2.275-1.509c-4.159,2.419,8.271-3.805,3.787-1.818c2.334-0.891,4.668-1.78,7.002-2.671
			c-3.677,1.266-1.333,0.567,7.032-2.096c-3.781,0.977-1.457,0.438,6.972-1.617c7.511-1.103,9.459-1.415,5.845-0.939
			c-5.412,0.696,8.592-0.416,2.952-0.228c-1.777,0.06-3.562,0.016-5.339,0.016c-3.92,0-7.84,0-11.76,0c-8.096,0-16.192,0-24.288,0
			c-11.873,0-23.745,0-35.617,0c-16.282,0-31.688,2.044-47.621,5.842c-14.135,3.37-28.958,8.585-41.447,16.136
			c-9.116,5.512-17.717,12.305-22.652,21.977c-5.577,10.931-5.048,23.412-5.048,35.297c0,14.895,0,29.788,0,44.683
			c0,10.741-0.869,21.833,0.231,32.549c1.322,12.869,7.277,24.537,17.326,32.793c11.733,9.641,28.259,10.025,42.719,10.025
			c43.896,0,87.792,0,131.688,0c29.16,0,58.319,0,87.479,0c10.343,0,20.686,0,31.028,0c14.391,0,28.985-2.693,42.793-6.53
			c23.061-6.406,54.201-16.839,62.95-41.956c4.311-12.374,3.061-26.146,3.061-39.06c0-32.289,0-64.578,0-96.867
			c0-33.841,0-67.681,0-101.521c0-13.493-1.085-27.461,0.191-40.921c0.229-2.41,0.654-4.798,1.192-7.156
			c-0.23,0.979-0.461,1.958-0.692,2.938c1.467-6.116,3.886-11.903,7.549-17.037c0.934-1.31,5.216-5.815,0.667-1.229
			c1.287-1.297,2.717-2.44,4.186-3.522c3.364-2.479-5.951,3.646-2.275,1.509c4.159-2.419-8.271,3.805-3.787,1.818
			c-2.334,0.891-4.668,1.78-7.002,2.671c3.677-1.266,1.333-0.567-7.032,2.096c3.781-0.977,1.457-0.438-6.972,1.617
			c-7.511,1.103-9.459,1.415-5.845,0.939c4.958-0.638-9.346,0.212-1.517,0.212c0.201,0,0.401,0,0.602,0c1.194,0,2.388,0,3.582,0
			c4.72,0,9.439,0,14.159,0c30.251,0,60.502,0,90.754,0c6.389,0,12.779-0.014,19.168,0c1.503,0.004,3.007,0.04,4.509,0.08
			c1.492,0.039,2.983,0.092,4.474,0.151c0.911,0.036,1.821,0.078,2.731,0.121c4.08,0.192-8.527-0.467-2.453-0.119
			c11.777,0.675,23.526,1.853,35.206,3.499c7.201,1.016,14.369,2.251,21.496,3.695c3.575,0.725,7.134,1.524,10.681,2.375
			c1.793,0.43,3.578,0.885,5.362,1.351c0.894,0.232,1.785,0.475,2.678,0.718c3.046,0.828-4.672-1.346-0.063-0.002
			c21.293,6.207,43.203,15.419,58.811,31.694c-0.689-0.732-1.379-1.465-2.068-2.198c10.444,11.14,16.326,25.012,16.434,40.337
			c3.162-3.287,6.324-6.574,9.486-9.862c-44.462,22.231-88.925,44.462-133.387,66.693c-12.538,6.269-25.076,12.538-37.613,18.807
			c-2.339,1.17-10.62,5.634-9.487,9.862c1.162,4.335,10.485,3.797,13.147,3.798c1.222,0.001,2.444,0.028,3.667,0.057
			c1.376,0.032,2.751,0.077,4.127,0.127c0.857,0.031,1.715,0.067,2.572,0.104c0.468,0.021,0.937,0.042,1.405,0.064
			c4.109,0.193-7.383-0.387-4.056-0.209c11.486,0.613,22.947,1.711,34.347,3.247c14.687,1.979,29.279,4.787,43.57,8.726
			c-6.24-1.72,0.274,0.115,1.704,0.55c1.769,0.538,3.527,1.107,5.282,1.688c3.775,1.25,7.507,2.628,11.199,4.103
			c6.894,2.753,13.595,5.987,19.991,9.755c7.19,4.237,13.897,9.322,19.68,15.353c-0.689-0.732-1.379-1.465-2.068-2.198
			c8.536,9.104,14.238,20.124,15.939,32.543c1.467,10.71,0.494,21.938,0.494,32.72c0,9.854,0,19.707,0,29.561
			c0,10.338,0,20.676,0,31.014c0,4.205,11.695,3.822,13.146,3.798c9.46-0.159,18.975-2.052,28.078-4.491
			c9.104-2.439,18.291-5.558,26.563-10.149c3.467-1.925,9.486-5.026,9.486-9.862c0-13.276,0-26.553,0-39.829
			c0-12.654,0-25.308,0-37.962c0-8.62-0.058-16.836-2.612-25.138c-4.16-13.521-14.048-24.734-25.011-33.313
			c-24.327-19.033-57.181-27.034-87.008-32.278c-22.19-3.901-44.845-5.843-67.366-6.254c-0.717-0.013-1.433-0.024-2.149-0.024
			c1.221,4.553,2.44,9.106,3.66,13.66c44.462-22.231,88.925-44.462,133.387-66.693c12.538-6.269,25.075-12.538,37.613-18.807
			c3.452-1.727,9.52-5.157,9.486-9.862c-0.211-30.244-23.502-51.433-49.072-63.666C684.862,12.716,653.45,6.639,623.153,3.206
			C582.338-1.418,540.934,0.32,499.96,0.32c-13.597,0-27.194,0-40.791,0c-3.108,0-6.215,0-9.323,0
			c-18.687,0-37.025,4.319-54.729,9.956c-21.515,6.852-43.833,19.156-50.24,42.219c-1.532,5.513-2.551,11.103-2.551,16.819
			c0,57.481,0,114.963,0,172.443c0,17.916,0,35.832,0,53.748c0,13.309,1.6,28.149-1.435,41.169c0.23-0.979,0.461-1.958,0.692-2.938
			c-1.067,4.091-2.626,7.914-4.852,11.513c-0.98,1.584-2.146,3.045-3.364,4.451c-2.287,2.64,3.289-3.181,0.787-0.817
			c-0.834,0.788-1.733,1.506-2.637,2.213c-0.661,0.517-1.355,0.989-2.048,1.462c7.411-5.054,4.554-2.913,2.729-1.871
			c-5.219,2.978,9.087-4.006,2.494-1.242c13.007-5.452,9.2-3.458,6.209-2.41c-3.283,1.15-8.3,2.344,7.512-2.263
			c-7.282,2.122,12.586-2.638,5.482-1.255c-5.503,1.071,11.985-1.715,5.94-0.943c-0.771,0.099-1.546,0.171-2.322,0.232
			c13.701-1.091,9.094-0.486,6.149-0.486c-2.262,0-4.524,0-6.787,0c-28.896,0-57.791,0-86.686,0c-44.851,0-89.702,0-134.552,0
			c-8.826,0-17.651,0-26.476,0c-0.682,0-1.363,0-2.044,0c-0.517,0-1.03-0.01-1.549-0.016c8.573,0.095-0.048-0.171-2.301-0.576
			c-0.763-0.146-1.521-0.313-2.275-0.499c5,1.165,1.422,0.377,0.289-0.018c-1.93-0.673-3.771-1.571-5.562-2.548
			c-3.231-1.763-6.084-4.148-8.603-6.814c0.689,0.732,1.379,1.466,2.068,2.198c-7.871-8.744-11.583-20.656-11.583-32.303
			c0-12.846,0-25.69,0-38.535c0-10.466,0-20.933,0-31.398c0-8.759-0.575-17.644,1.435-26.238c-0.23,0.979-0.461,1.959-0.692,2.938
			c1.069-4.086,2.63-7.905,4.852-11.501c0.981-1.588,2.147-3.054,3.364-4.465c2.285-2.649-3.286,3.179-0.787,0.803
			c0.834-0.794,1.733-1.518,2.637-2.23c0.661-0.521,1.355-1,2.048-1.478c-7.36,5.076-4.552,2.904-2.729,1.849
			c0.69-0.399,1.402-0.762,2.112-1.123c-10.576,5.382-7.074,3.378-4.606,2.32c4.364-1.869-10.624,3.975-6.209,2.385
			c3.263-1.176,8.318-2.534-7.512,2.236c0.633-0.191,1.273-0.359,1.913-0.526c4.803-1.26-13.135,2.908-7.395,1.73
			c6.333-1.3-11.156,1.628-5.94,0.905c0.771-0.106,1.546-0.188,2.322-0.259c2.643-0.239-10.956,0.464-6.07,0.464
			c6.315,0,12.63,0,18.944,0c13.709,0,27.418,0,41.127,0c7.778,0,15.557,0,23.335,0c14.162,0,27.771-2.457,41.522-5.663
			c24.393-5.686,54.701-17.346,63.762-43.197c2.574-7.343,3.566-14.797,3.566-22.495c0-25.161,0-50.321,0-75.482
			c0-10.637-0.549-20.752-6.288-30.029c-4.135-6.684-10.515-12.168-17.508-15.664c-9.782-4.892-21.322-6.77-32.193-6.77
			c-42.719,0-85.438,0-128.158,0c-18.196,0-38.781,5.836-54.641,14.641c-2.315,1.285-10.64,5.559-9.487,9.862
			C1.487,29.157,10.812,28.621,13.473,28.621L13.473,28.621z"/>
	</g>
</g>
</svg>
