<?xml version="1.0" encoding="utf-8"?>
<!-- Generator: Adobe Illustrator 13.0.2, SVG Export Plug-In  -->
<!DOCTYPE svg PUBLIC "-//W3C//DTD SVG 1.1//EN" "http://www.w3.org/Graphics/SVG/1.1/DTD/svg11.dtd" [
	<!ENTITY ns_flows "http://ns.adobe.com/Flows/1.0/">
]>
<svg version="1.1"
	 xmlns="http://www.w3.org/2000/svg" xmlns:xlink="http://www.w3.org/1999/xlink" xmlns:a="http://ns.adobe.com/AdobeSVGViewerExtensions/3.0/"
	 x="0px" y="0px" width="1024px" height="1024px" viewBox="124.246 -667.742 1024 1024"
	 enable-background="new 124.246 -667.742 1024 1024" xml:space="preserve">
<defs>
</defs>
<g>
	<g>
		<path fill="none" d="M209.746,14.258h213.75c42.75,0,42.75,42.75,42.75,42.75v256.5c0,0,0,42.75,42,42.75
			c43.5,0,257.25,0,257.25,0s42.75,0,42.75-42.75s0-85.5,0-85.5s0-42.75-42.75-42.75s-85.5,0-85.5,0s-42.75,0-42.75-42.75
			s0-85.5,0-85.5s0-42.75,42.75-42.75s128.25,0,128.25,0"/>
		<path d="M184.256,28.408c48.511,0,97.021,0,145.532,0c18.769,0,37.538,0,56.307,0c3.84,0,7.679,0,11.519,0
			c0.595,0,1.188,0.009,1.785,0.016c-8.416-0.093-0.928,0.046,1.167,0.368c0.786,0.131,1.567,0.281,2.345,0.452
			c4.027,0.83-3.938-1.272-0.156-0.067c5.858,1.865,11.067,5.322,15.271,9.772c-0.689-0.732-1.379-1.465-2.068-2.197
			c9.923,11.024,11.651,24.682,11.651,38.716c0,23.302,0,46.603,0,69.904c0,56.401,0,112.803,0,169.204
			c0,13.747,1.113,26.946,10.118,38.341c12.647,16.003,32.03,17.491,51.126,17.491c12.095,0,24.19,0,36.285,0
			c65.399,0,130.798,0,196.198,0c6.093,0,12.185,0,18.277,0c18.418,0,37.565-4.665,54.788-10.701
			c12.879-4.515,26.918-10.235,37.01-19.767c8.102-7.652,12.294-15.574,14.539-26.473c1.23-5.972,0.933-12.139,0.933-18.195
			c0-8.298,0-16.597,0-24.895c0-12.854,0-25.706,0-38.559c0-7.797,0.461-15.546-1.116-23.222
			c-2.922-14.22-12.21-27.187-25.854-32.789c-14.114-5.795-29.716-4.701-44.631-4.701c-14.604,0-29.208,0-43.813,0
			c-8.183,0-16.365,0-24.548,0c-0.603,0-1.205,0.009-1.808-0.008c7.199,0.188,6.715,0.54,2.126-0.046
			c-1.832-0.233-3.646-0.584-5.445-0.994c-4.584-1.045,2.866,0.888,0.664,0.215c-1.393-0.425-2.757-0.936-4.107-1.478
			c-5.388-2.16-10.262-5.424-14.278-9.61c0.689,0.732,1.379,1.466,2.068,2.198c-7.933-8.699-10.258-19.713-10.258-31.203
			c0-18.688,0-37.376,0-56.064c0-12.347-1.396-25.525,1.384-37.72c-0.23,0.979-0.461,1.958-0.692,2.938
			c1.271-5.299,3.255-10.343,6.143-14.974c0.739-1.188,1.576-2.311,2.437-3.411c0.532-0.682,1.111-1.324,1.688-1.967
			c-3.832,4.259-1.771,1.8-0.742,0.861c1.827-1.666,7.893-5.333-0.244-0.298c2.179-1.349,6.563-3.23-3.886,1.744
			c4.824-2.297-10.183,3.69-5.035,1.896c-8.449,2.454-10.766,3.176-6.952,2.165c-2.691,0.635-5.383,1.27-8.074,1.904
			c-7.511,1.103-9.459,1.415-5.845,0.939c5.412-0.696-8.593,0.416-2.952,0.228c1.136-0.038,2.277-0.016,3.413-0.016
			c4.415,0,8.831,0,13.246,0c9.682,0,19.363,0,29.045,0c27.979,0,55.96,0,83.94,0c18.195,0,38.781-5.836,54.641-14.641
			c2.315-1.285,10.64-5.559,9.486-9.862c-1.161-4.334-10.484-3.798-13.146-3.798c-31.465,0-62.93,0-94.395,0
			c-9.919,0-19.839,0-29.759,0c-24.165,0-47.825,5.374-70.14,14.535c-12.159,4.992-23.957,12.319-31.696,23.168
			c-4.111,5.763-6.199,12.473-7.754,19.292c-1.689,7.406-1.384,14.647-1.384,22.203c0,12.378,0,24.756,0,37.134
			c0,14.581-1.329,29.855,0.533,44.332c2.101,16.332,14.178,29.257,29.507,34.391c9.904,3.316,19.591,4.246,29.958,4.246
			c19.33,0,38.66,0,57.99,0c6.488,0,12.976,0,19.463,0c1.315,0,2.63,0,3.945,0c5.215,0-6.172-0.495-1.172-0.096
			c2.432,0.195,4.835,0.642,7.208,1.195c-5.393-1.257,0.408,0.27,1.702,0.801c1.551,0.637,3.027,1.438,4.475,2.279
			c2.917,1.696,5.498,3.917,7.808,6.361c-0.689-0.732-1.379-1.465-2.068-2.197c7.909,8.788,11.651,20.766,11.651,32.472
			c0,12.812,0,25.623,0,38.435c0,10.481,0,20.963,0,31.444c0,8.799,0.577,17.726-1.436,26.359c0.23-0.979,0.461-1.958,0.692-2.938
			c-1.067,4.091-2.627,7.914-4.853,11.513c-0.98,1.584-2.146,3.045-3.364,4.451c-2.286,2.64,3.29-3.181,0.787-0.817
			c-0.835,0.788-1.733,1.506-2.637,2.213c-0.661,0.517-1.355,0.989-2.048,1.462c7.411-5.054,4.554-2.913,2.729-1.871
			c-5.219,2.978,9.087-4.006,2.494-1.242c13.007-5.452,9.2-3.458,6.209-2.41c-3.282,1.15-8.299,2.344,7.513-2.263
			c-7.282,2.122,12.586-2.638,5.482-1.255c-5.503,1.071,11.984-1.715,5.939-0.943c-0.771,0.099-1.547,0.171-2.322,0.232
			c13.715-1.092,9.104-0.486,6.166-0.486c-1.428,0-2.855,0-4.284,0c-24.095,0-48.19,0-72.285,0c-36.096,0-72.19,0-108.286,0
			c-15.292,0-30.583,0-45.875,0c-5.687,0-11.374,0-17.061,0c-2.116,0-4.233,0-6.349,0c-0.891,0-1.782,0-2.673,0
			c-1.83,0-5.126-0.223,2.092,0.196c-1.676-0.098-3.339-0.334-4.996-0.596c-0.779-0.134-1.554-0.288-2.324-0.462
			c-4.001-0.85,3.95,1.274,0.197,0.043c-1.969-0.646-3.851-1.529-5.682-2.493c-3.3-1.738-6.217-4.128-8.788-6.811
			c0.689,0.732,1.379,1.465,2.068,2.198c-10.102-11.072-11.833-24.962-11.833-39.136c0-23.302,0-46.603,0-69.904
			c0-56.401,0-112.803,0-169.204c0-13.611-1.107-26.6-9.963-37.927C478.883-2.502,451.546,0.107,428.145,0.107
			c-57.966,0-115.933,0-173.899,0c-6.336,0-12.672,0-19.009,0c-18.196,0-38.781,5.836-54.641,14.641
			c-2.315,1.285-10.64,5.559-9.487,9.862C172.27,28.944,181.594,28.408,184.256,28.408L184.256,28.408z"/>
	</g>
</g>
<g>
	<g>
		<path fill="none" d="M209.746,14.258c-42.75,0-42.75,42.75-42.75,42.75v256.5c0,0,0,42.75-42.75,42.75"/>
		<path d="M210.582,5.05c-20.843,0.229-39.484,9.838-49.248,28.524c-3.725,7.129-6.134,16.059-6.134,24.164
			c0,15.068,0,30.138,0,45.206c0,60.433,0,120.864,0,181.297c0,9.988,0.037,19.978,0,29.966c-0.008,2.097-0.284,4.204-0.604,6.272
			c-0.144,0.928-0.324,1.85-0.513,2.77c-0.084,0.4-0.173,0.801-0.267,1.2c-0.498,2.183,0.58-2.101-0.043,0.141
			c-0.718,2.585-1.678,5.094-2.793,7.53c-0.552,1.205-1.186,2.368-1.842,3.519c1.222-2.142-1.055,1.397-1.423,1.891
			c-0.862,1.154-1.827,2.228-2.815,3.274c1.795-1.9-0.328,0.191-0.636,0.458c-0.7,0.606-1.446,1.156-2.191,1.705
			c-1.079,0.736-1.033,0.722,0.138-0.045c-0.843,0.521-1.728,0.973-2.61,1.423c-0.613,0.302-1.235,0.588-1.864,0.855
			c-3.16,1.4,2.375-0.757-1.039,0.33c-0.759,0.242-5.468,1.257-3.705,0.986c-2.616,0.402-5.269,0.504-7.911,0.533
			c-5.376,0.059-12.109,4.077-12.632,9.892c-0.555,6.175,5.942,8.58,10.961,8.524c20.843-0.229,39.484-9.838,49.248-28.524
			c3.725-7.129,6.134-16.059,6.134-24.164c0-15.068,0-30.138,0-45.206c0-60.433,0-120.864,0-181.297c0-9.988-0.037-19.978,0-29.966
			c0.008-2.097,0.284-4.204,0.604-6.272c0.144-0.928,0.324-1.85,0.513-2.77c0.084-0.4,0.173-0.801,0.267-1.2
			c0.498-2.183-0.58,2.101,0.043-0.141c0.718-2.585,1.678-5.094,2.793-7.53c0.552-1.204,1.186-2.368,1.842-3.519
			c-1.222,2.142,1.055-1.397,1.423-1.891c0.862-1.154,1.827-2.228,2.815-3.274c-1.795,1.9,0.328-0.191,0.636-0.458
			c0.7-0.606,1.446-1.156,2.191-1.705c1.079-0.736,1.033-0.722-0.138,0.045c0.843-0.521,1.728-0.973,2.61-1.423
			c0.613-0.302,1.235-0.588,1.864-0.855c3.16-1.4-2.375,0.757,1.039-0.33c0.759-0.242,5.468-1.257,3.705-0.986
			c2.616-0.402,5.269-0.504,7.911-0.533c5.376-0.059,12.109-4.077,12.632-9.892C222.098,7.4,215.601,4.994,210.582,5.05
			L210.582,5.05z"/>
	</g>
</g>
<g>
	<g>
		<path fill="none" d="M38.746,14.258c0,0,42.75,0,42.75,42.75s0,256.5,0,256.5s0,42.75,42.75,42.75"/>
		<path d="M13.256,28.408c0.24,0.001,0.48,0.011,0.72,0.02C2.63,27.99,7.571,28.036,10.19,28.305
			c2.701,0.277,5.372,0.795,8.003,1.458c2.863,0.722-4.805-1.406-1.909-0.521c0.917,0.279,1.819,0.603,2.718,0.933
			c1.927,0.706,3.789,1.575,5.606,2.524c3.758,1.964,7.13,4.576,10.061,7.631c-0.689-0.732-1.378-1.466-2.068-2.198
			c10.232,11.221,10.257,25.443,10.257,39.708c0,12.94,0,25.882,0,38.822c0,35.479,0,70.957,0,106.436c0,28.887,0,57.773,0,86.66
			c0,13.66-0.264,26.307,7.091,38.64c10.443,17.51,29.688,21.801,48.806,22.012c9.343,0.104,19.124-2.092,28.079-4.491
			c9.104-2.439,18.29-5.558,26.562-10.149c2.315-1.285,10.64-5.559,9.487-9.862c-1.167-4.354-10.477-3.769-13.147-3.798
			c-5.218-0.058,6.175,0.495,1.172,0.096c-1.652-0.133-3.29-0.4-4.919-0.693c-0.768-0.147-1.53-0.314-2.289-0.502
			c2.681,0.789,3.109,0.899,1.286,0.331c-1.344-0.428-2.645-0.979-3.933-1.55c-4.312-1.91-8.113-4.81-11.337-8.223
			c0.689,0.732,1.379,1.465,2.068,2.197c-10.394-11.548-11.651-25.681-11.651-40.269c0-27.152,0-54.305,0-81.457
			c0-35.838,0-71.675,0-107.513c0-13.906,0-27.812,0-41.718c0-13.067,1.194-26.714-5.288-38.599
			C105.051,6.251,83.354,0.178,64.236,0.107c-9.377-0.035-19.083,2.081-28.079,4.491c-9.104,2.439-18.29,5.558-26.562,10.149
			c-2.315,1.285-10.64,5.559-9.487,9.862C1.272,28.95,10.591,28.398,13.256,28.408L13.256,28.408z"/>
	</g>
</g>
</svg>
