<?xml version="1.0" encoding="utf-8"?>
<!-- Generator: Adobe Illustrator 13.0.2, SVG Export Plug-In  -->
<!DOCTYPE svg PUBLIC "-//W3C//DTD SVG 1.1//EN" "http://www.w3.org/Graphics/SVG/1.1/DTD/svg11.dtd" [
	<!ENTITY ns_flows "http://ns.adobe.com/Flows/1.0/">
]>
<svg version="1.1"
	 xmlns="http://www.w3.org/2000/svg" xmlns:xlink="http://www.w3.org/1999/xlink" xmlns:a="http://ns.adobe.com/AdobeSVGViewerExtensions/3.0/"
	 x="0px" y="0px" width="1024px" height="1024px" viewBox="38.963 -667.85 1024 1024"
	 enable-background="new 38.963 -667.85 1024 1024" xml:space="preserve">
<defs>
</defs>
<g>
	<g>
		<path fill="none" d="M38.963,14.15h128.25c0,0,42.75,0,42.75,42.75s0,85.5,0,85.5s0,42.75-42.75,42.75s-85.5,0-85.5,0
			s-42.75,0.5-42.75,43s0,85.5,0,85.5s0,42.5,42.5,42.5h128.5h85.5"/>
		<path d="M13.473,28.301c22.537,0,45.075,0,67.612,0c20.402,0,40.968-0.767,61.358,0.02c-12.095-0.466-4.502-0.266-1.506,0.17
			c1.099,0.16,2.19,0.368,3.278,0.591c0.609,0.126,1.213,0.271,1.818,0.416c3.921,0.94-4.105-1.227-1.281-0.363
			c6.95,2.122,13.345,5.833,18.385,11.088c-0.689-0.732-1.378-1.466-2.068-2.198c7.933,8.699,10.257,19.713,10.257,31.203
			c0,18.688,0,37.376,0,56.064c0,12.347,1.397,25.525-1.383,37.72c0.23-0.979,0.461-1.958,0.692-2.938
			c-1.467,6.116-3.886,11.903-7.549,17.037c-0.934,1.31-5.216,5.815-0.667,1.229c-1.287,1.297-2.717,2.44-4.186,3.522
			c-3.364,2.479,5.951-3.646,2.275-1.509c-4.159,2.419,8.271-3.805,3.787-1.818c2.334-0.891,4.668-1.78,7.002-2.671
			c-3.677,1.266-1.333,0.567,7.032-2.096c-3.781,0.977-1.457,0.438,6.972-1.617c7.511-1.103,9.459-1.415,5.845-0.939
			c-5.412,0.696,8.592-0.416,2.952-0.228c-1.777,0.06-3.562,0.016-5.339,0.016c-3.92,0-7.84,0-11.76,0c-8.096,0-16.192,0-24.288,0
			c-11.873,0-23.745,0-35.617,0c-16.282,0-31.688,2.044-47.621,5.842c-14.135,3.37-28.958,8.585-41.447,16.136
			c-9.116,5.512-17.717,12.305-22.652,21.977c-5.577,10.931-5.048,23.412-5.048,35.297c0,14.895,0,29.788,0,44.683
			c0,10.741-0.869,21.833,0.231,32.549c1.322,12.869,7.277,24.537,17.326,32.793c11.733,9.641,28.259,10.025,42.719,10.025
			c44.964,0,89.928,0,134.892,0c24.827,0,49.653,0,74.48,0c18.196,0,38.781-5.836,54.641-14.641
			c2.315-1.285,10.64-5.559,9.487-9.862c-1.161-4.334-10.485-3.798-13.147-3.798c-41.625,0-83.25,0-124.875,0
			c-23.568,0-47.137,0-70.705,0c-5.925,0-11.85,0-17.775,0c-0.677,0-1.352-0.008-2.03-0.016c8.435,0.093,0.979-0.041-1.122-0.364
			c-0.781-0.13-1.558-0.279-2.331-0.449c-4.012-0.826,3.949,1.274,0.181,0.074c-5.824-1.854-11.002-5.291-15.181-9.716
			c0.689,0.732,1.379,1.466,2.068,2.198c-7.871-8.744-11.583-20.656-11.583-32.303c0-12.846,0-25.69,0-38.535
			c0-10.466,0-20.933,0-31.398c0-8.759-0.575-17.644,1.435-26.238c-0.23,0.979-0.461,1.959-0.692,2.938
			c1.069-4.086,2.63-7.905,4.852-11.501c0.981-1.588,2.147-3.054,3.364-4.465c2.285-2.649-3.286,3.179-0.787,0.803
			c0.834-0.794,1.733-1.518,2.637-2.23c0.661-0.521,1.355-1,2.048-1.478c-7.36,5.076-4.552,2.904-2.729,1.849
			c0.69-0.399,1.402-0.762,2.112-1.123c-10.576,5.382-7.074,3.378-4.606,2.32c4.364-1.869-10.624,3.975-6.209,2.385
			c3.263-1.176,8.318-2.534-7.512,2.236c0.633-0.191,1.273-0.359,1.913-0.526c4.803-1.26-13.135,2.908-7.395,1.73
			c6.333-1.3-11.156,1.628-5.94,0.905c0.771-0.106,1.546-0.188,2.322-0.259c2.643-0.239-10.956,0.464-6.07,0.464
			c6.315,0,12.63,0,18.944,0c13.709,0,27.418,0,41.127,0c7.778,0,15.557,0,23.335,0c14.162,0,27.771-2.457,41.522-5.663
			c24.393-5.686,54.701-17.346,63.762-43.197c2.574-7.343,3.566-14.797,3.566-22.495c0-25.161,0-50.321,0-75.482
			c0-10.637-0.549-20.752-6.288-30.029c-4.135-6.684-10.515-12.168-17.508-15.664C215.022,1.878,203.482,0,192.612,0
			c-42.719,0-85.438,0-128.158,0C46.258,0,25.672,5.836,9.813,14.641c-2.315,1.285-10.64,5.559-9.487,9.862
			C1.487,28.837,10.812,28.301,13.473,28.301L13.473,28.301z"/>
	</g>
</g>
<g>
	<g>
		<path fill="none" d="M295.463,356.15c0,0,42.75,0,42.75-42.75s0-128.25,0-128.25V56.9c0,0,0-42.75,42.75-42.75"/>
		<path d="M294.628,365.358c9.932-0.036,20.654-3.205,29.297-7.925c18.196-9.936,26.084-27.592,26.084-47.768
			c0-38.609,0-77.22,0-115.83c0-44.712,0-89.424,0-134.136c0-1.399-0.035-2.804,0.02-4.204c0.059-1.528,0.228-3.052,0.434-4.566
			c0.146-1.068,0.337-2.13,0.543-3.188c0.116-0.597,0.251-1.189,0.386-1.782c0.349-1.529-0.533,1.837,0.234-0.797
			c0.907-3.114,2.159-6.115,3.66-8.987c0.186-0.355,1.589-2.631,0.294-0.556c0.44-0.706,0.924-1.385,1.408-2.063
			c0.494-0.693,1.034-1.354,1.573-2.012c0.324-0.396,2.944-3.031,1.033-1.198c1.332-1.277,2.806-2.393,4.317-3.445
			c-2.27,1.581,0.422-0.174,0.803-0.381c1.202-0.656,2.464-1.192,3.729-1.711c-2.628,1.079,0.801-0.144,1.145-0.243
			c1.116-0.322,2.255-0.556,3.392-0.79c-2.372,0.489,1.684-0.17,1.755-0.177c1.791-0.187,3.595-0.221,5.394-0.241
			c5.375-0.059,12.108-4.077,12.631-9.892c0.555-6.174-5.942-8.58-10.961-8.524c-20.843,0.229-39.483,9.838-49.248,28.524
			c-3.734,7.146-6.134,16.085-6.134,24.209c0,23.501,0,47.002,0,70.503c0,54.881,0,109.763,0,164.644
			c0,10.021,0.807,20.461-0.72,30.388c-0.316,2.052-0.666,3.249-1.392,5.336c-0.346,0.99-0.77,1.951-1.194,2.91
			c-0.152,0.344-1.995,3.67-1.028,2.107c-0.98,1.584-2.146,3.045-3.364,4.451c-1.952,2.253,1.619-1.463-0.508,0.546
			c-0.834,0.788-1.733,1.506-2.637,2.213c-0.661,0.517-1.355,0.989-2.048,1.461c2.566-1.749,0.286-0.224-0.255,0.085
			c-1.582,0.902-3.243,1.66-4.921,2.364c-2.504,1.05,2.743-0.978,0.239-0.1c-0.664,0.232-1.338,0.438-2.011,0.644
			c-1.443,0.44-2.912,0.794-4.387,1.113c-0.566,0.122-1.135,0.228-1.705,0.332c-2.201,0.405,3.201-0.49,1.1-0.185
			c-0.969,0.141-1.944,0.244-2.919,0.329c-0.786,0.068-1.579,0.122-2.368,0.125c-5.373,0.02-12.111,4.105-12.631,9.892
			C283.109,363.035,289.612,365.377,294.628,365.358L294.628,365.358z"/>
	</g>
</g>
<g>
	<g>
		<path fill="none" d="M380.963,14.15c0,0,42.75,0,42.75,42.75s0,299.25,0,299.25"/>
		<path d="M355.473,28.301c0.24,0.001,0.48,0.011,0.72,0.02c-11.345-0.438-6.405-0.392-3.785-0.123
			c2.701,0.277,5.372,0.795,8.003,1.458c2.863,0.722-4.805-1.406-1.909-0.521c0.917,0.279,1.819,0.603,2.718,0.933
			c1.927,0.706,3.789,1.575,5.606,2.524c3.758,1.964,7.13,4.576,10.061,7.631c-0.689-0.732-1.378-1.466-2.068-2.198
			c9.813,10.761,10.257,24.313,10.257,38.057c0,11.228,0,22.456,0,33.684c0,33.25,0,66.501,0,99.751c0,51.998,0,103.996,0,155.993
			c0,0.332,0,0.664,0,0.995c0,4.205,11.695,3.822,13.147,3.798c9.459-0.159,18.975-2.052,28.078-4.491
			c9.104-2.439,18.291-5.558,26.563-10.149c3.467-1.925,9.486-5.026,9.486-9.862c0-47.245,0-94.49,0-141.734
			c0-34.335,0-68.67,0-103.005c0-12.635,0-25.271,0-37.905c0-11.481,1.036-23.537-3.102-34.452
			C451.225,7.533,427.125,0.076,406.454,0c-9.377-0.035-19.083,2.081-28.079,4.491c-9.104,2.439-18.29,5.558-26.562,10.149
			c-2.315,1.285-10.64,5.559-9.487,9.862C343.489,28.843,352.809,28.291,355.473,28.301L355.473,28.301z"/>
	</g>
</g>
</svg>
