<?xml version="1.0" encoding="utf-8"?>
<!-- Generator: Adobe Illustrator 13.0.2, SVG Export Plug-In  -->
<!DOCTYPE svg PUBLIC "-//W3C//DTD SVG 1.1//EN" "http://www.w3.org/Graphics/SVG/1.1/DTD/svg11.dtd" [
	<!ENTITY ns_flows "http://ns.adobe.com/Flows/1.0/">
]>
<svg version="1.1"
	 xmlns="http://www.w3.org/2000/svg" xmlns:xlink="http://www.w3.org/1999/xlink" xmlns:a="http://ns.adobe.com/AdobeSVGViewerExtensions/3.0/"
	 x="0px" y="0px" width="1024px" height="1024px" viewBox="81.496 -667.85 1024 1024"
	 enable-background="new 81.496 -667.85 1024 1024" xml:space="preserve">
<defs>
</defs>
<g>
	<g>
		<path fill="none" d="M162.746,354.15v-169V56.9c0,0,4.25-42.75-42.75-42.75c-12.949,0-26.378,0-38.5,0c-23.92,0-42.75,0-42.75,0"
			/>
		<path d="M201.383,343.798c0-49.777,0-99.556,0-149.333c0-42.935,0-85.869,0-128.805c0-14.538,1.971-30.654-5.453-43.815
			C184.216,1.078,159.218,0,138.047,0c-24.476,0-48.951,0-73.427,0c-0.128,0-0.256,0-0.384,0C46.041,0,25.455,5.836,9.596,14.641
			c-2.315,1.285-10.64,5.559-9.487,9.862c1.161,4.334,10.485,3.798,13.147,3.798c19.024,0,38.049,0,57.074,0
			c6.822,0,13.644,0,20.465,0c1.947,0,11.635,0.496,2.758-0.119c2.513,0.174,5.003,0.575,7.47,1.078
			c0.754,0.163,1.504,0.344,2.249,0.542c-5.054-1.282-1.46-0.334-0.358,0.066c1.879,0.682,3.674,1.572,5.419,2.539
			c2.846,1.576,5.386,3.652,7.649,5.976c-0.689-0.732-1.378-1.466-2.068-2.198c11.356,12.261,10.194,28.036,10.194,43.402
			c0,29.93,0,59.859,0,89.79c0,42.497,0,84.994,0,127.491c0,22.545,0,45.09,0,67.635c0,4.205,11.695,3.822,13.147,3.798
			c9.459-0.159,18.975-2.052,28.079-4.491c9.104-2.439,18.29-5.558,26.562-10.149C195.363,351.735,201.383,348.634,201.383,343.798
			L201.383,343.798z"/>
	</g>
</g>
</svg>
