<?xml version="1.0" encoding="utf-8"?>
<!-- Generator: Adobe Illustrator 13.0.2, SVG Export Plug-In  -->
<!DOCTYPE svg PUBLIC "-//W3C//DTD SVG 1.1//EN" "http://www.w3.org/Graphics/SVG/1.1/DTD/svg11.dtd" [
	<!ENTITY ns_flows "http://ns.adobe.com/Flows/1.0/">
]>
<svg version="1.1"
	 xmlns="http://www.w3.org/2000/svg" xmlns:xlink="http://www.w3.org/1999/xlink" xmlns:a="http://ns.adobe.com/AdobeSVGViewerExtensions/3.0/"
	 x="0px" y="0px" width="1024px" height="1024px" viewBox="81.496 -667.56 1024 1024"
	 enable-background="new 81.496 -667.56 1024 1024" xml:space="preserve">
<defs>
</defs>
<g>
	<g>
		<path fill="none" d="M162.746,699.44v-345v-169V57.19c0,0,4.25-42.75-42.75-42.75c-12.949,0-26.378,0-38.5,0
			c-23.92,0-42.75,0-42.75,0"/>
		<path d="M201.383,689.088c0-38.192,0-76.385,0-114.577c0-61.623,0-123.247,0-184.871c0-29.007,0-58.014,0-87.021
			c0-44.948,0-89.897,0-134.847c0-29.03,0-58.062,0-87.093c0-10.546,0-21.092,0-31.639c0-5.107,0.063-10.048-0.995-15.107
			C195.96,12.747,176.701,2.161,156.31,0.749C136.766-0.605,116.935,0.29,97.351,0.29c-11.038,0-22.076,0-33.115,0
			c-18.196,0-38.781,5.836-54.641,14.641c-2.315,1.285-10.64,5.559-9.487,9.862c1.161,4.334,10.485,3.798,13.147,3.798
			c19.024,0,38.049,0,57.074,0c6.822,0,13.644,0,20.465,0c1.947,0,11.635,0.496,2.758-0.119c2.513,0.174,5.003,0.575,7.47,1.078
			c0.754,0.163,1.504,0.344,2.249,0.542c-5.054-1.282-1.46-0.334-0.358,0.066c1.879,0.682,3.674,1.572,5.419,2.539
			c2.846,1.576,5.386,3.652,7.649,5.976c-0.689-0.732-1.378-1.466-2.068-2.198c11.356,12.261,10.194,28.036,10.194,43.402
			c0,29.93,0,59.859,0,89.79c0,42.497,0,84.994,0,127.491c0,31.754,0,63.507,0,95.26c0,58.565,0,117.132,0,175.697
			c0,46.254,0,92.509,0,138.763c0,0.972,0,1.943,0,2.915c0,4.205,11.695,3.822,13.147,3.798c9.459-0.159,18.975-2.052,28.079-4.491
			c9.104-2.439,18.29-5.558,26.562-10.149C195.363,697.025,201.383,693.924,201.383,689.088L201.383,689.088z"/>
	</g>
</g>
</svg>
