<?xml version="1.0" encoding="utf-8"?>
<!-- Generator: Adobe Illustrator 13.0.2, SVG Export Plug-In  -->
<!DOCTYPE svg PUBLIC "-//W3C//DTD SVG 1.1//EN" "http://www.w3.org/Graphics/SVG/1.1/DTD/svg11.dtd" [
	<!ENTITY ns_flows "http://ns.adobe.com/Flows/1.0/">
]>
<svg version="1.1"
	 xmlns="http://www.w3.org/2000/svg" xmlns:xlink="http://www.w3.org/1999/xlink" xmlns:a="http://ns.adobe.com/AdobeSVGViewerExtensions/3.0/"
	 x="0px" y="0px" width="1024px" height="1024px" viewBox="124.246 -667.819 1024 1024"
	 enable-background="new 124.246 -667.819 1024 1024" xml:space="preserve">
<defs>
</defs>
<g>
	<g>
		<path fill="none" d="M466.246,356.181V56.931c0,0,0-42.75-42.75-42.75h-213.75"/>
		<path d="M504.883,345.828c0-41.743,0-83.486,0-125.229c0-54.702,0-109.404,0-164.106c0-12.461-0.611-24.056-7.525-35.146
			C482.979-1.716,455.035,0.03,431.161,0.03c-57.94,0-115.881,0-173.822,0c-7.368,0-14.735,0-22.103,0
			c-18.196,0-38.781,5.836-54.641,14.641c-2.315,1.285-10.64,5.559-9.487,9.862c1.161,4.334,10.485,3.798,13.147,3.798
			c48.511,0,97.021,0,145.532,0c18.769,0,37.538,0,56.307,0c3.84,0,7.679,0,11.519,0c0.595,0,1.188,0.009,1.785,0.016
			c-8.416-0.093-0.928,0.046,1.167,0.368c0.786,0.131,1.567,0.281,2.345,0.452c4.027,0.83-3.938-1.272-0.156-0.067
			c5.858,1.865,11.067,5.322,15.271,9.772c-0.689-0.732-1.379-1.465-2.068-2.197c9.587,10.651,11.651,23.992,11.651,37.639
			c0,20.989,0,41.979,0,62.968c0,61.88,0,123.76,0,185.641c0,14.537,0,29.074,0,43.611c0,4.205,11.695,3.822,13.147,3.798
			c9.459-0.159,18.975-2.052,28.079-4.491c9.104-2.439,18.29-5.558,26.562-10.149C498.863,353.766,504.883,350.664,504.883,345.828
			L504.883,345.828z"/>
	</g>
</g>
<g>
	<g>
		<path fill="none" d="M209.746,14.181c-42.75,0-42.75,42.75-42.75,42.75v256.5c0,0,0,42.75-42.75,42.75"/>
		<path d="M210.582,4.973c-20.843,0.229-39.484,9.838-49.248,28.524c-3.725,7.129-6.134,16.059-6.134,24.164
			c0,15.068,0,30.138,0,45.206c0,60.433,0,120.864,0,181.297c0,9.988,0.037,19.978,0,29.966c-0.008,2.097-0.284,4.204-0.604,6.272
			c-0.144,0.928-0.324,1.85-0.513,2.77c-0.084,0.4-0.173,0.801-0.267,1.2c-0.498,2.183,0.58-2.101-0.043,0.141
			c-0.718,2.585-1.678,5.094-2.793,7.53c-0.552,1.205-1.186,2.368-1.842,3.519c1.222-2.142-1.055,1.397-1.423,1.891
			c-0.862,1.154-1.827,2.228-2.815,3.274c1.795-1.9-0.328,0.191-0.636,0.458c-0.7,0.606-1.446,1.156-2.191,1.705
			c-1.079,0.736-1.033,0.722,0.138-0.045c-0.843,0.521-1.728,0.973-2.61,1.423c-0.613,0.302-1.235,0.588-1.864,0.855
			c-3.16,1.4,2.375-0.757-1.039,0.33c-0.759,0.242-5.468,1.257-3.705,0.986c-2.616,0.402-5.269,0.504-7.911,0.533
			c-5.376,0.059-12.109,4.077-12.632,9.892c-0.555,6.175,5.942,8.58,10.961,8.524c20.843-0.229,39.484-9.838,49.248-28.524
			c3.725-7.129,6.134-16.059,6.134-24.164c0-15.068,0-30.138,0-45.206c0-60.433,0-120.864,0-181.297c0-9.988-0.037-19.978,0-29.966
			c0.008-2.097,0.284-4.204,0.604-6.272c0.144-0.928,0.324-1.85,0.513-2.77c0.084-0.4,0.173-0.801,0.267-1.2
			c0.498-2.183-0.58,2.101,0.043-0.141c0.718-2.585,1.678-5.094,2.793-7.53c0.552-1.204,1.186-2.368,1.842-3.519
			c-1.222,2.142,1.055-1.397,1.423-1.891c0.862-1.154,1.827-2.228,2.815-3.274c-1.795,1.9,0.328-0.191,0.636-0.458
			c0.7-0.606,1.446-1.156,2.191-1.705c1.079-0.736,1.033-0.722-0.138,0.045c0.843-0.521,1.728-0.973,2.61-1.423
			c0.613-0.302,1.235-0.588,1.864-0.855c3.16-1.4-2.375,0.757,1.039-0.33c0.759-0.242,5.468-1.257,3.705-0.986
			c2.616-0.402,5.269-0.504,7.911-0.533c5.376-0.059,12.109-4.077,12.632-9.892C222.098,7.323,215.601,4.917,210.582,4.973
			L210.582,4.973z"/>
	</g>
</g>
<g>
	<g>
		<path fill="none" d="M38.746,14.181c0,0,42.75,0,42.75,42.75s0,256.5,0,256.5s0,42.75,42.75,42.75"/>
		<path d="M13.256,28.331c0.24,0.001,0.48,0.011,0.72,0.02c-11.345-0.438-6.405-0.392-3.785-0.123
			c2.701,0.277,5.372,0.795,8.003,1.458c2.863,0.722-4.805-1.406-1.909-0.521c0.917,0.279,1.819,0.603,2.718,0.933
			c1.927,0.706,3.789,1.575,5.606,2.524c3.758,1.964,7.13,4.576,10.061,7.631c-0.689-0.732-1.378-1.466-2.068-2.198
			c10.232,11.221,10.257,25.443,10.257,39.708c0,12.94,0,25.882,0,38.822c0,35.479,0,70.957,0,106.436c0,28.887,0,57.773,0,86.66
			c0,13.66-0.264,26.307,7.091,38.64c10.443,17.51,29.688,21.801,48.806,22.012c9.343,0.104,19.124-2.092,28.079-4.491
			c9.104-2.439,18.29-5.558,26.562-10.149c2.315-1.285,10.64-5.559,9.487-9.862c-1.167-4.354-10.477-3.769-13.147-3.798
			c-5.218-0.058,6.175,0.495,1.172,0.096c-1.652-0.133-3.29-0.4-4.919-0.693c-0.768-0.147-1.53-0.314-2.289-0.502
			c2.681,0.789,3.109,0.899,1.286,0.331c-1.344-0.428-2.645-0.979-3.933-1.55c-4.312-1.91-8.113-4.81-11.337-8.223
			c0.689,0.732,1.379,1.465,2.068,2.197c-10.394-11.548-11.651-25.681-11.651-40.269c0-27.152,0-54.305,0-81.457
			c0-35.838,0-71.675,0-107.513c0-13.906,0-27.812,0-41.718c0-13.067,1.194-26.714-5.288-38.599
			C105.051,6.174,83.354,0.101,64.236,0.03c-9.377-0.035-19.083,2.081-28.079,4.491c-9.104,2.439-18.29,5.558-26.562,10.149
			c-2.315,1.285-10.64,5.559-9.487,9.862C1.272,28.873,10.591,28.321,13.256,28.331L13.256,28.331z"/>
	</g>
</g>
</svg>
