<?xml version="1.0" encoding="utf-8"?>
<!-- Generator: Adobe Illustrator 13.0.2, SVG Export Plug-In  -->
<!DOCTYPE svg PUBLIC "-//W3C//DTD SVG 1.1//EN" "http://www.w3.org/Graphics/SVG/1.1/DTD/svg11.dtd" [
	<!ENTITY ns_flows "http://ns.adobe.com/Flows/1.0/">
]>
<svg version="1.1"
	 xmlns="http://www.w3.org/2000/svg" xmlns:xlink="http://www.w3.org/1999/xlink" xmlns:a="http://ns.adobe.com/AdobeSVGViewerExtensions/3.0/"
	 x="0px" y="0px" width="1024px" height="1024px" viewBox="124.246 -667.735 1024 1024"
	 enable-background="new 124.246 -667.735 1024 1024" xml:space="preserve">
<defs>
</defs>
<g>
	<g>
		<path fill="none" d="M209.746,14.265c-42.75,0-42.75,42.75-42.75,42.75v256.5c0,0,0,42.75-42.75,42.75"/>
		<path d="M210.582,5.057c-20.843,0.229-39.484,9.838-49.248,28.524c-3.725,7.129-6.134,16.059-6.134,24.164
			c0,15.068,0,30.138,0,45.206c0,60.433,0,120.864,0,181.297c0,9.988,0.037,19.978,0,29.966c-0.008,2.097-0.284,4.204-0.604,6.272
			c-0.144,0.928-0.324,1.85-0.513,2.77c-0.084,0.4-0.173,0.801-0.267,1.2c-0.498,2.183,0.58-2.101-0.043,0.141
			c-0.718,2.585-1.678,5.094-2.793,7.53c-0.552,1.205-1.186,2.368-1.842,3.519c1.222-2.142-1.055,1.397-1.423,1.891
			c-0.862,1.154-1.827,2.228-2.815,3.274c1.795-1.9-0.328,0.191-0.636,0.458c-0.7,0.606-1.446,1.156-2.191,1.705
			c-1.079,0.736-1.033,0.722,0.138-0.045c-0.843,0.521-1.728,0.973-2.61,1.423c-0.613,0.302-1.235,0.588-1.864,0.855
			c-3.16,1.4,2.375-0.757-1.039,0.33c-0.759,0.242-5.468,1.257-3.705,0.986c-2.616,0.402-5.269,0.504-7.911,0.533
			c-5.376,0.059-12.109,4.077-12.632,9.892c-0.555,6.175,5.942,8.58,10.961,8.524c20.843-0.229,39.484-9.838,49.248-28.524
			c3.725-7.129,6.134-16.059,6.134-24.164c0-15.068,0-30.138,0-45.206c0-60.433,0-120.864,0-181.297c0-9.988-0.037-19.978,0-29.966
			c0.008-2.097,0.284-4.204,0.604-6.272c0.144-0.928,0.324-1.85,0.513-2.77c0.084-0.4,0.173-0.801,0.267-1.2
			c0.498-2.183-0.58,2.101,0.043-0.141c0.718-2.585,1.678-5.094,2.793-7.53c0.552-1.204,1.186-2.368,1.842-3.519
			c-1.222,2.142,1.055-1.397,1.423-1.891c0.862-1.154,1.827-2.228,2.815-3.274c-1.795,1.9,0.328-0.191,0.636-0.458
			c0.7-0.606,1.446-1.156,2.191-1.705c1.079-0.736,1.033-0.722-0.138,0.045c0.843-0.521,1.728-0.973,2.61-1.423
			c0.613-0.302,1.235-0.588,1.864-0.855c3.16-1.4-2.375,0.757,1.039-0.33c0.759-0.242,5.468-1.257,3.705-0.986
			c2.616-0.402,5.269-0.504,7.911-0.533c5.376-0.059,12.109-4.077,12.632-9.892C222.098,7.407,215.601,5.001,210.582,5.057
			L210.582,5.057z"/>
	</g>
</g>
<g>
	<g>
		<path fill="none" d="M38.746,14.265c0,0,42.75,0,42.75,42.75s0,256.5,0,256.5s0,42.75,42.75,42.75"/>
		<path d="M13.256,28.415c0.24,0.001,0.48,0.011,0.72,0.02c-11.345-0.438-6.405-0.392-3.785-0.123
			c2.701,0.277,5.372,0.795,8.003,1.458c2.863,0.722-4.805-1.406-1.909-0.521c0.917,0.279,1.819,0.603,2.718,0.933
			c1.927,0.706,3.789,1.575,5.606,2.524c3.758,1.964,7.13,4.576,10.061,7.631c-0.689-0.732-1.378-1.466-2.068-2.198
			c10.232,11.221,10.257,25.443,10.257,39.708c0,12.94,0,25.882,0,38.822c0,35.479,0,70.957,0,106.436c0,28.887,0,57.773,0,86.66
			c0,13.66-0.264,26.307,7.091,38.64c10.443,17.51,29.688,21.801,48.806,22.012c9.343,0.104,19.124-2.092,28.079-4.491
			c9.104-2.439,18.29-5.558,26.562-10.149c2.315-1.285,10.64-5.559,9.487-9.862c-1.167-4.354-10.477-3.769-13.147-3.798
			c-5.218-0.058,6.175,0.495,1.172,0.096c-1.652-0.133-3.29-0.4-4.919-0.693c-0.768-0.147-1.53-0.314-2.289-0.502
			c2.681,0.789,3.109,0.899,1.286,0.331c-1.344-0.428-2.645-0.979-3.933-1.55c-4.312-1.91-8.113-4.81-11.337-8.223
			c0.689,0.732,1.379,1.465,2.068,2.197c-10.394-11.548-11.651-25.681-11.651-40.269c0-27.152,0-54.305,0-81.457
			c0-35.838,0-71.675,0-107.513c0-13.906,0-27.812,0-41.718c0-13.067,1.194-26.714-5.288-38.599
			C105.051,6.258,83.354,0.185,64.236,0.114c-9.377-0.035-19.083,2.081-28.079,4.491c-9.104,2.439-18.29,5.558-26.562,10.149
			c-2.315,1.285-10.64,5.559-9.487,9.862C1.272,28.957,10.591,28.405,13.256,28.415L13.256,28.415z"/>
	</g>
</g>
<g>
	<g>
		<path fill="none" d="M209.746,14.265h85.5c0,0,171,0,171,171s-171,171-171,171"/>
		<path d="M184.256,28.415c24.827,0,49.653,0,74.479,0c4.221,0,8.451-0.093,12.671,0.033c0.778,0.023,1.555,0.058,2.332,0.096
			c-11.752-0.578-5.464-0.298-2.69-0.094c3.226,0.237,6.445,0.569,9.656,0.963c7.766,0.953,15.476,2.347,23.099,4.104
			c2.308,0.531,4.604,1.109,6.893,1.714c4.604,1.217-2.732-0.79-0.628-0.192c1.324,0.376,2.644,0.771,3.961,1.173
			c5.077,1.548,10.086,3.312,15.028,5.248c22.292,8.735,42.905,21.783,59.395,39.229c-0.689-0.732-1.379-1.465-2.068-2.197
			c40.432,43.319,48.929,109.279,35.997,165.404c0.23-0.979,0.461-1.959,0.692-2.938c-4.062,17.117-10.601,33.504-20.047,48.374
			c-4.164,6.555-8.932,12.715-14.119,18.489c-1.015,1.131-5.636,5.898-1.035,1.211c-1.239,1.263-2.514,2.491-3.799,3.707
			c-2.733,2.586-5.589,5.041-8.512,7.409c-2.636,2.137-5.362,4.161-8.133,6.118c-1.363,0.963-2.75,1.893-4.142,2.812
			c8.619-5.687,2.043-1.343-0.062-0.072c-2.766,1.668-5.592,3.236-8.448,4.745c-1.401,0.741-2.818,1.453-4.239,2.155
			c11.958-5.913,4.633-2.244,1.768-0.947c-2.773,1.256-5.584,2.427-8.415,3.548c-4.407,1.747,10.61-4.051,6.19-2.375
			c-0.689,0.261-1.381,0.514-2.073,0.768c-1.589,0.582-3.189,1.136-4.792,1.679c-1.344,0.454-2.695,0.889-4.049,1.315
			c-6.252,1.975,12.867-3.83,5.538-1.698c-2.763,0.804-5.546,1.54-8.339,2.233c-0.621,0.154-1.242,0.303-1.864,0.452
			c-4.823,1.154,13.158-3.017,7.313-1.704c-1.379,0.31-2.762,0.601-4.146,0.884c-2.764,0.566-5.54,1.07-8.323,1.532
			c-5.417,0.899,12.437-1.898,5.404-0.864c-1.116,0.164-2.234,0.316-3.353,0.463c-2.133,0.28-4.271,0.522-6.412,0.736
			c-1.641,0.164-3.285,0.304-4.929,0.424c13.636-1.001,8.919-0.611,5.912-0.433c-0.639,0.038-1.279,0.07-1.918,0.1
			c-1.103,0.051-2.207,0.096-3.311,0.097c-18.204,0.017-38.771,5.831-54.641,14.641c-2.315,1.285-10.64,5.559-9.487,9.862
			c1.161,4.332,10.486,3.801,13.147,3.798c16.108-0.015,32.595-2.551,48.375-5.449c34.778-6.386,69.8-17.723,100.584-35.294
			c28.844-16.465,53.665-39.773,68.409-69.829c18.073-36.842,21.432-81.457,14.863-121.527c-5.669-34.585-21.695-65.657-47.32-89.61
			c-19.372-18.109-43.579-30.39-68.831-37.998C368.406,5.454,350.476,1.68,332.27,0.631c-17.241-0.993-34.538-0.517-51.799-0.517
			c-15.078,0-30.156,0-45.234,0c-18.196,0-38.781,5.836-54.641,14.641c-2.315,1.285-10.64,5.559-9.487,9.862
			C172.27,28.951,181.594,28.415,184.256,28.415L184.256,28.415z"/>
	</g>
</g>
</svg>
