<?xml version="1.0" encoding="utf-8"?>
<!-- Generator: Adobe Illustrator 13.0.2, SVG Export Plug-In  -->
<!DOCTYPE svg PUBLIC "-//W3C//DTD SVG 1.1//EN" "http://www.w3.org/Graphics/SVG/1.1/DTD/svg11.dtd" [
	<!ENTITY ns_flows "http://ns.adobe.com/Flows/1.0/">
]>
<svg version="1.1"
	 xmlns="http://www.w3.org/2000/svg" xmlns:xlink="http://www.w3.org/1999/xlink" xmlns:a="http://ns.adobe.com/AdobeSVGViewerExtensions/3.0/"
	 x="0px" y="0px" width="1024px" height="1024px" viewBox="124.246 -667.493 1024 1024"
	 enable-background="new 124.246 -667.493 1024 1024" xml:space="preserve">
<defs>
</defs>
<g>
	<g>
		<path fill="none" d="M209.746,14.507c-42.75,0-42.75,42.75-42.75,42.75v256.5c0,0,0,42.75-42.75,42.75"/>
		<path d="M210.582,5.299c-20.843,0.229-39.484,9.838-49.248,28.524c-3.725,7.129-6.134,16.059-6.134,24.164
			c0,15.068,0,30.138,0,45.206c0,60.433,0,120.864,0,181.297c0,9.988,0.037,19.978,0,29.966c-0.008,2.097-0.284,4.204-0.604,6.272
			c-0.144,0.928-0.324,1.85-0.513,2.77c-0.084,0.4-0.173,0.801-0.267,1.2c-0.498,2.183,0.58-2.101-0.043,0.141
			c-0.718,2.585-1.678,5.094-2.793,7.53c-0.552,1.205-1.186,2.368-1.842,3.519c1.222-2.142-1.055,1.397-1.423,1.891
			c-0.862,1.154-1.827,2.228-2.815,3.274c1.795-1.9-0.328,0.191-0.636,0.458c-0.7,0.606-1.446,1.156-2.191,1.705
			c-1.079,0.736-1.033,0.722,0.138-0.045c-0.843,0.521-1.728,0.973-2.61,1.423c-0.613,0.302-1.235,0.588-1.864,0.855
			c-3.16,1.4,2.375-0.757-1.039,0.33c-0.759,0.242-5.468,1.257-3.705,0.986c-2.616,0.402-5.269,0.504-7.911,0.533
			c-5.376,0.059-12.109,4.077-12.632,9.892c-0.555,6.175,5.942,8.58,10.961,8.524c20.843-0.229,39.484-9.838,49.248-28.524
			c3.725-7.129,6.134-16.059,6.134-24.164c0-15.068,0-30.138,0-45.206c0-60.433,0-120.864,0-181.297c0-9.988-0.037-19.978,0-29.966
			c0.008-2.097,0.284-4.204,0.604-6.272c0.144-0.928,0.324-1.85,0.513-2.77c0.084-0.4,0.173-0.801,0.267-1.2
			c0.498-2.183-0.58,2.101,0.043-0.141c0.718-2.585,1.678-5.094,2.793-7.53c0.552-1.204,1.186-2.368,1.842-3.519
			c-1.222,2.142,1.055-1.397,1.423-1.891c0.862-1.154,1.827-2.228,2.815-3.274c-1.795,1.9,0.328-0.191,0.636-0.458
			c0.7-0.606,1.446-1.156,2.191-1.705c1.079-0.736,1.033-0.722-0.138,0.045c0.843-0.521,1.728-0.973,2.61-1.423
			c0.613-0.302,1.235-0.588,1.864-0.855c3.16-1.4-2.375,0.757,1.039-0.33c0.759-0.242,5.468-1.257,3.705-0.986
			c2.616-0.402,5.269-0.504,7.911-0.533c5.376-0.059,12.109-4.077,12.632-9.892C222.098,7.649,215.601,5.243,210.582,5.299
			L210.582,5.299z"/>
	</g>
</g>
<g>
	<g>
		<path fill="none" d="M38.746,14.507c0,0,42.75,0,42.75,42.75s0,256.5,0,256.5s0,42.75,42.75,42.75"/>
		<path d="M13.256,28.657c0.24,0.001,0.48,0.011,0.72,0.02c-11.345-0.438-6.405-0.392-3.785-0.123
			c2.701,0.277,5.372,0.795,8.003,1.458c2.863,0.722-4.805-1.406-1.909-0.521c0.917,0.279,1.819,0.603,2.718,0.933
			c1.927,0.706,3.789,1.575,5.606,2.524c3.758,1.964,7.13,4.576,10.061,7.631c-0.689-0.732-1.378-1.466-2.068-2.198
			c10.232,11.221,10.257,25.443,10.257,39.708c0,12.94,0,25.882,0,38.822c0,35.479,0,70.957,0,106.436c0,28.887,0,57.773,0,86.66
			c0,13.66-0.264,26.307,7.091,38.64c10.443,17.51,29.688,21.801,48.806,22.012c9.343,0.104,19.124-2.092,28.079-4.491
			c9.104-2.439,18.29-5.558,26.562-10.149c2.315-1.285,10.64-5.559,9.487-9.862c-1.167-4.354-10.477-3.769-13.147-3.798
			c-5.218-0.058,6.175,0.495,1.172,0.096c-1.652-0.133-3.29-0.4-4.919-0.693c-0.768-0.147-1.53-0.314-2.289-0.502
			c2.681,0.789,3.109,0.899,1.286,0.331c-1.344-0.428-2.645-0.979-3.933-1.55c-4.312-1.91-8.113-4.81-11.337-8.223
			c0.689,0.732,1.379,1.465,2.068,2.197c-10.394-11.548-11.651-25.681-11.651-40.269c0-27.152,0-54.305,0-81.457
			c0-35.838,0-71.675,0-107.513c0-13.906,0-27.812,0-41.718c0-13.067,1.194-26.714-5.288-38.599
			C105.051,6.5,83.354,0.427,64.236,0.356c-9.377-0.035-19.083,2.081-28.079,4.491c-9.104,2.439-18.29,5.558-26.562,10.149
			c-2.315,1.285-10.64,5.559-9.487,9.862C1.272,29.199,10.591,28.647,13.256,28.657L13.256,28.657z"/>
	</g>
</g>
<g>
	<g>
		<path fill="none" d="M209.746,14.507h85.5c0,0,171,0,171,85.5l-171,85.5c0,0,171,0,171,85.5s0,85.5,0,85.5"/>
		<path d="M184.256,28.657c24.827,0,49.653,0,74.479,0c4.543,0,9.09-0.054,13.633,0.034c3.054,0.059,6.107,0.175,9.158,0.318
			c4.259,0.2-8.26-0.444-2.995-0.15c1.123,0.063,2.246,0.133,3.368,0.205c2.728,0.175,5.454,0.381,8.178,0.606
			c22.014,1.826,43.998,5.229,65.31,11.103c-6.106-1.683-0.531-0.124,0.82,0.28c1.476,0.443,2.945,0.908,4.413,1.381
			c2.921,0.939,5.817,1.959,8.694,3.026c5.646,2.096,11.176,4.497,16.559,7.195c10.062,5.045,19.558,11.416,27.372,19.564
			c-0.689-0.732-1.378-1.465-2.068-2.198c10.444,11.14,16.326,25.012,16.433,40.337c3.162-3.287,6.324-6.574,9.487-9.862
			c-44.462,22.231-88.924,44.462-133.387,66.693c-12.538,6.269-25.076,12.538-37.613,18.807c-2.339,1.17-10.62,5.634-9.487,9.862
			c1.162,4.335,10.485,3.797,13.147,3.798c1.222,0.001,2.444,0.028,3.667,0.057c1.376,0.032,2.751,0.077,4.127,0.127
			c0.857,0.031,1.715,0.067,2.572,0.104c0.468,0.021,0.937,0.042,1.405,0.064c4.109,0.193-7.383-0.387-4.056-0.209
			c11.486,0.613,22.948,1.711,34.347,3.247c14.687,1.979,29.279,4.787,43.57,8.726c-6.24-1.72,0.275,0.115,1.705,0.55
			c1.769,0.538,3.527,1.107,5.282,1.688c3.775,1.25,7.506,2.628,11.199,4.103c6.893,2.753,13.595,5.987,19.991,9.755
			c7.191,4.237,13.898,9.322,19.68,15.353c-0.689-0.732-1.378-1.465-2.068-2.198c8.536,9.104,14.238,20.124,15.939,32.543
			c1.466,10.71,0.494,21.938,0.494,32.72c0,9.854,0,19.707,0,29.561c0,10.338,0,20.676,0,31.014c0,4.205,11.695,3.822,13.147,3.798
			c9.459-0.159,18.975-2.052,28.079-4.491c9.104-2.439,18.29-5.558,26.562-10.149c3.466-1.925,9.487-5.026,9.487-9.862
			c0-13.276,0-26.553,0-39.829c0-12.654,0-25.308,0-37.962c0-8.62-0.058-16.836-2.613-25.138
			c-4.16-13.521-14.047-24.734-25.011-33.313c-24.327-19.033-57.18-27.034-87.008-32.278c-22.19-3.901-44.844-5.843-67.366-6.254
			c-0.716-0.013-1.433-0.024-2.149-0.024c1.22,4.553,2.44,9.106,3.66,13.66c44.462-22.231,88.924-44.462,133.387-66.693
			c12.538-6.269,25.076-12.538,37.613-18.807c3.452-1.727,9.52-5.157,9.487-9.862c-0.211-30.244-23.502-51.433-49.072-63.666
			c-27.667-13.236-59.079-19.313-89.375-22.746c-41.802-4.736-84.216-2.886-126.181-2.886c-1.672,0-3.345,0-5.018,0
			c-18.196,0-38.781,5.836-54.641,14.641c-2.315,1.285-10.64,5.559-9.487,9.862C172.27,29.193,181.594,28.657,184.256,28.657
			L184.256,28.657z"/>
	</g>
</g>
</svg>
