<?xml version="1.0" encoding="utf-8"?>
<!-- Generator: Adobe Illustrator 13.0.2, SVG Export Plug-In  -->
<!DOCTYPE svg PUBLIC "-//W3C//DTD SVG 1.1//EN" "http://www.w3.org/Graphics/SVG/1.1/DTD/svg11.dtd" [
	<!ENTITY ns_flows "http://ns.adobe.com/Flows/1.0/">
]>
<svg version="1.1"
	 xmlns="http://www.w3.org/2000/svg" xmlns:xlink="http://www.w3.org/1999/xlink" xmlns:a="http://ns.adobe.com/AdobeSVGViewerExtensions/3.0/"
	 x="0px" y="0px" width="1024px" height="1024px" viewBox="124.246 -667.493 1024 1024"
	 enable-background="new 124.246 -667.493 1024 1024" xml:space="preserve">
<defs>
</defs>
<g>
	<g>
		<path fill="none" d="M209.746,14.507c-42.75,0-42.75,42.75-42.75,42.75v256.5c0,0,0,42.75-42.75,42.75"/>
		<path d="M210.582,5.299c-20.843,0.229-39.484,9.838-49.248,28.524c-3.725,7.129-6.134,16.059-6.134,24.164
			c0,15.068,0,30.138,0,45.206c0,60.433,0,120.864,0,181.297c0,9.988,0.037,19.978,0,29.966c-0.008,2.097-0.284,4.204-0.604,6.272
			c-0.144,0.928-0.324,1.85-0.513,2.77c-0.084,0.4-0.173,0.801-0.267,1.2c-0.498,2.183,0.58-2.101-0.043,0.141
			c-0.718,2.585-1.678,5.094-2.793,7.53c-0.552,1.205-1.186,2.368-1.842,3.519c1.222-2.142-1.055,1.397-1.423,1.891
			c-0.862,1.154-1.827,2.228-2.815,3.274c1.795-1.9-0.328,0.191-0.636,0.458c-0.7,0.606-1.446,1.156-2.191,1.705
			c-1.079,0.736-1.033,0.722,0.138-0.045c-0.843,0.521-1.728,0.973-2.61,1.423c-0.613,0.302-1.235,0.588-1.864,0.855
			c-3.16,1.4,2.375-0.757-1.039,0.33c-0.759,0.242-5.468,1.257-3.705,0.986c-2.616,0.402-5.269,0.504-7.911,0.533
			c-5.376,0.059-12.109,4.077-12.632,9.892c-0.555,6.175,5.942,8.58,10.961,8.524c20.843-0.229,39.484-9.838,49.248-28.524
			c3.725-7.129,6.134-16.059,6.134-24.164c0-15.068,0-30.138,0-45.206c0-60.433,0-120.864,0-181.297c0-9.988-0.037-19.978,0-29.966
			c0.008-2.097,0.284-4.204,0.604-6.272c0.144-0.928,0.324-1.85,0.513-2.77c0.084-0.4,0.173-0.801,0.267-1.2
			c0.498-2.183-0.58,2.101,0.043-0.141c0.718-2.585,1.678-5.094,2.793-7.53c0.552-1.204,1.186-2.368,1.842-3.519
			c-1.222,2.142,1.055-1.397,1.423-1.891c0.862-1.154,1.827-2.228,2.815-3.274c-1.795,1.9,0.328-0.191,0.636-0.458
			c0.7-0.606,1.446-1.156,2.191-1.705c1.079-0.736,1.033-0.722-0.138,0.045c0.843-0.521,1.728-0.973,2.61-1.423
			c0.613-0.302,1.235-0.588,1.864-0.855c3.16-1.4-2.375,0.757,1.039-0.33c0.759-0.242,5.468-1.257,3.705-0.986
			c2.616-0.402,5.269-0.504,7.911-0.533c5.376-0.059,12.109-4.077,12.632-9.892C222.098,7.649,215.601,5.243,210.582,5.299
			L210.582,5.299z"/>
	</g>
</g>
<g>
	<g>
		<path fill="none" d="M38.746,14.507c0,0,42.75,0,42.75,42.75s0,256.5,0,256.5s0,42.75,42.75,42.75"/>
		<path d="M13.256,28.657c0.24,0.001,0.48,0.011,0.72,0.02c-11.345-0.438-6.405-0.392-3.785-0.123
			c2.701,0.277,5.372,0.795,8.003,1.458c2.863,0.722-4.805-1.406-1.909-0.521c0.917,0.279,1.819,0.603,2.718,0.933
			c1.927,0.706,3.789,1.575,5.606,2.524c3.758,1.964,7.13,4.576,10.061,7.631c-0.689-0.732-1.378-1.466-2.068-2.198
			c10.232,11.221,10.257,25.443,10.257,39.708c0,12.94,0,25.882,0,38.822c0,35.479,0,70.957,0,106.436c0,28.887,0,57.773,0,86.66
			c0,13.66-0.264,26.307,7.091,38.64c10.443,17.51,29.688,21.801,48.806,22.012c9.343,0.104,19.124-2.092,28.079-4.491
			c9.104-2.439,18.29-5.558,26.562-10.149c2.315-1.285,10.64-5.559,9.487-9.862c-1.167-4.354-10.477-3.769-13.147-3.798
			c-5.218-0.058,6.175,0.495,1.172,0.096c-1.652-0.133-3.29-0.4-4.919-0.693c-0.768-0.147-1.53-0.314-2.289-0.502
			c2.681,0.789,3.109,0.899,1.286,0.331c-1.344-0.428-2.645-0.979-3.933-1.55c-4.312-1.91-8.113-4.81-11.337-8.223
			c0.689,0.732,1.379,1.465,2.068,2.197c-10.394-11.548-11.651-25.681-11.651-40.269c0-27.152,0-54.305,0-81.457
			c0-35.838,0-71.675,0-107.513c0-13.906,0-27.812,0-41.718c0-13.067,1.194-26.714-5.288-38.599
			C105.051,6.5,83.354,0.427,64.236,0.356c-9.377-0.035-19.083,2.081-28.079,4.491c-9.104,2.439-18.29,5.558-26.562,10.149
			c-2.315,1.285-10.64,5.559-9.487,9.862C1.272,29.199,10.591,28.647,13.256,28.657L13.256,28.657z"/>
	</g>
</g>
<g>
	<g>
		<path fill="none" d="M209.746,14.507h85.5c0,0,171,0,171,85.5l-171,85.5l171,85.5c0,0,0,85.5-171,85.5"/>
		<path d="M184.256,28.657c24.827,0,49.653,0,74.479,0c4.543,0,9.09-0.054,13.633,0.034c3.054,0.059,6.107,0.175,9.158,0.318
			c4.259,0.2-8.26-0.444-2.995-0.15c1.123,0.063,2.246,0.133,3.368,0.205c2.728,0.175,5.454,0.381,8.178,0.606
			c22.014,1.826,43.998,5.229,65.31,11.103c-6.106-1.683-0.531-0.124,0.82,0.28c1.476,0.443,2.945,0.908,4.413,1.381
			c2.921,0.939,5.817,1.959,8.694,3.026c5.646,2.096,11.176,4.497,16.559,7.195c10.062,5.045,19.558,11.416,27.372,19.564
			c-0.689-0.732-1.378-1.465-2.068-2.198c10.444,11.14,16.326,25.012,16.433,40.337c3.162-3.287,6.324-6.574,9.487-9.862
			c-44.462,22.231-88.924,44.462-133.387,66.693c-12.538,6.269-25.076,12.538-37.613,18.807c-2.258,1.129-14.585,8.478-7.418,12.061
			c44.462,22.231,88.924,44.462,133.386,66.693c12.538,6.269,25.076,12.538,37.614,18.807c-0.689-0.732-1.379-1.466-2.068-2.198
			c-0.006,2.752-0.579,5.554-1.203,8.217c0.23-0.979,0.461-1.959,0.692-2.938c-1.496,6.237-3.986,12.182-7.17,17.742
			c-2.18,3.807-4.734,7.39-7.518,10.776c-1.333,1.621-7.331,7.862-1.984,2.44c-2.006,2.034-4.128,3.951-6.309,5.795
			c-2.198,1.858-4.494,3.599-6.837,5.271c-1.935,1.38-7.505,4.948,1.049-0.565c-1.587,1.022-3.208,1.992-4.84,2.941
			c-1.467,0.853-2.958,1.661-4.457,2.456c-0.774,0.411-1.556,0.807-2.338,1.203c-4.103,2.078,8.373-4.024,4.181-2.031
			c-1.685,0.802-3.392,1.555-5.105,2.294c-0.885,0.382-1.777,0.748-2.669,1.114c-6.49,2.663,9.342-3.526,4.342-1.644
			c-1.937,0.729-3.892,1.407-5.853,2.07c-1.013,0.342-2.032,0.668-3.051,0.993c-5.525,1.766,11.59-3.478,5.978-1.817
			c-2.186,0.646-4.387,1.239-6.592,1.815c-1.14,0.298-2.284,0.578-3.429,0.859c-5.849,1.434,12.532-2.82,4.448-1.052
			c-2.471,0.54-4.953,1.024-7.438,1.493c-3.322,0.626-14.001,2.269,0.334,0.048c-6.114,0.947-12.263,1.666-18.42,2.266
			c-2.651,0.259-13.979,1.074-2.484,0.282c-3.208,0.221-6.421,0.385-9.633,0.53c-6.851,0.313-13.708,0.425-20.565,0.437
			c-18.211,0.031-38.763,5.826-54.641,14.641c-2.315,1.285-10.64,5.559-9.487,9.862c1.161,4.33,10.487,3.803,13.147,3.798
			c59.401-0.104,119.967-9.801,173.639-36.148c21.775-10.689,43.521-26.812,54.595-49.015c3.689-7.397,6.875-16.462,6.894-24.84
			c-0.689-0.732-1.379-1.466-2.068-2.198c-44.462-22.231-88.924-44.462-133.386-66.693c-12.538-6.269-25.076-12.538-37.614-18.807
			c-2.473,4.021-4.945,8.04-7.418,12.061c44.462-22.231,88.924-44.462,133.387-66.693c12.538-6.269,25.076-12.538,37.613-18.807
			c3.452-1.727,9.52-5.157,9.487-9.862c-0.211-30.244-23.502-51.433-49.072-63.666c-27.667-13.236-59.079-19.313-89.375-22.746
			c-41.802-4.736-84.216-2.886-126.181-2.886c-1.672,0-3.345,0-5.018,0c-18.196,0-38.781,5.836-54.641,14.641
			c-2.315,1.285-10.64,5.559-9.487,9.862C172.27,29.193,181.594,28.657,184.256,28.657L184.256,28.657z"/>
	</g>
</g>
</svg>
