<?xml version="1.0" encoding="utf-8"?>
<!-- Generator: Adobe Illustrator 13.0.2, SVG Export Plug-In  -->
<!DOCTYPE svg PUBLIC "-//W3C//DTD SVG 1.1//EN" "http://www.w3.org/Graphics/SVG/1.1/DTD/svg11.dtd" [
	<!ENTITY ns_flows "http://ns.adobe.com/Flows/1.0/">
]>
<svg version="1.1"
	 xmlns="http://www.w3.org/2000/svg" xmlns:xlink="http://www.w3.org/1999/xlink" xmlns:a="http://ns.adobe.com/AdobeSVGViewerExtensions/3.0/"
	 x="0px" y="0px" width="1024px" height="1024px" viewBox="124.246 -667.838 1024 1024"
	 enable-background="new 124.246 -667.838 1024 1024" xml:space="preserve">
<defs>
</defs>
<g>
	<g>
		<path fill="none" d="M209.746,14.162c-42.75,0-42.75,42.75-42.75,42.75v256.5c0,0,0,42.75-42.75,42.75"/>
		<path d="M210.582,4.954c-20.843,0.229-39.484,9.838-49.248,28.524c-3.725,7.129-6.134,16.059-6.134,24.164
			c0,15.068,0,30.138,0,45.206c0,60.433,0,120.864,0,181.297c0,9.988,0.037,19.978,0,29.966c-0.008,2.097-0.284,4.204-0.604,6.272
			c-0.144,0.928-0.324,1.85-0.513,2.77c-0.084,0.4-0.173,0.801-0.267,1.2c-0.498,2.183,0.58-2.101-0.043,0.141
			c-0.718,2.585-1.678,5.094-2.793,7.53c-0.552,1.205-1.186,2.368-1.842,3.519c1.222-2.142-1.055,1.397-1.423,1.891
			c-0.862,1.154-1.827,2.228-2.815,3.274c1.795-1.9-0.328,0.191-0.636,0.458c-0.7,0.606-1.446,1.156-2.191,1.705
			c-1.079,0.736-1.033,0.722,0.138-0.045c-0.843,0.521-1.728,0.973-2.61,1.423c-0.613,0.302-1.235,0.588-1.864,0.855
			c-3.16,1.4,2.375-0.757-1.039,0.33c-0.759,0.242-5.468,1.257-3.705,0.986c-2.616,0.402-5.269,0.504-7.911,0.533
			c-5.376,0.059-12.109,4.077-12.632,9.892c-0.555,6.175,5.942,8.58,10.961,8.524c20.843-0.229,39.484-9.838,49.248-28.524
			c3.725-7.129,6.134-16.059,6.134-24.164c0-15.068,0-30.138,0-45.206c0-60.433,0-120.864,0-181.297c0-9.988-0.037-19.978,0-29.966
			c0.008-2.097,0.284-4.204,0.604-6.272c0.144-0.928,0.324-1.85,0.513-2.77c0.084-0.4,0.173-0.801,0.267-1.2
			c0.498-2.183-0.58,2.101,0.043-0.141c0.718-2.585,1.678-5.094,2.793-7.53c0.552-1.204,1.186-2.368,1.842-3.519
			c-1.222,2.142,1.055-1.397,1.423-1.891c0.862-1.154,1.827-2.228,2.815-3.274c-1.795,1.9,0.328-0.191,0.636-0.458
			c0.7-0.606,1.446-1.156,2.191-1.705c1.079-0.736,1.033-0.722-0.138,0.045c0.843-0.521,1.728-0.973,2.61-1.423
			c0.613-0.302,1.235-0.588,1.864-0.855c3.16-1.4-2.375,0.757,1.039-0.33c0.759-0.242,5.468-1.257,3.705-0.986
			c2.616-0.402,5.269-0.504,7.911-0.533c5.376-0.059,12.109-4.077,12.632-9.892C222.098,7.305,215.601,4.898,210.582,4.954
			L210.582,4.954z"/>
	</g>
</g>
<g>
	<g>
		<path fill="none" d="M38.746,14.162c0,0,42.75,0,42.75,42.75s0,256.5,0,256.5s0,42.75,42.75,42.75"/>
		<path d="M13.256,28.313c0.24,0.001,0.48,0.011,0.72,0.02C2.63,27.895,7.571,27.94,10.19,28.209
			c2.701,0.277,5.372,0.795,8.003,1.458c2.863,0.722-4.805-1.406-1.909-0.521c0.917,0.279,1.819,0.603,2.718,0.933
			c1.927,0.706,3.789,1.575,5.606,2.524c3.758,1.964,7.13,4.576,10.061,7.631c-0.689-0.732-1.378-1.466-2.068-2.198
			c10.232,11.221,10.257,25.443,10.257,39.708c0,12.94,0,25.882,0,38.822c0,35.479,0,70.957,0,106.436c0,28.887,0,57.773,0,86.66
			c0,13.66-0.264,26.307,7.091,38.64c10.443,17.51,29.688,21.801,48.806,22.012c9.343,0.104,19.124-2.092,28.079-4.491
			c9.104-2.439,18.29-5.558,26.562-10.149c2.315-1.285,10.64-5.559,9.487-9.862c-1.167-4.354-10.477-3.769-13.147-3.798
			c-5.218-0.058,6.175,0.495,1.172,0.096c-1.652-0.133-3.29-0.4-4.919-0.693c-0.768-0.147-1.53-0.314-2.289-0.502
			c2.681,0.789,3.109,0.899,1.286,0.331c-1.344-0.428-2.645-0.979-3.933-1.55c-4.312-1.91-8.113-4.81-11.337-8.223
			c0.689,0.732,1.379,1.465,2.068,2.197c-10.394-11.548-11.651-25.681-11.651-40.269c0-27.152,0-54.305,0-81.457
			c0-35.838,0-71.675,0-107.513c0-13.906,0-27.812,0-41.718c0-13.067,1.194-26.714-5.288-38.599
			C105.051,6.155,83.354,0.082,64.236,0.012c-9.377-0.035-19.083,2.081-28.079,4.491c-9.104,2.439-18.29,5.558-26.562,10.149
			c-2.315,1.285-10.64,5.559-9.487,9.862C1.272,28.854,10.591,28.303,13.256,28.313L13.256,28.313z"/>
	</g>
</g>
<g>
	<g>
		<path fill="none" d="M209.746,14.162h256.5v256.5c0,0-1,85.5-86,85.5h-42.25c0,0-42.75,0-42.75-42.75s0-85.5,0-85.5"/>
		<path d="M184.256,28.313c45.247,0,90.494,0,135.741,0c40.253,0,80.506,0,120.759,0c-4.382-1.266-8.765-2.531-13.147-3.798
			c0,45.247,0,90.494,0,135.741c0,29.591,0,59.182,0,88.771c0,11.171,0.546,22.49-0.068,33.651
			c-0.33,6.002-1.323,11.976-2.677,17.825c0.23-0.979,0.461-1.959,0.692-2.938c-2.892,12.186-7.708,23.878-14.954,34.136
			c-1.995,2.825-4.218,5.481-6.573,8.011c-2.365,2.538,3.272-3.256,0.77-0.818c-0.647,0.631-1.318,1.237-1.989,1.843
			c-1.602,1.447-3.294,2.788-5.02,4.083c-0.758,0.569-1.539,1.107-2.318,1.646c-3.469,2.394,5.888-3.709,2.264-1.488
			c-1.698,1.041-3.46,1.976-5.237,2.873c10.242-5.174,6.061-2.92,3.677-1.876c-2.772,1.214-7.847,2.939,5.028-1.88
			c-1.021,0.382-2.057,0.723-3.092,1.063c8.424-2.507,10.747-3.22,6.967-2.137c-0.734,0.203-1.47,0.397-2.209,0.581
			c14.632-3.748,9.137-2.067,5.782-1.392c-0.394,0.073-0.787,0.147-1.181,0.222c-3.542,0.612-1.588,0.309,5.864-0.913
			c-2.825,0.421-12.752,1.058-0.745,0.301c-2.887,0.182-5.778,0.192-8.669,0.192c-6.767,0-13.533,0-20.299,0
			c-6.364,0-12.727,0-19.091,0c-0.526,0-1.052,0.005-1.577-0.013c10.899,0.352,5.193,0.356,1.811-0.105
			c-1.881-0.257-3.743-0.635-5.588-1.078c-4.003-0.96,4.688,1.453,0.61,0.149c-1.163-0.372-2.304-0.81-3.437-1.264
			c-5.388-2.16-10.262-5.424-14.278-9.61c0.689,0.732,1.378,1.466,2.068,2.198c-5.481-6.011-8.495-13.327-9.725-21.319
			c-0.996-6.473-0.533-13.193-0.533-19.715c0-7.602,0-15.202,0-22.803c0-16.965,0-33.929,0-50.893
			c0-4.205-11.695-3.822-13.147-3.798c-9.459,0.159-18.975,2.052-28.079,4.491c-9.104,2.439-18.29,5.558-26.562,10.149
			c-3.466,1.925-9.487,5.026-9.487,9.862c0,18.81,0,37.62,0,56.43c0,13.604-1.676,28.324,1.436,41.672
			c2.041,8.755,7.33,16.05,14.077,21.841c18.493,15.871,47.736,12.105,70.187,12.105c23.733,0,47.183-1.747,70.102-8.603
			c26.684-7.981,52.816-18.846,70.968-40.766c13.392-16.173,20.381-38.556,21.459-59.375c0.595-11.489,0.046-23.136,0.046-34.635
			c0-29.793,0-59.587,0-89.38c0-44.582,0-89.164,0-133.745c0-4.221-11.692-3.798-13.147-3.798c-45.247,0-90.494,0-135.741,0
			c-40.253,0-80.506,0-120.759,0c-18.196,0-38.781,5.836-54.641,14.641c-2.315,1.285-10.64,5.559-9.487,9.862
			C172.27,28.849,181.594,28.313,184.256,28.313L184.256,28.313z"/>
	</g>
</g>
</svg>
