<?xml version="1.0" encoding="utf-8"?>
<!-- Generator: Adobe Illustrator 13.0.2, SVG Export Plug-In  -->
<!DOCTYPE svg PUBLIC "-//W3C//DTD SVG 1.1//EN" "http://www.w3.org/Graphics/SVG/1.1/DTD/svg11.dtd" [
	<!ENTITY ns_flows "http://ns.adobe.com/Flows/1.0/">
]>
<svg version="1.1"
	 xmlns="http://www.w3.org/2000/svg" xmlns:xlink="http://www.w3.org/1999/xlink" xmlns:a="http://ns.adobe.com/AdobeSVGViewerExtensions/3.0/"
	 x="0px" y="0px" width="1024px" height="1024px" viewBox="124.246 -667.494 1024 1024"
	 enable-background="new 124.246 -667.494 1024 1024" xml:space="preserve">
<defs>
</defs>
<g>
	<g>
		<path fill="none" d="M209.746,14.506h85.5c0,0,42.75,0,85.5,0s42.75,42.75,42.75,42.75s0,42.75,0,85.5s-42.75,42.75-42.75,42.75
			s-1.25,0-44,0s-42.75,42.75-42.75,42.75s0,42.75,0,85.5s44,42.75,44,42.75h128.25"/>
		<path d="M184.256,28.656c24.827,0,49.653,0,74.479,0c7.655,0,15.31,0,22.965,0c12.378,0,24.756,0,37.134,0
			c7.554,0,15.108,0,22.663,0c3.928,0,7.857,0,11.785,0c1.619,0,7.962,0.278-0.502-0.199c1.688,0.095,3.365,0.326,5.036,0.583
			c1.17,0.181,2.324,0.447,3.476,0.716c-4.985-1.162-1.391-0.367-0.264,0.025c1.941,0.676,3.793,1.58,5.595,2.563
			c3.25,1.772,6.12,4.172,8.653,6.854c-0.689-0.732-1.379-1.465-2.068-2.197c7.91,8.788,11.651,20.766,11.651,32.472
			c0,12.812,0,25.623,0,38.435c0,10.481,0,20.963,0,31.444c0,8.799,0.578,17.726-1.435,26.359c0.23-0.979,0.461-1.958,0.692-2.938
			c-1.067,4.091-2.626,7.914-4.852,11.513c-0.98,1.584-2.146,3.045-3.364,4.451c-2.287,2.64,3.289-3.181,0.787-0.817
			c-0.834,0.788-1.733,1.506-2.637,2.213c-0.661,0.517-1.355,0.989-2.048,1.462c7.411-5.054,4.554-2.913,2.729-1.871
			c-5.219,2.978,9.087-4.006,2.494-1.242c13.007-5.452,9.2-3.458,6.209-2.41c-3.283,1.15-8.3,2.344,7.512-2.263
			c-7.282,2.122,12.586-2.638,5.482-1.255c-5.503,1.071,11.985-1.715,5.94-0.943c-0.771,0.099-1.546,0.171-2.322,0.232
			c13.729-1.094,9.115-0.486,6.186-0.486c-1.176,0-2.352,0-3.527,0c-6.492,0-12.984,0-19.476,0c-6.35,0-12.699,0-19.048,0
			c-14.151,0-27.752,2.46-41.493,5.663c-24.393,5.686-54.701,17.346-63.762,43.197c-2.574,7.343-3.566,14.797-3.566,22.495
			c0,25.161,0,50.321,0,75.482c0,10.515,0.547,20.475,6.222,29.643c4.137,6.685,10.519,12.166,17.491,15.703
			c10.121,5.133,22.163,7.117,33.444,7.117c42.747,0,85.493,0,128.24,0c18.196,0,38.781-5.836,54.641-14.641
			c2.315-1.285,10.64-5.559,9.487-9.862c-1.161-4.334-10.485-3.798-13.147-3.798c-22.537,0-45.075,0-67.612,0
			c-20.404,0-40.955,0.728-61.348-0.019c10.814,0.396,4.989,0.334,1.558-0.138c-1.29-0.178-2.571-0.414-3.846-0.675
			c-0.618-0.126-1.231-0.271-1.844-0.416c-3.947-0.937,4.081,1.218,1.245,0.367c-7.235-2.17-13.923-5.979-19.158-11.453
			c0.689,0.732,1.379,1.466,2.068,2.198c-7.825-8.604-10.167-19.431-10.167-30.791c0-18.688,0-37.376,0-56.064
			c0-12.347-1.397-25.525,1.383-37.72c-0.23,0.979-0.461,1.958-0.692,2.938c1.467-6.116,3.886-11.903,7.549-17.037
			c0.934-1.31,5.216-5.815,0.667-1.229c1.287-1.297,2.717-2.44,4.186-3.522c3.364-2.479-5.951,3.646-2.275,1.509
			c4.159-2.419-8.271,3.805-3.787,1.818c-2.334,0.891-4.668,1.78-7.002,2.671c3.677-1.266,1.333-0.567-7.032,2.096
			c3.781-0.977,1.457-0.438-6.972,1.617c-7.511,1.103-9.459,1.415-5.845,0.939c5.412-0.696-8.592,0.416-2.952,0.228
			c1.738-0.059,3.484-0.016,5.223-0.016c3.382,0,6.763,0,10.145,0c5.274,0,10.549,0,15.823,0c4.292,0,8.585,0,12.877,0
			c9.73,0,19.845-1.313,29.298-3.468c17.581-4.009,35.58-8.945,51.205-18.265c9.12-5.439,17.736-12.268,22.652-21.902
			c5.594-10.962,5.048-23.505,5.048-35.423c0-14.908,0-29.815,0-44.724c0-10.717,0.865-21.781-0.232-32.472
			c-1.329-12.938-7.313-24.672-17.416-32.973c-7.866-6.464-18.979-9.116-28.926-9.679c-16.972-0.958-34.077-0.396-51.073-0.396
			c-43.083,0-86.167,0-129.25,0c-18.196,0-38.781,5.836-54.641,14.641c-2.315,1.285-10.64,5.559-9.487,9.862
			C172.27,29.192,181.594,28.656,184.256,28.656L184.256,28.656z"/>
	</g>
</g>
<g>
	<g>
		<path fill="none" d="M209.746,14.506c-42.75,0-42.75,42.75-42.75,42.75v256.5c0,0,0,42.75-42.75,42.75"/>
		<path d="M210.581,5.298c-20.843,0.229-39.483,9.838-49.248,28.524c-3.725,7.129-6.134,16.059-6.134,24.164
			c0,15.068,0,30.138,0,45.206c0,60.433,0,120.864,0,181.297c0,9.988,0.037,19.978,0,29.966c-0.008,2.097-0.284,4.204-0.604,6.272
			c-0.144,0.928-0.324,1.85-0.513,2.77c-0.084,0.4-0.173,0.801-0.267,1.2c-0.498,2.183,0.58-2.101-0.043,0.141
			c-0.718,2.585-1.678,5.094-2.793,7.53c-0.552,1.205-1.186,2.368-1.842,3.519c1.222-2.142-1.055,1.397-1.423,1.891
			c-0.862,1.154-1.827,2.228-2.815,3.274c1.795-1.9-0.328,0.191-0.636,0.458c-0.7,0.606-1.446,1.156-2.191,1.705
			c-1.079,0.736-1.033,0.722,0.138-0.045c-0.843,0.521-1.728,0.973-2.61,1.423c-0.613,0.302-1.235,0.588-1.864,0.855
			c-3.16,1.4,2.375-0.757-1.039,0.33c-0.759,0.242-5.468,1.257-3.705,0.986c-2.616,0.402-5.27,0.504-7.911,0.533
			c-5.375,0.059-12.108,4.077-12.631,9.892c-0.555,6.175,5.942,8.58,10.961,8.524c20.843-0.229,39.483-9.838,49.248-28.524
			c3.725-7.129,6.134-16.059,6.134-24.164c0-15.068,0-30.138,0-45.206c0-60.433,0-120.864,0-181.297c0-9.988-0.037-19.978,0-29.966
			c0.008-2.097,0.284-4.204,0.604-6.272c0.144-0.928,0.324-1.85,0.513-2.77c0.084-0.4,0.173-0.801,0.267-1.2
			c0.498-2.183-0.58,2.101,0.043-0.141c0.718-2.585,1.678-5.094,2.793-7.53c0.552-1.204,1.186-2.368,1.842-3.519
			c-1.222,2.142,1.055-1.397,1.423-1.891c0.862-1.154,1.827-2.228,2.815-3.274c-1.795,1.9,0.328-0.191,0.636-0.458
			c0.7-0.606,1.446-1.156,2.191-1.705c1.079-0.736,1.033-0.722-0.138,0.045c0.843-0.521,1.728-0.973,2.61-1.423
			c0.613-0.302,1.235-0.588,1.864-0.855c3.16-1.4-2.375,0.757,1.039-0.33c0.759-0.242,5.468-1.257,3.705-0.986
			c2.616-0.402,5.27-0.504,7.911-0.533c5.375-0.059,12.108-4.077,12.631-9.892C222.098,7.648,215.601,5.242,210.581,5.298
			L210.581,5.298z"/>
	</g>
</g>
<g>
	<g>
		<path fill="none" d="M38.746,14.506c0,0,42.75,0,42.75,42.75s0,256.5,0,256.5s0,42.75,42.75,42.75"/>
		<path d="M13.256,28.656c0.24,0.001,0.48,0.011,0.72,0.02c-11.345-0.438-6.405-0.392-3.785-0.123
			c2.701,0.277,5.372,0.795,8.003,1.458c2.863,0.722-4.805-1.406-1.909-0.521c0.917,0.279,1.819,0.603,2.718,0.933
			c1.927,0.706,3.789,1.575,5.606,2.524c3.758,1.964,7.13,4.576,10.061,7.631c-0.689-0.732-1.378-1.466-2.068-2.198
			C42.833,49.6,42.859,63.822,42.859,78.087c0,12.94,0,25.882,0,38.822c0,35.479,0,70.957,0,106.436c0,28.887,0,57.773,0,86.66
			c0,13.66-0.264,26.307,7.091,38.64c10.443,17.51,29.688,21.801,48.806,22.012c9.343,0.104,19.124-2.092,28.079-4.491
			c9.104-2.439,18.29-5.558,26.562-10.149c2.315-1.285,10.64-5.559,9.487-9.862c-1.167-4.354-10.477-3.769-13.147-3.798
			c-5.218-0.058,6.175,0.495,1.172,0.096c-1.652-0.133-3.29-0.4-4.919-0.693c-0.768-0.147-1.53-0.314-2.289-0.502
			c2.681,0.789,3.109,0.899,1.286,0.331c-1.344-0.428-2.645-0.979-3.933-1.55c-4.312-1.91-8.113-4.81-11.337-8.223
			c0.689,0.732,1.379,1.465,2.068,2.197c-10.394-11.548-11.651-25.681-11.651-40.269c0-27.152,0-54.305,0-81.457
			c0-35.838,0-71.675,0-107.513c0-13.906,0-27.812,0-41.718c0-13.067,1.194-26.714-5.288-38.599
			C105.051,6.499,83.354,0.426,64.236,0.355C54.859,0.32,45.154,2.437,36.158,4.847c-9.104,2.439-18.29,5.558-26.562,10.149
			c-2.315,1.285-10.64,5.559-9.487,9.862C1.272,29.198,10.591,28.646,13.256,28.656L13.256,28.656z"/>
	</g>
</g>
<g>
	<g>
		<path fill="none" d="M551.746,14.506c-42.75,0-42.75,42.75-42.75,42.75v256.5c0,0,0,42.75-42.75,42.75"/>
		<path d="M552.581,5.297c-20.843,0.23-39.483,9.839-49.248,28.525c-3.725,7.129-6.134,16.059-6.134,24.164
			c0,15.068,0,30.138,0,45.206c0,60.433,0,120.864,0,181.297c0,9.988,0.037,19.978,0,29.966c-0.008,2.097-0.284,4.204-0.604,6.272
			c-0.144,0.928-0.324,1.85-0.513,2.77c-0.084,0.4-0.173,0.801-0.267,1.2c-0.498,2.183,0.58-2.101-0.043,0.141
			c-0.718,2.585-1.678,5.094-2.793,7.53c-0.552,1.204-1.186,2.368-1.842,3.519c1.222-2.142-1.055,1.397-1.423,1.891
			c-0.862,1.154-1.827,2.228-2.815,3.274c1.795-1.9-0.328,0.191-0.636,0.458c-0.7,0.606-1.446,1.156-2.191,1.705
			c-1.079,0.736-1.033,0.722,0.138-0.045c-0.843,0.521-1.728,0.973-2.61,1.423c-0.613,0.302-1.235,0.588-1.864,0.855
			c-3.16,1.4,2.375-0.757-1.039,0.33c-0.759,0.242-5.468,1.257-3.705,0.986c-2.616,0.402-5.27,0.504-7.911,0.533
			c-5.375,0.059-12.108,4.077-12.631,9.892c-0.555,6.174,5.942,8.58,10.961,8.524c20.843-0.229,39.483-9.838,49.247-28.524
			c3.725-7.129,6.135-16.059,6.135-24.164c0-15.068,0-30.138,0-45.206c0-60.433,0-120.864,0-181.297c0-9.988-0.037-19.978,0-29.966
			c0.008-2.098,0.283-4.205,0.604-6.272c0.144-0.928,0.324-1.85,0.513-2.769c0.085-0.402,0.173-0.802,0.267-1.201
			c0.498-2.184-0.58,2.101,0.043-0.141c0.719-2.584,1.678-5.094,2.794-7.53c0.552-1.204,1.186-2.368,1.842-3.519
			c-1.222,2.142,1.056-1.396,1.423-1.891c0.863-1.154,1.827-2.228,2.815-3.274c-1.795,1.901,0.328-0.191,0.636-0.458
			c0.701-0.606,1.447-1.156,2.191-1.705c1.079-0.736,1.033-0.721-0.138,0.045c0.843-0.521,1.728-0.973,2.61-1.423
			c0.613-0.302,1.234-0.587,1.863-0.856c3.16-1.399-2.375,0.758,1.039-0.329c0.76-0.242,5.469-1.257,3.705-0.986
			c2.615-0.401,5.27-0.503,7.911-0.532c5.376-0.06,12.108-4.078,12.632-9.893C564.098,7.648,557.601,5.242,552.581,5.297
			L552.581,5.297z"/>
	</g>
</g>
<g>
	<g>
		<path fill="none" d="M551.746,14.506h85.5c0,0,171,0,171,85.5l-171,85.5c0,0,171,0,171,85.5s0,85.5,0,85.5"/>
		<path d="M526.256,28.656c24.826,0,49.653,0,74.479,0c4.544,0,9.09-0.054,13.633,0.033c3.054,0.059,6.106,0.176,9.158,0.319
			c4.259,0.2-8.26-0.444-2.995-0.149c1.123,0.063,2.246,0.132,3.367,0.203c2.729,0.176,5.455,0.382,8.179,0.607
			c22.014,1.826,43.997,5.229,65.311,11.103c-6.106-1.683-0.531-0.124,0.819,0.28c1.477,0.443,2.945,0.908,4.412,1.381
			c2.922,0.939,5.817,1.959,8.694,3.027c5.646,2.096,11.176,4.496,16.56,7.195c10.062,5.043,19.558,11.416,27.371,19.563
			c-0.689-0.732-1.379-1.466-2.068-2.198c10.444,11.14,16.326,25.012,16.434,40.337c3.162-3.287,6.324-6.575,9.486-9.862
			c-44.462,22.231-88.925,44.463-133.387,66.693c-12.537,6.269-25.076,12.538-37.613,18.807c-2.34,1.17-10.619,5.634-9.486,9.862
			c1.161,4.335,10.484,3.797,13.146,3.798c1.223,0.001,2.444,0.028,3.666,0.057c1.377,0.032,2.752,0.077,4.127,0.127
			c0.857,0.031,1.715,0.067,2.572,0.104c0.469,0.021,0.937,0.042,1.405,0.064c4.109,0.193-7.383-0.387-4.056-0.209
			c11.486,0.613,22.947,1.711,34.347,3.247c14.687,1.979,29.279,4.787,43.57,8.726c-6.24-1.72,0.274,0.115,1.704,0.55
			c1.769,0.538,3.527,1.107,5.282,1.688c3.775,1.25,7.507,2.628,11.199,4.103c6.894,2.753,13.595,5.987,19.991,9.755
			c7.19,4.237,13.897,9.322,19.68,15.353c-0.689-0.732-1.379-1.465-2.068-2.198c8.536,9.104,14.238,20.124,15.939,32.543
			c1.467,10.71,0.494,21.938,0.494,32.72c0,9.854,0,19.707,0,29.561c0,10.338,0,20.676,0,31.014c0,4.205,11.695,3.822,13.146,3.798
			c9.46-0.159,18.975-2.052,28.078-4.491c9.104-2.439,18.291-5.558,26.563-10.149c3.467-1.925,9.486-5.026,9.486-9.862
			c0-13.276,0-26.553,0-39.829c0-12.654,0-25.308,0-37.962c0-8.62-0.058-16.836-2.612-25.138
			c-4.16-13.521-14.048-24.734-25.011-33.313c-24.327-19.033-57.181-27.034-87.008-32.278c-22.19-3.901-44.845-5.843-67.366-6.254
			c-0.717-0.013-1.433-0.024-2.149-0.024c1.221,4.553,2.44,9.106,3.66,13.66c44.462-22.231,88.925-44.463,133.387-66.693
			c12.538-6.27,25.075-12.538,37.613-18.807c3.452-1.727,9.52-5.156,9.486-9.862c-0.211-30.244-23.502-51.433-49.072-63.666
			c-27.666-13.236-59.078-19.313-89.375-22.746c-41.802-4.735-84.217-2.886-126.182-2.886c-1.672,0-3.345,0-5.018,0
			c-18.195,0-38.781,5.836-54.641,14.641c-2.315,1.285-10.64,5.559-9.486,9.862C514.27,29.191,523.594,28.656,526.256,28.656
			L526.256,28.656z"/>
	</g>
</g>
</svg>
