<?xml version="1.0" encoding="utf-8"?>
<!-- Generator: Adobe Illustrator 13.0.2, SVG Export Plug-In  -->
<!DOCTYPE svg PUBLIC "-//W3C//DTD SVG 1.1//EN" "http://www.w3.org/Graphics/SVG/1.1/DTD/svg11.dtd" [
	<!ENTITY ns_flows "http://ns.adobe.com/Flows/1.0/">
]>
<svg version="1.1"
	 xmlns="http://www.w3.org/2000/svg" xmlns:xlink="http://www.w3.org/1999/xlink" xmlns:a="http://ns.adobe.com/AdobeSVGViewerExtensions/3.0/"
	 x="0px" y="0px" width="1024px" height="1024px" viewBox="38.94 -667.85 1024 1024"
	 enable-background="new 38.94 -667.85 1024 1024" xml:space="preserve">
<defs>
</defs>
<g>
	<g>
		<path fill="none" d="M380.94,270.65v-171c0,0,0-85.5-171-85.5s-171,85.5-171,85.5v171c0,0-2,85.625,170,85.5
			S380.94,270.65,380.94,270.65z"/>
		<path d="M419.577,260.298c0-49.832,0-99.664,0-149.497c0-8.752,0.937-17.988-0.575-26.686c-2.653-15.265-11.6-28.19-22.205-39.096
			c-22.127-22.752-54.742-32.938-85.053-38.799c-26.776-5.177-54.407-6.433-81.62-6.193c-29.561,0.26-59.397,3.019-88.329,9.196
			C99.081,18.345,52.958,32.851,21.707,64.985C10.908,76.09,3.605,89.556,0.878,104.82c-1.551,8.681-0.575,17.952-0.575,26.687
			c0,30.658,0,61.316,0,91.975c0,19.174,0,38.348,0,57.521c0,8.155,2.955,16.479,6.573,23.656
			c10.279,20.386,29.766,35.066,50.112,44.386c43.064,19.727,93.794,22.318,140.354,21.054
			c56.611-1.539,115.823-11.845,166.152-38.928c20.431-10.994,40.596-26.997,50.368-48.629
			C416.903,275.809,419.56,267.777,419.577,260.298c0.01-4.203-11.706-3.822-13.147-3.798c-9.459,0.159-18.975,2.052-28.079,4.491
			c-9.104,2.439-18.29,5.558-26.562,10.149c-3.477,1.931-9.476,5.022-9.487,9.862c-0.006,2.713-0.571,5.475-1.186,8.101
			c0.231-0.979,0.461-1.958,0.692-2.938c-1.475,6.159-3.93,12.03-7.063,17.525c-2.148,3.767-4.664,7.314-7.407,10.669
			c-1.324,1.62-7.251,7.852-1.905,2.393c-1.976,2.018-4.066,3.921-6.215,5.754c-2.166,1.847-4.428,3.577-6.735,5.241
			c-1.23,0.887-2.487,1.735-3.751,2.571c8.714-5.765,2.25-1.482,0.098-0.216c-3.127,1.841-15.002,7.682-2.463,1.624
			c-3.896,1.882-18.598,7.673-3.248,1.778c-4.345,1.669-20.061,6.534-2.731,1.278c-2.153,0.653-4.321,1.254-6.494,1.838
			c-1.123,0.303-2.25,0.587-3.378,0.872c-7.875,1.99,10.481-2.373,4.536-1.028c-4.977,1.126-9.995,2.063-15.026,2.904
			c14.427-2.411,3.405-0.549,0.025-0.092c-3.327,0.45-6.662,0.827-10,1.178c-2.49,0.262-4.983,0.482-7.478,0.693
			c-1.023,0.084-2.047,0.165-3.071,0.241c10.363-0.793,4.206-0.304,1.944-0.167c-6.074,0.37-12.158,0.572-18.241,0.694
			c-5.848,0.116-11.698,0.1-17.546,0.012c-2.822-0.042-5.644-0.124-8.465-0.218c-1.645-0.055-3.29-0.127-4.934-0.2
			c7.334,0.325,1.647,0.08,0.154-0.009c-19.403-1.157-38.788-3.767-57.621-8.644c-0.737-0.193-1.474-0.39-2.209-0.591
			c5.113,1.381,1.264,0.349,0.213,0.041c-1.729-0.507-3.446-1.05-5.16-1.604c-3.552-1.146-7.06-2.428-10.532-3.796
			c-6.147-2.422-12.127-5.266-17.887-8.503c-8.921-5.015-17.207-11.21-24.279-18.621c0.689,0.732,1.379,1.466,2.068,2.198
			c-9.554-10.154-16.928-22.855-19.016-36.787c-1.326-8.852-0.413-18.213-0.413-27.097c0-49.602-0.116-99.204,0-148.806
			c0.006-2.751,0.579-5.552,1.203-8.214c-0.23,0.979-0.461,1.959-0.692,2.938c1.496-6.237,3.986-12.182,7.17-17.742
			c2.18-3.807,4.734-7.39,7.518-10.776c1.333-1.621,7.331-7.862,1.984-2.44c2.006-2.034,4.128-3.951,6.309-5.795
			c2.198-1.858,4.494-3.599,6.837-5.271c1.935-1.38,7.505-4.949-1.049,0.565c1.587-1.022,3.208-1.992,4.84-2.941
			c1.467-0.853,2.958-1.661,4.457-2.456c0.774-0.411,1.556-0.807,2.338-1.203c4.103-2.078-8.373,4.024-4.181,2.031
			c1.685-0.802,3.392-1.555,5.104-2.294c0.886-0.382,1.778-0.748,2.67-1.114c6.49-2.663-9.342,3.526-4.342,1.644
			c1.937-0.729,3.892-1.407,5.853-2.07c1.013-0.342,2.032-0.668,3.051-0.993c5.525-1.766-11.59,3.478-5.978,1.817
			c2.186-0.646,4.387-1.239,6.592-1.815c1.14-0.298,2.284-0.578,3.429-0.859c5.849-1.434-12.532,2.82-4.448,1.052
			c2.471-0.54,4.953-1.024,7.438-1.493c3.322-0.626,14.001-2.269-0.334-0.048c6.114-0.947,12.263-1.666,18.42-2.266
			c2.527-0.247,5.059-0.451,7.591-0.646c-11.311,0.869-1.262,0.122,1.268-0.013c6.167-0.328,12.342-0.486,18.517-0.563
			c5.839-0.072,11.679-0.014,17.516,0.122c2.786,0.064,5.571,0.17,8.355,0.286c5.818,0.242-5.828-0.332-0.096-0.005
			c1.577,0.09,3.153,0.198,4.729,0.307c19.164,1.321,38.293,4.113,56.842,9.172c-5.526-1.507,0.712,0.248,1.904,0.615
			c1.704,0.523,3.397,1.085,5.086,1.655c3.503,1.185,6.959,2.502,10.379,3.905c5.809,2.383,11.456,5.153,16.904,8.273
			c8.89,5.09,17.136,11.352,24.182,18.801c-0.689-0.732-1.379-1.465-2.068-2.197c9.412,10.091,16.799,22.659,18.998,36.432
			c1.488,9.322,0.429,19.269,0.429,28.636c0,48.891,0,97.781,0,146.672c0,4.205,11.695,3.822,13.147,3.798
			c9.459-0.159,18.975-2.052,28.079-4.491c9.104-2.439,18.29-5.558,26.562-10.149C413.557,268.235,419.577,265.134,419.577,260.298z
			"/>
	</g>
</g>
</svg>
