<?xml version="1.0" encoding="utf-8"?>
<!-- Generator: Adobe Illustrator 13.0.2, SVG Export Plug-In  -->
<!DOCTYPE svg PUBLIC "-//W3C//DTD SVG 1.1//EN" "http://www.w3.org/Graphics/SVG/1.1/DTD/svg11.dtd" [
	<!ENTITY ns_flows "http://ns.adobe.com/Flows/1.0/">
]>
<svg version="1.1"
	 xmlns="http://www.w3.org/2000/svg" xmlns:xlink="http://www.w3.org/1999/xlink" xmlns:a="http://ns.adobe.com/AdobeSVGViewerExtensions/3.0/"
	 x="0px" y="0px" width="1024px" height="1024px" viewBox="81.246 -667.846 1024 1024"
	 enable-background="new 81.246 -667.846 1024 1024" xml:space="preserve">
<defs>
</defs>
<g>
	<g>
		<path fill="none" d="M337.746,356.154h-85.5h-128.25c-42.5,0-42.5-42.5-42.5-42.5V56.904c0,0,0-42.75-42.75-42.75"/>
		<path d="M363.236,342.004c-41.6,0-83.199,0-124.799,0c-23.522,0-47.045,0-70.567,0c-5.914,0-11.827,0-17.741,0
			c-0.677,0-1.351-0.008-2.029-0.016c8.435,0.093,0.979-0.041-1.122-0.364c-0.781-0.13-1.558-0.279-2.331-0.449
			c-4.012-0.826,3.949,1.274,0.181,0.074c-5.824-1.854-11.002-5.291-15.181-9.716c0.689,0.732,1.379,1.466,2.068,2.198
			c-9.87-10.965-11.583-24.547-11.583-38.505c0-23.225,0-46.449,0-69.673c0-56.449,0-112.898,0-169.348
			c0-5.727,0.202-11.341-0.784-17.007c-1.489-8.552-5.032-16.774-10.867-23.257C96.926,3.104,80.976,0.188,64.236,0.004
			C54.893-0.1,45.112,2.096,36.158,4.495c-9.104,2.439-18.29,5.558-26.562,10.149c-2.315,1.285-10.64,5.559-9.487,9.862
			c1.167,4.354,10.477,3.769,13.147,3.798c5.218,0.058-6.175-0.495-1.172-0.096c1.652,0.133,3.29,0.4,4.919,0.693
			c0.768,0.147,1.53,0.314,2.289,0.502c-2.681-0.789-3.109-0.899-1.286-0.331c1.344,0.428,2.645,0.979,3.933,1.55
			c4.312,1.91,8.113,4.81,11.337,8.223c-0.689-0.732-1.379-1.465-2.068-2.197c9.913,11.014,11.651,24.661,11.651,38.684
			c0,23.225,0,46.449,0,69.673c0,56.449,0,112.898,0,169.348c0,13.408,0.913,26.118,9.383,37.463
			c17.349,23.236,50.816,18.489,76.6,18.489c48.047,0,96.093,0,144.14,0c13.091,0,26.183,0,39.274,0
			c18.196,0,38.781-5.836,54.641-14.641c2.315-1.285,10.64-5.559,9.487-9.862C375.222,341.468,365.898,342.004,363.236,342.004
			L363.236,342.004z"/>
	</g>
</g>
<g>
	<g>
		<path fill="none" d="M337.746,356.154c0,0,42.75,0,42.75-42.75s0-128.25,0-128.25V56.904c0,0,0-42.75,42.75-42.75"/>
		<path d="M336.911,365.362c9.932-0.036,20.654-3.205,29.297-7.925c18.196-9.936,26.084-27.592,26.084-47.768
			c0-38.609,0-77.22,0-115.83c0-44.712,0-89.424,0-134.136c0-1.399-0.035-2.804,0.02-4.204c0.059-1.528,0.228-3.052,0.434-4.566
			c0.146-1.068,0.337-2.13,0.543-3.188c0.116-0.597,0.251-1.189,0.386-1.782c0.349-1.529-0.533,1.837,0.234-0.797
			c0.907-3.114,2.159-6.115,3.66-8.987c0.186-0.355,1.589-2.631,0.294-0.556c0.44-0.706,0.924-1.385,1.408-2.063
			c0.494-0.693,1.034-1.354,1.573-2.012c0.324-0.396,2.944-3.031,1.033-1.198c1.332-1.277,2.806-2.393,4.317-3.445
			c-2.27,1.581,0.422-0.174,0.803-0.381c1.202-0.656,2.464-1.192,3.729-1.711c-2.628,1.079,0.801-0.144,1.145-0.243
			c1.116-0.322,2.255-0.556,3.392-0.79c-2.372,0.489,1.684-0.17,1.755-0.177c1.791-0.187,3.595-0.221,5.394-0.241
			c5.375-0.059,12.108-4.077,12.631-9.892c0.555-6.174-5.942-8.58-10.961-8.524c-20.843,0.229-39.483,9.838-49.248,28.524
			C371.1,40.617,368.7,49.556,368.7,57.68c0,23.501,0,47.002,0,70.503c0,54.881,0,109.763,0,164.644
			c0,10.021,0.807,20.461-0.72,30.388c-0.316,2.052-0.666,3.249-1.392,5.336c-0.346,0.99-0.77,1.951-1.194,2.91
			c-0.152,0.344-1.995,3.67-1.028,2.107c-0.98,1.584-2.146,3.045-3.364,4.451c-1.952,2.253,1.619-1.463-0.508,0.546
			c-0.834,0.788-1.733,1.506-2.637,2.213c-0.661,0.517-1.355,0.989-2.048,1.461c2.566-1.749,0.286-0.224-0.255,0.085
			c-1.582,0.902-3.243,1.66-4.921,2.364c-2.504,1.05,2.743-0.978,0.239-0.1c-0.664,0.232-1.338,0.438-2.011,0.644
			c-1.443,0.44-2.912,0.794-4.387,1.113c-0.566,0.122-1.135,0.228-1.705,0.332c-2.201,0.405,3.201-0.49,1.1-0.185
			c-0.969,0.141-1.944,0.244-2.919,0.329c-0.786,0.068-1.579,0.122-2.368,0.125c-5.373,0.02-12.111,4.105-12.631,9.892
			C325.392,363.039,331.895,365.381,336.911,365.362L336.911,365.362z"/>
	</g>
</g>
<g>
	<g>
		<path fill="none" d="M423.246,14.154c0,0,42.75,0,42.75,42.75s0,299.25,0,299.25"/>
		<path d="M397.756,28.305c0.24,0.001,0.48,0.011,0.72,0.02c-11.345-0.438-6.405-0.392-3.785-0.123
			c2.701,0.277,5.372,0.795,8.003,1.458c2.863,0.722-4.805-1.406-1.909-0.521c0.917,0.279,1.819,0.603,2.718,0.933
			c1.927,0.706,3.789,1.575,5.606,2.524c3.758,1.964,7.13,4.576,10.061,7.631c-0.689-0.732-1.378-1.466-2.068-2.198
			c9.813,10.761,10.257,24.313,10.257,38.057c0,11.228,0,22.456,0,33.684c0,33.25,0,66.501,0,99.751c0,51.998,0,103.996,0,155.993
			c0,0.332,0,0.664,0,0.995c0,4.205,11.695,3.822,13.147,3.798c9.459-0.159,18.975-2.052,28.078-4.491
			c9.104-2.439,18.291-5.558,26.563-10.149c3.467-1.925,9.486-5.026,9.486-9.862c0-47.245,0-94.49,0-141.734
			c0-34.335,0-68.67,0-103.005c0-12.635,0-25.271,0-37.905c0-11.481,1.036-23.537-3.102-34.452
			C493.508,7.537,469.407,0.08,448.736,0.004c-9.377-0.035-19.083,2.081-28.079,4.491c-9.104,2.439-18.29,5.558-26.562,10.149
			c-2.315,1.285-10.64,5.559-9.487,9.862C385.772,28.847,395.091,28.295,397.756,28.305L397.756,28.305z"/>
	</g>
</g>
</svg>
